<svg width="84" height="32" viewBox="0 0 84 32" fill="none" xmlns="http://www.w3.org/2000/svg">
<path fill-rule="evenodd" clip-rule="evenodd" d="M16.7218 13.9257H15.8676C15.2575 13.9257 15.0135 13.5596 15.0135 13.0715V9.28865H16.7218V8.19041H15.0135V6.11597H13.7932V13.0715C13.7932 14.5358 14.5253 15.1459 15.8676 15.1459H16.7218V13.9257Z" fill="#0072A9"/>
<path fill-rule="evenodd" clip-rule="evenodd" d="M5.12933 11.8511C5.12933 14.4137 7.20379 15.2679 9.03419 15.2679C10.8646 15.2679 12.695 14.4137 12.695 12.4613C12.695 10.5089 11.1086 10.0207 9.64432 9.65467L9.15618 9.53264C7.81389 9.28859 6.71566 9.04454 6.71566 8.06833C6.71566 6.72604 8.17999 6.48198 8.79012 6.48198C10.1324 6.48198 10.9866 7.09211 11.1086 8.31238H12.3289C12.2069 6.35996 10.9866 5.26172 8.79012 5.26172C7.08175 5.26172 5.3734 6.1159 5.3734 8.06833C5.3734 9.77669 6.83771 10.2648 8.42406 10.6309L8.79012 10.7529C10.1324 10.997 11.4747 11.363 11.4747 12.4613C11.4747 13.9256 10.0104 14.1696 9.15618 14.1696C8.42403 14.1696 7.81389 13.9256 7.32579 13.6815C6.83768 13.3155 6.47163 12.7053 6.47163 11.9732L5.12933 11.8511ZM24.0434 14.0476C23.7994 14.1696 23.6774 14.1696 23.6774 14.1696C23.4333 14.1696 23.3113 14.0476 23.3113 13.4375V9.89872C23.3113 8.55643 22.4571 7.9463 20.7487 7.9463C19.6505 7.9463 17.9421 8.19035 17.8201 10.2648H19.0403C19.0403 9.41062 19.6505 9.04454 20.6267 9.04454C21.6029 9.04454 22.091 9.41062 22.091 10.1428C22.091 10.7529 21.4809 10.8749 20.6267 10.997C20.3826 10.997 20.1386 11.119 19.8945 11.119C18.6743 11.363 17.576 11.7291 17.576 13.3155C17.576 14.5357 18.4302 15.2679 19.8945 15.2679C20.8707 15.2679 21.6029 14.9018 22.213 14.2917C22.213 15.1459 22.8231 15.2679 23.1892 15.2679C23.5553 15.2679 23.7994 15.1459 24.0434 15.0238V14.0476ZM20.1386 14.0476C19.7725 14.0476 18.9183 13.9256 18.9183 13.0714C18.9183 12.2172 19.5284 11.9732 20.2606 11.8511C20.5046 11.8511 20.6267 11.7291 20.8707 11.7291C21.3588 11.6071 21.8469 11.6071 22.213 11.363V12.4613C22.213 13.1934 21.6029 14.0476 20.1386 14.0476ZM25.1416 8.19035V15.0238H26.3619V11.119C26.3619 9.77669 27.0941 9.04454 28.3143 9.04454C29.1685 9.04454 29.6566 9.53264 29.6566 10.3868V15.0238H30.8769V10.5089C30.8769 8.80048 30.1447 7.9463 28.4364 7.9463C27.4602 7.9463 26.728 8.31238 26.2399 9.04454V8.19035H25.1416ZM37.3443 5.50577V8.92251C36.8562 8.19035 35.88 7.9463 35.1478 7.9463C33.1954 7.9463 31.9751 9.28859 31.9751 11.4851C31.9751 12.4613 32.2192 13.4375 32.7073 14.0476C33.3174 14.7798 34.0496 15.1459 35.1478 15.1459C36.124 15.1459 36.8562 14.7798 37.3443 14.1696V15.0238H38.5645V5.50577H37.3443ZM35.3919 14.0476C33.9275 14.0476 33.3174 12.8274 33.3174 11.6071C33.3174 10.8749 33.5615 9.04454 35.2699 9.04454C37.2223 9.04454 37.3443 10.997 37.3443 11.6071C37.3443 12.8274 36.8562 14.0476 35.3919 14.0476ZM46.2522 14.0476C46.0082 14.1696 45.8861 14.1696 45.8861 14.1696C45.6421 14.1696 45.5201 14.0476 45.5201 13.4375V9.89872C45.5201 8.55643 44.6659 7.9463 42.9575 7.9463C41.8593 7.9463 40.1509 8.19035 40.0289 10.2648H41.2491C41.2491 9.41062 41.8593 9.04454 42.8355 9.04454C43.8117 9.04454 44.2998 9.41062 44.2998 10.1428C44.2998 10.7529 43.6897 10.8749 42.8355 10.997C42.5914 10.997 42.3474 11.119 42.1033 11.119C40.883 11.363 39.7848 11.7291 39.7848 13.3155C39.7848 14.5357 40.639 15.2679 42.1033 15.2679C43.0795 15.2679 43.8117 14.9018 44.4218 14.2917C44.4218 15.1459 45.032 15.2679 45.398 15.2679C45.7641 15.2679 46.0082 15.1459 46.2522 15.0238V14.0476ZM42.3474 14.0476C41.9813 14.0476 41.1271 13.9256 41.1271 13.0714C41.1271 12.2172 41.7373 11.9732 42.4694 11.8511C42.7135 11.8511 42.8355 11.7291 43.0795 11.7291C43.5676 11.6071 44.0558 11.6071 44.4218 11.363V12.4613C44.2998 13.1934 43.8117 14.0476 42.3474 14.0476ZM51.0113 7.9463C49.791 7.9463 49.0588 8.31238 48.4487 9.41062V8.19035H47.3505V15.0238H48.5707V11.9732C48.5707 10.1428 49.3029 9.28859 51.0113 9.28859V7.9463ZM56.5024 5.50577V8.92251C56.0143 8.19035 55.0381 7.9463 54.3059 7.9463C52.3535 7.9463 51.1333 9.28859 51.1333 11.4851C51.1333 12.4613 51.3773 13.4375 51.9875 14.0476C52.5976 14.7798 53.3297 15.1459 54.428 15.1459C55.4042 15.1459 56.1364 14.7798 56.6245 14.1696V15.0238H57.8447V5.50577H56.5024ZM54.55 14.0476C53.0857 14.0476 52.4756 12.8274 52.4756 11.6071C52.4756 10.8749 52.7196 9.04454 54.428 9.04454C56.3804 9.04454 56.5024 10.997 56.5024 11.6071C56.5024 12.8274 56.0143 14.0476 54.55 14.0476ZM7.56986 24.5419C7.44783 26.2503 6.4716 27.2265 4.88526 27.2265C3.78702 27.2265 3.05486 26.8604 2.44473 26.1282C1.95663 25.5181 1.7126 24.5419 1.7126 23.4436C1.7126 22.4674 1.95663 21.4912 2.44473 20.8811C2.93284 20.1489 3.78702 19.7829 4.88526 19.7829C6.22755 19.7829 7.20377 20.515 7.44782 21.7353H8.79012C8.66809 20.7591 8.17998 20.0269 7.44782 19.4168C6.71566 18.9287 5.86147 18.6846 4.88526 18.6846C3.54297 18.6846 2.32273 19.1727 1.59057 20.1489C0.858412 21.0031 0.49234 22.3454 0.49234 23.6877C0.49234 26.7384 2.20068 28.5688 4.88526 28.5688C6.10552 28.5688 7.08176 28.2027 7.69189 27.5925C8.42405 26.9824 8.79013 26.0062 8.91215 24.7859H7.56986V24.5419ZM10.1324 18.8066V28.3247H11.3527V24.4199C11.3527 23.0776 12.0848 22.3454 13.3051 22.3454C14.1593 22.3454 14.6474 22.8335 14.6474 23.6877V28.3247H15.8676V23.8097C15.8676 22.1014 15.1355 21.2472 13.4271 21.2472C12.6949 21.2472 11.7188 21.4912 11.3527 22.3454V18.8066H10.1324ZM18.4302 23.5657C18.4302 22.7115 19.0403 22.2234 20.0166 22.2234C20.9928 22.2234 21.4809 22.5895 21.4809 23.3216C21.4809 23.9318 20.8707 24.0538 20.0166 24.1758C19.7725 24.1758 19.5284 24.2978 19.2844 24.2978C18.0641 24.5419 16.9659 24.908 16.9659 26.3723C16.9659 27.5925 17.8201 28.3247 19.2844 28.3247C20.2606 28.3247 20.9928 27.9586 21.6029 27.3485C21.6029 28.2027 22.213 28.3247 22.5791 28.3247C22.9452 28.3247 23.1892 28.3247 23.4333 28.0807V27.1044H23.3113C23.1892 27.1044 23.0672 27.2265 22.9452 27.2265C22.7011 27.2265 22.7011 27.1044 22.7011 26.4943V22.9555C22.7011 21.6133 21.8469 21.0031 20.1386 21.0031C19.0403 21.0031 17.332 21.2472 17.2099 23.3216L18.4302 23.5657ZM19.4064 27.3485C19.0403 27.3485 18.1862 27.2265 18.1862 26.3723C18.1862 25.5181 18.7963 25.274 19.5284 25.152C19.7725 25.152 19.8945 25.03 20.1386 25.03C20.6267 24.908 21.1148 24.908 21.4809 24.6639V25.7621C21.4809 26.3723 20.8707 27.3485 19.4064 27.3485ZM57.7227 28.2027V18.6846H56.5024V22.1014C56.0143 21.3692 55.0381 21.1251 54.3059 21.1251C52.3535 21.1251 51.1333 22.4674 51.1333 24.6639C51.1333 25.6401 51.3773 26.6163 51.9875 27.2265C52.5976 27.9586 53.3297 28.3247 54.428 28.3247C55.4042 28.3247 56.1364 27.9586 56.6245 27.3485V28.2027H57.7227ZM54.55 27.3485C53.0857 27.3485 52.4756 26.1282 52.4756 24.908C52.4756 24.1758 52.7196 22.3454 54.428 22.3454C56.3804 22.3454 56.5024 24.2978 56.5024 24.908C56.5024 26.0062 56.0143 27.3485 54.55 27.3485ZM37.7104 26.1282C37.4663 26.8604 36.7341 27.3485 36.002 27.3485C35.3919 27.3485 34.9038 27.1044 34.5377 26.7384C34.1716 26.3723 33.9276 25.7621 34.0496 25.152H39.0526C39.0526 23.9318 38.6866 22.7115 38.0765 22.1014C37.5883 21.4912 36.8562 21.2472 36.002 21.2472C34.1716 21.2472 32.7073 22.7115 32.7073 24.7859C32.8293 27.1044 33.9275 28.4467 36.002 28.4467C37.5883 28.4467 38.5646 27.5925 38.9307 26.1282H37.7104ZM35.88 22.2234C36.8562 22.2234 37.7104 22.9555 37.8324 24.0538H34.0496C34.0496 23.1996 34.6597 22.2234 35.88 22.2234ZM49.0588 26.1282C48.8148 26.8604 48.0826 27.3485 47.3505 27.3485C46.7403 27.3485 46.2522 27.1044 45.8861 26.7384C45.5201 26.3723 45.276 25.7621 45.276 25.152H50.2791C50.2791 23.9318 49.913 22.7115 49.3029 22.1014C48.8148 21.4912 48.0826 21.2472 47.2284 21.2472C45.398 21.2472 43.9337 22.7115 43.9337 24.7859C44.0557 27.1044 45.154 28.4467 47.2284 28.4467C48.8148 28.4467 49.791 27.5925 50.1571 26.1282H49.0588ZM47.2284 22.2234C48.2046 22.2234 49.0588 22.9555 49.1809 24.0538H45.276C45.398 23.1996 46.0082 22.2234 47.2284 22.2234ZM25.6297 28.2027V25.152C25.6297 23.3216 26.3619 22.4674 28.0703 22.4674V21.2472C26.972 21.2472 26.1179 21.6133 25.6297 22.7115V21.3692H24.5315V28.3247L25.6297 28.2027ZM41.3712 28.2027V25.152C41.3712 23.3216 42.1033 22.4674 43.8117 22.4674V21.2472C42.7135 21.2472 41.8593 21.6133 41.3712 22.7115V21.3692H40.2729V28.2027H41.3712Z" fill="#0072A9"/>
<path fill-rule="evenodd" clip-rule="evenodd" d="M31.9751 27.1044H31.1209C30.5108 27.1044 30.2668 26.7383 30.2668 26.2502V22.4674H31.9751V21.3691H30.2668V19.2947H29.0465V26.2502C29.0465 27.7145 29.7786 28.3246 31.1209 28.3246H31.9751V27.1044Z" fill="#0072A9"/>
<path fill-rule="evenodd" clip-rule="evenodd" d="M69.3152 30.7652C68.461 31.2533 67.7289 31.4974 66.9967 31.4974C64.9223 31.4974 63.2139 29.789 63.0919 27.8366L67.1187 25.5181L73.3421 28.3247L69.3152 30.7652Z" fill="#71B0D1"/>
<path fill-rule="evenodd" clip-rule="evenodd" d="M71.7557 20.6369L68.8271 19.2946C67.4848 18.6845 66.2646 18.1964 66.2646 16.7321C66.2646 15.9999 66.5086 15.6339 66.8747 15.1458L73.098 17.9524L71.5117 18.8065C71.0236 19.0506 70.7795 19.2947 70.7795 19.6607C70.7795 20.0268 71.1456 20.3929 71.7557 20.6369Z" fill="#A4D0A0"/>
<path fill-rule="evenodd" clip-rule="evenodd" d="M74.6844 6.96995L71.6337 8.80035C71.3897 8.92237 71.0236 9.16643 71.0236 9.65453C71.0236 10.1426 71.7557 10.5087 72.3659 10.7528L68.5831 9.0444C67.4848 8.55629 66.3866 7.94616 66.3866 6.60387C66.3866 5.99374 66.5086 5.62766 66.8747 5.13956L75.0504 0.136475C76.0267 0.746606 77.0029 1.84484 77.0029 3.30916C76.8808 5.01753 76.0267 6.11577 74.6844 6.96995Z" fill="#71B0D1"/>
<path fill-rule="evenodd" clip-rule="evenodd" d="M81.1517 12.8272L80.4196 13.3153L74.1963 10.5087L81.5178 6.11572C82.4941 6.72585 83.4703 7.82409 83.4703 9.28841C83.3482 10.9968 82.494 12.095 81.1517 12.8272Z" fill="#A4D0A0"/>
<path fill-rule="evenodd" clip-rule="evenodd" d="M75.7826 18.1963L79.4434 19.7826C80.7857 20.3928 81.2738 21.1249 81.2738 22.1011C81.2738 22.5892 81.0297 23.1994 80.5416 23.5654L74.3183 20.7588L75.4165 20.1487C76.2707 19.6606 76.6368 19.4166 76.6368 19.0505C76.6368 18.6844 76.3927 18.4403 75.7826 18.1963Z" fill="#71B0D1"/>
<path fill-rule="evenodd" clip-rule="evenodd" d="M82.372 31.8634C80.7857 30.6431 79.0773 29.7889 77.0029 28.9347L67.4848 24.7858C65.0443 23.6876 63.58 22.3453 63.58 19.9048C63.58 17.5863 64.6782 16.488 66.1425 15.5118L66.6306 15.1458C66.2645 15.5118 66.0205 15.8779 66.0205 16.7321C66.0205 18.1964 67.2408 18.6845 68.583 19.2946L79.5654 24.1757C81.5178 25.0299 83.2262 26.3722 83.2262 28.8127C83.4703 30.155 82.9821 31.3753 82.372 31.8634Z" fill="#22A947"/>
<path fill-rule="evenodd" clip-rule="evenodd" d="M81.2738 23.0775L80.5416 23.5656C80.9077 23.1996 81.2738 22.7114 81.2738 22.1013C81.2738 21.1251 80.7857 20.3929 79.4434 19.7828L67.6069 14.5357C65.2884 13.4374 63.702 12.0952 63.702 9.77665C63.702 7.58018 64.8002 6.11586 66.5086 5.13965C66.2645 5.50573 66.0205 5.99383 66.0205 6.60396C66.0205 7.94625 67.1187 8.55639 68.217 9.04449L79.6875 14.0476C81.7619 15.0238 83.4703 16.3661 83.4703 18.9286C83.7143 20.8811 82.7381 22.2233 81.2738 23.0775Z" fill="#0072A9"/>
</svg>
