<svg width="72" height="26" viewBox="0 0 72 26" fill="none" xmlns="http://www.w3.org/2000/svg">
<path d="M0.720674 22.1501H1.22067L0.720674 24.2501C0.620674 24.5501 0.620674 24.7501 0.720674 24.9501C0.820674 25.1501 1.02071 25.1501 1.32071 25.1501C1.62071 25.1501 1.82066 25.0501 2.02066 24.9501C2.22066 24.7501 2.32069 24.5501 2.42069 24.2501L2.92069 22.1501H3.42069L2.92069 24.2501C2.82069 24.7501 2.62071 25.0501 2.32071 25.2501C2.02071 25.4501 1.62067 25.5501 1.22067 25.5501C0.720674 25.5501 0.420711 25.4501 0.320711 25.2501C0.220711 25.0501 0.120674 24.6501 0.220674 24.2501L0.720674 22.1501Z" fill="#3F3F3E"/>
<path d="M3.42072 25.5502L4.32074 21.9502L5.92072 24.0502C5.92072 24.1502 6.02069 24.1502 6.02069 24.2502C6.02069 24.3502 6.12073 24.3502 6.12073 24.4502L6.7207 22.0502H7.2207L6.32074 25.6502L4.62073 23.5502C4.62073 23.4502 4.52069 23.4502 4.52069 23.3502C4.52069 23.2502 4.42072 23.2502 4.42072 23.1502L3.82074 25.5502H3.42072Z" fill="#3F3F3E"/>
<path d="M7.12073 25.5501L7.92072 22.1501H8.42072L7.62073 25.5501H7.12073Z" fill="#3F3F3E"/>
<path d="M8.42072 25.5501L9.2207 22.1501H11.1207L11.0207 22.6501H9.7207L9.52069 23.5501H10.8207L10.7207 24.0501H9.42072L9.02069 25.6501L8.42072 25.5501Z" fill="#3F3F3E"/>
<path d="M10.9207 25.5501L11.7207 22.1501H12.2207L11.4207 25.5501H10.9207Z" fill="#3F3F3E"/>
<path d="M12.2207 25.5501L13.0207 22.1501H14.9207L14.8207 22.6501H13.5207L13.3207 23.5501H14.6207L14.5207 24.0501H13.2207L12.9207 25.1501H14.2207L14.1207 25.6501L12.2207 25.5501Z" fill="#3F3F3E"/>
<path d="M14.7207 25.5501L15.5207 22.1501H16.2207C16.7207 22.1501 17.0207 22.1501 17.2207 22.2501C17.4207 22.3501 17.5207 22.3501 17.7207 22.4501C17.9207 22.6501 18.0207 22.7501 18.0207 23.0501V23.8501L17.7207 24.6501C17.5207 24.8501 17.4207 25.0501 17.1207 25.2501C16.9207 25.3501 16.7207 25.4501 16.5207 25.4501C16.3207 25.5501 16.0207 25.5501 15.6207 25.5501H14.7207ZM15.4207 25.0501H15.9207C16.1207 25.0501 16.3207 25.0501 16.5207 24.9501C16.6207 24.9501 16.8207 24.8501 16.9207 24.7501C17.1207 24.6501 17.2207 24.5501 17.3207 24.3501C17.4207 24.1501 17.5207 23.9501 17.5207 23.7501C17.6207 23.5501 17.6207 23.3501 17.5207 23.1501C17.5207 22.9501 17.4207 22.8501 17.3207 22.7501C17.2207 22.6501 17.1207 22.6501 17.0207 22.5501C16.9207 22.5501 16.7207 22.4501 16.4207 22.4501H16.0207L15.4207 25.0501ZM20.5207 23.9501L20.1207 25.4501H19.6207L20.4207 22.0501H21.7207C21.8207 22.0501 21.9207 22.1501 22.0207 22.1501C22.1207 22.2501 22.1207 22.3501 22.2207 22.4501V22.8501C22.2207 23.0501 22.1207 23.1501 22.0207 23.3501L21.7207 23.6501C21.6207 23.7501 21.5207 23.7501 21.4207 23.7501H20.8207L20.5207 23.9501ZM20.6207 23.5501C21.0207 23.5501 21.2207 23.5501 21.3207 23.4501C21.4207 23.3501 21.5207 23.2501 21.5207 23.0501C21.5207 22.8501 21.5207 22.7501 21.4207 22.6501C21.3207 22.5501 21.1207 22.5501 20.8207 22.5501H20.7207L20.6207 23.5501ZM24.0207 25.5501L23.8207 24.6501H22.5207L21.9207 25.5501H21.3207L23.8207 21.9501L24.6207 25.5501H24.0207ZM22.9207 24.1501H23.8207L23.6207 23.3501V22.9501C23.6207 23.0501 23.5207 23.0501 23.5207 23.1501C23.5207 23.2501 23.4207 23.2501 23.4207 23.3501L22.9207 24.1501ZM25.4207 25.5501L25.8207 23.9501L25.1207 22.0501H25.7207L26.1207 23.2501V23.5501C26.1207 23.4501 26.2207 23.4501 26.2207 23.3501C26.2207 23.2501 26.3207 23.2501 26.3207 23.2501L27.3207 22.1501H27.8207L26.2207 23.9501L25.8207 25.5501H25.4207ZM30.6207 23.8501V23.4501C30.6207 23.5501 30.5207 23.6501 30.5207 23.6501C30.5207 23.7501 30.4207 23.8501 30.3207 23.8501L29.0207 25.6501L28.6207 23.7501V23.3501C28.6207 23.4501 28.6207 23.4501 28.5207 23.5501C28.5207 23.6501 28.4207 23.7501 28.4207 23.7501L27.6207 25.4501H27.1207L28.7207 21.8501L29.2207 24.0501V24.5501C29.3207 24.4501 29.3207 24.3501 29.4207 24.1501L29.5207 24.0501L31.0207 21.8501L30.9207 25.4501H30.4207L30.6207 23.8501Z" fill="#3F3F3E"/>
<path d="M31.5207 25.5501L32.3207 22.1501H34.2207L34.1207 22.6501H32.8207L32.6207 23.5501H33.9207L33.8207 24.0501H32.5207L32.2207 25.1501H33.5207L33.4207 25.6501L31.5207 25.5501Z" fill="#3F3F3E"/>
<path d="M34.0207 25.5502L34.9207 21.9502L36.5207 24.0502C36.5207 24.1502 36.6207 24.1502 36.6207 24.2502C36.6207 24.3502 36.7207 24.3502 36.7207 24.4502L37.3207 22.0502H37.8207L36.9207 25.6502L35.2207 23.5502C35.2207 23.4502 35.1207 23.4502 35.1207 23.3502C35.1207 23.2502 35.0207 23.2502 35.0207 23.1502L34.4207 25.5502H34.0207Z" fill="#3F3F3E"/>
<path d="M39.5207 22.55L38.8207 25.55H38.3207L39.0207 22.55H38.1207L38.2207 22.05H40.5207L40.4207 22.55H39.5207Z" fill="#3F3F3E"/>
<path d="M40.1207 24.8502L40.6207 24.6502C40.6207 24.8502 40.7207 24.9502 40.7207 24.9502C40.8207 25.0502 40.9207 25.0502 41.1207 25.0502C41.3207 25.0502 41.4207 25.0502 41.5207 24.9502C41.6207 24.8502 41.7207 24.7502 41.7207 24.5502C41.8207 24.3502 41.6207 24.1502 41.3207 24.0502C41.3207 24.0502 41.2207 24.0502 41.2207 23.9502C40.9207 23.7502 40.7207 23.6502 40.6207 23.4502C40.5207 23.2502 40.5207 23.1502 40.5207 22.9502C40.6207 22.6502 40.7207 22.4502 40.9207 22.2502C41.1207 22.0502 41.4207 21.9502 41.7207 21.9502C41.9207 21.9502 42.1207 22.0502 42.3207 22.0502C42.4207 22.1502 42.5207 22.2502 42.5207 22.4502L42.0207 22.6502C42.0207 22.5502 41.9207 22.4502 41.8207 22.4502C41.7207 22.3502 41.6207 22.3502 41.5207 22.3502C41.4207 22.3502 41.2207 22.3502 41.1207 22.4502C41.0207 22.5502 40.9207 22.6502 40.9207 22.7502C40.8207 22.9502 41.0207 23.1502 41.3207 23.3502H41.4207C41.7207 23.5502 41.9207 23.6502 42.0207 23.8502C42.1207 24.0502 42.1207 24.1502 42.1207 24.4502C42.0207 24.7502 41.9207 25.0502 41.6207 25.2502C41.4207 25.4502 41.1207 25.5502 40.7207 25.5502C40.4207 25.5502 40.2207 25.4502 40.0207 25.3502C40.2207 25.2502 40.1207 25.0502 40.1207 24.8502Z" fill="#3F3F3E"/>
<path d="M44.1207 25.5501L44.9207 22.1501H45.4207L44.6207 25.5501H44.1207Z" fill="#3F3F3E"/>
<path d="M45.4207 25.5502L46.3207 21.9502L47.9207 24.0502C47.9207 24.1502 48.0207 24.1502 48.0207 24.2502C48.0207 24.3502 48.1207 24.3502 48.1207 24.4502L48.7207 22.0502H49.2207L48.3207 25.6502L46.6207 23.5502C46.6207 23.4502 46.5207 23.4502 46.5207 23.3502C46.5207 23.2502 46.4207 23.2502 46.4207 23.1502L45.8207 25.5502H45.4207Z" fill="#3F3F3E"/>
<path d="M51.0207 22.55L50.3207 25.55H49.8207L50.5207 22.55H49.6207L49.7207 22.05H52.0207L51.9207 22.55H51.0207Z" fill="#3F3F3E"/>
<path d="M51.6207 25.5501L52.4207 22.1501H54.3207L54.2207 22.6501H52.9207L52.7207 23.5501H54.0207L53.9207 24.0501H52.6207L52.3207 25.1501H53.6207L53.5207 25.6501L51.6207 25.5501Z" fill="#3F3F3E"/>
<path d="M54.9207 23.9501L54.5207 25.4501H54.0207L54.8207 22.05H56.1207C56.2207 22.05 56.3207 22.15 56.4207 22.15C56.5207 22.25 56.5207 22.3501 56.6207 22.4501V22.85C56.5207 23.15 56.4207 23.3501 56.3207 23.4501C56.1207 23.6501 55.9207 23.65 55.7207 23.75L56.5207 25.35H55.9207L54.9207 23.9501ZM55.1207 23.55C55.5207 23.55 55.7207 23.5501 55.8207 23.4501C55.9207 23.3501 56.0207 23.25 56.0207 23.05C56.0207 22.85 56.0207 22.75 55.9207 22.65C55.8207 22.55 55.6207 22.55 55.4207 22.55H55.3207L55.1207 23.55Z" fill="#3F3F3E"/>
<path d="M56.7207 25.5501L57.5207 22.1501H59.4207L59.3207 22.6501H58.0207L57.8207 23.5501H59.1207L59.0207 24.0501H57.7207L57.3207 25.6501L56.7207 25.5501Z" fill="#3F3F3E"/>
<path d="M61.2207 25.5502L61.0207 24.6502H59.7207L59.1207 25.5502H58.5207L61.0207 21.9502L61.8207 25.5502H61.2207ZM60.0207 24.1502H60.9207L60.7207 23.3502V22.9502C60.7207 23.0502 60.6207 23.0502 60.6207 23.1502C60.6207 23.2502 60.5207 23.2502 60.5207 23.3502L60.0207 24.1502ZM65.3207 22.9502C65.2207 22.8502 65.0207 22.7502 64.9207 22.6502C64.7207 22.5502 64.6207 22.5502 64.4207 22.5502C64.0207 22.5502 63.7207 22.6502 63.4207 22.9502C63.1207 23.1502 62.9207 23.5502 62.8207 23.8502C62.7207 24.2502 62.7207 24.5502 62.9207 24.7502C63.1207 24.9502 63.3207 25.1502 63.7207 25.1502C63.9207 25.1502 64.1207 25.1502 64.3207 25.0502L64.9207 24.7502L64.7207 25.3502C64.5207 25.4502 64.4207 25.5502 64.2207 25.5502C64.0207 25.6502 63.8207 25.6502 63.6207 25.6502C63.3207 25.6502 63.1207 25.6502 62.9207 25.5502C62.7207 25.4502 62.5207 25.3502 62.4207 25.1502C62.3207 24.9502 62.2207 24.7502 62.2207 24.5502V23.8502C62.3207 23.5502 62.4207 23.3502 62.5207 23.1502C62.6207 22.9502 62.8207 22.7502 63.0207 22.5502C63.2207 22.3502 63.4207 22.2502 63.7207 22.1502C63.9207 22.0502 64.2207 22.0502 64.4207 22.0502C64.6207 22.0502 64.8207 22.0502 64.9207 22.1502C65.1207 22.2502 65.2207 22.2502 65.4207 22.4502L65.3207 22.9502ZM65.3207 25.5502L66.1207 22.1502H68.0207L67.9207 22.6502H66.6207L66.4207 23.5502H67.7207L67.6207 24.0502H66.3207L66.0207 25.1502H67.3207L67.2207 25.6502L65.3207 25.5502Z" fill="#3F3F3E"/>
<path d="M55.4207 19.1501H51.7207L56.9207 0.350098H60.6207L55.4207 19.1501ZM53.5207 0.950097C53.2207 0.550097 52.8207 0.450097 52.3207 0.450097H31.8207L30.8207 4.1501H49.4207L48.3207 8.0501H29.7207L26.6207 19.2501H30.3207L32.4207 11.7501H49.2207C49.7207 11.7501 50.2207 11.5501 50.7207 11.2501C51.2207 10.8501 51.5207 10.4501 51.6207 9.9501L53.7207 2.4501C53.8207 1.7501 53.7207 1.2501 53.5207 0.950097ZM24.3207 17.9501C24.1207 18.6501 23.4207 19.2501 22.6207 19.2501H3.32073C2.82073 19.2501 2.42072 19.0501 2.12072 18.7501C1.82072 18.3501 1.8207 17.9501 1.9207 17.4501L6.62072 0.550097H10.3207L6.32073 15.5501H21.3207L25.5207 0.450097H29.2207L24.3207 17.9501Z" fill="#6F6F6E"/>
<path d="M67.1207 0.350098L71.8207 9.7501L61.9207 19.1501L67.1207 0.350098Z" fill="#497F47"/>
<path d="M63.8207 0.350098L68.5207 9.7501L58.5207 19.1501L63.8207 0.350098Z" fill="#CE7531"/>
</svg>
