<svg width="24" height="25" viewBox="0 0 24 25" fill="none" xmlns="http://www.w3.org/2000/svg">
<path fill-rule="evenodd" clip-rule="evenodd" d="M4.47663 15.7102C5.79094 13.878 8.11863 12.5 12 12.5C15.8813 12.5 18.209 13.878 19.5233 15.7102C20.7935 17.4809 20.9958 19.5105 20.9999 20.6336C21.004 21.7629 20.0572 22.5 19.0865 22.5H4.9134C3.94272 22.5 2.99595 21.7629 3.00001 20.6336C3.00405 19.5105 3.20637 17.4809 4.47663 15.7102ZM5.00178 20.5H18.9981C18.9775 19.5479 18.7727 18.095 17.8982 16.876C17.0234 15.6565 15.3549 14.5 12 14.5C8.64504 14.5 6.97648 15.6565 6.10173 16.876C5.22725 18.095 5.02243 19.5479 5.00178 20.5Z" fill="#FFC300"/>
<path fill-rule="evenodd" clip-rule="evenodd" d="M12 8.5C13.1046 8.5 14 7.60457 14 6.5C14 5.39543 13.1046 4.5 12 4.5C10.8955 4.5 10 5.39543 10 6.5C10 7.60457 10.8955 8.5 12 8.5ZM12 10.5C14.2092 10.5 16 8.70914 16 6.5C16 4.29086 14.2092 2.5 12 2.5C9.79091 2.5 8.00005 4.29086 8.00005 6.5C8.00005 8.70914 9.79091 10.5 12 10.5Z" fill="#FFC300"/>
</svg>
