<svg width="34" height="21" viewBox="0 0 34 21" fill="none" xmlns="http://www.w3.org/2000/svg">
<path d="M32.2809 10.5171C31.167 8.35059 28.9329 6.99107 26.4968 6.99738C25.8083 6.99794 25.1243 7.10864 24.4707 7.32523L21.8079 1.99961H25.9971C26.2731 1.99961 26.4968 2.22338 26.4968 2.49938C26.4968 2.77539 26.2731 2.99916 25.9971 2.99916H25.4227C25.1467 2.99916 24.923 3.22294 24.923 3.49894C24.923 3.77494 25.1467 3.99872 25.4227 3.99872H25.9971C26.8251 3.99872 27.4964 3.32745 27.4964 2.49938C27.4964 1.67131 26.8251 1.00005 25.9971 1.00005H20.9993C20.7233 0.998551 20.4983 1.22108 20.4968 1.49708C20.4963 1.57554 20.5144 1.65301 20.5495 1.72323L21.1902 2.99916H12.3121L11.6175 1.5H14.3073C14.5833 1.5 14.8071 1.27622 14.8071 1.00022C14.8071 0.72422 14.5833 0.500445 14.3073 0.500445H9.30953C9.03353 0.500445 8.80975 0.72422 8.80975 1.00022C8.80975 1.27622 9.03353 1.5 9.30953 1.5H10.5L11.4445 3.49894L9.53132 7.32523C6.12315 6.20273 2.45035 8.0556 1.32785 11.4638C0.20535 14.8719 2.05821 18.5447 5.46638 19.6672C8.87455 20.7897 12.5474 18.9369 13.6699 15.5287C13.8337 15.0314 13.9367 14.5162 13.9768 13.9943H17.001C17.0415 13.994 17.0818 13.9888 17.1209 13.9788L17.1314 13.9763C17.1429 13.9733 17.1529 13.9668 17.1644 13.9633C17.1847 13.9573 17.2045 13.9502 17.2239 13.9418C17.2269 13.9418 17.2284 13.9378 17.2309 13.9363C17.2334 13.9348 17.2449 13.9293 17.2514 13.9253C17.2659 13.9159 17.2799 13.9057 17.2934 13.8948C17.3149 13.8797 17.3353 13.8629 17.3543 13.8448L17.3738 13.8248C17.3813 13.8163 17.3858 13.8068 17.3928 13.7979C17.3998 13.7889 17.4163 13.7724 17.4258 13.7574C17.4298 13.7504 17.4318 13.7424 17.4353 13.7354C17.4388 13.7284 17.4443 13.7244 17.4478 13.7179L21.9988 4.61644L23.5481 7.71506C20.3628 9.35283 19.1083 13.2627 20.7461 16.4479C22.3839 19.6331 26.2937 20.8876 29.4789 19.2499C32.6641 17.6121 33.9186 13.7023 32.2809 10.5171ZM7.50522 18.992C4.46901 18.9963 2.00424 16.5384 1.99999 13.5022C1.99574 10.466 4.45365 8.00118 7.48986 7.99693C8.02812 7.99618 8.56356 8.07446 9.07909 8.22933L6.55815 13.2711C6.43476 13.518 6.53491 13.8182 6.7818 13.9415C6.85126 13.9762 6.92779 13.9943 7.00545 13.9943H12.9773C12.7167 16.8229 10.3458 18.9882 7.50522 18.992ZM7.81409 12.9947L10.0086 8.60616C11.6839 9.46472 12.8038 11.1203 12.9773 12.9947H7.81409ZM13.9768 12.9947C13.8012 10.7412 12.467 8.74092 10.4539 7.71306L12.0032 4.61444L16.1924 12.9947H13.9768ZM17.001 12.377L12.8119 3.99872H21.1901L17.001 12.377ZM28.086 18.7596C27.5705 18.9145 27.035 18.9928 26.4968 18.992C23.4627 18.9945 21.0012 16.537 20.9987 13.503C20.997 11.4375 22.154 9.54568 23.9934 8.60616L26.5492 13.7179C26.6726 13.9649 26.9729 14.0652 27.2199 13.9418C27.467 13.8184 27.5672 13.5181 27.4438 13.2711L24.923 8.22933C27.8309 7.35591 30.8962 9.00511 31.7696 11.913C32.6431 14.8208 30.9939 17.8862 28.086 18.7596Z" fill="#333333" stroke="#333333" stroke-width="0.7"/>
</svg>
