<svg width="17" height="17" viewBox="0 0 17 17" fill="none" xmlns="http://www.w3.org/2000/svg">
<g clip-path="url(#clip0_1008_24877)">
<path d="M13.668 16.4652H2.99801C2.29161 16.4638 1.61453 16.1826 1.11503 15.6831C0.61553 15.1836 0.334329 14.5066 0.333008 13.8002L0.333008 7.40516C0.333007 6.69789 0.613623 6.01953 1.11326 5.51895C1.61291 5.01837 2.29075 4.73648 2.99801 4.73516H13.668C14.3753 4.73648 15.0531 5.01837 15.5528 5.51895C16.0524 6.01953 16.333 6.69789 16.333 7.40516V13.8002C16.3317 14.5066 16.0505 15.1836 15.551 15.6831C15.0515 16.1826 14.3744 16.4638 13.668 16.4652ZM2.99801 5.80516C2.57366 5.80516 2.1667 5.97373 1.86664 6.27379C1.56658 6.57384 1.39801 6.98081 1.39801 7.40516V13.8002C1.39801 14.2245 1.56658 14.6315 1.86664 14.9315C2.1667 15.2316 2.57366 15.4002 2.99801 15.4002H13.668C14.0924 15.4002 14.4993 15.2316 14.7994 14.9315C15.0994 14.6315 15.268 14.2245 15.268 13.8002V7.40516C15.268 6.98081 15.0994 6.57384 14.7994 6.27379C14.4993 5.97373 14.0924 5.80516 13.668 5.80516H2.99801ZM10.998 4.20016C10.9278 4.20016 10.8582 4.18632 10.7933 4.15943C10.7284 4.13255 10.6694 4.09314 10.6197 4.04346C10.57 3.99378 10.5306 3.9348 10.5037 3.86989C10.4768 3.80498 10.463 3.73541 10.463 3.66516V3.13516C10.463 2.99413 10.4073 2.8588 10.3081 2.75861C10.2088 2.65842 10.074 2.60147 9.93301 2.60016H6.73301C6.66275 2.60016 6.59318 2.61399 6.52827 2.64088C6.46336 2.66777 6.40439 2.70717 6.35471 2.75685C6.30503 2.80653 6.26562 2.86551 6.23873 2.93042C6.21185 2.99533 6.19801 3.0649 6.19801 3.13516V3.66516C6.20521 3.73942 6.1968 3.81437 6.17332 3.88519C6.14984 3.95602 6.1118 4.02114 6.06165 4.07639C6.01151 4.13164 5.95036 4.17579 5.88213 4.206C5.81391 4.23621 5.74012 4.25182 5.66551 4.25182C5.59089 4.25182 5.51711 4.23621 5.44888 4.206C5.38066 4.17579 5.31951 4.13164 5.26936 4.07639C5.21921 4.02114 5.18118 3.95602 5.15769 3.88519C5.13421 3.81437 5.1258 3.73942 5.13301 3.66516V3.13516C5.13301 2.71081 5.30158 2.30384 5.60164 2.00379C5.9017 1.70373 6.30866 1.53516 6.73301 1.53516H9.93301C10.3574 1.53516 10.7643 1.70373 11.0644 2.00379C11.3644 2.30384 11.533 2.71081 11.533 3.13516V3.66516C11.533 3.73541 11.5192 3.80498 11.4923 3.86989C11.4654 3.9348 11.426 3.99378 11.3763 4.04346C11.3266 4.09314 11.2677 4.13255 11.2027 4.15943C11.1378 4.18632 11.0683 4.20016 10.998 4.20016Z" fill="#666666"/>
<path d="M8.33264 10.8304C7.81518 10.8255 7.30438 10.7131 6.83264 10.5004L3.33264 8.95541C3.20003 8.89773 3.09577 8.78973 3.04279 8.65517C2.98981 8.52061 2.99246 8.37052 3.05014 8.23791C3.10783 8.10531 3.21583 8.00104 3.35038 7.94807C3.48494 7.89509 3.63503 7.89773 3.76764 7.95541L7.26764 9.51041C7.6085 9.66159 7.97726 9.7397 8.35014 9.7397C8.72303 9.7397 9.09178 9.66159 9.43264 9.51041L12.9326 7.95541C12.9983 7.92685 13.0689 7.9115 13.1405 7.91024C13.2121 7.90898 13.2833 7.92183 13.3499 7.94807C13.4165 7.9743 13.4773 8.0134 13.5288 8.06313C13.5804 8.11286 13.6216 8.17225 13.6501 8.23791C13.6787 8.30358 13.6941 8.37422 13.6953 8.44581C13.6966 8.51741 13.6837 8.58855 13.6575 8.65517C13.6313 8.7218 13.5922 8.7826 13.5424 8.83412C13.4927 8.88564 13.4333 8.92685 13.3676 8.95541L9.83264 10.5004C9.3609 10.7131 8.8501 10.8255 8.33264 10.8304Z" fill="#FF0000"/>
</g>
<defs>
<clipPath id="clip0_1008_24877">
<rect width="16" height="16" fill="white" transform="translate(0.333008 1)"/>
</clipPath>
</defs>
</svg>
