<svg width="16" height="16" viewBox="0 0 16 16" fill="none" xmlns="http://www.w3.org/2000/svg">
<path d="M9.69692 7.99999L14.8485 2.84843C15.3172 2.37968 15.3172 1.6203 14.8485 1.15155C14.3797 0.6828 13.6204 0.6828 13.1516 1.15155L8.00005 6.30311L2.84849 1.15155C2.37974 0.6828 1.62036 0.6828 1.15161 1.15155C0.682861 1.6203 0.682861 2.37968 1.15161 2.84843L6.30317 7.99999L1.15161 13.1516C0.682861 13.6203 0.682861 14.3797 1.15161 14.8484C1.38599 15.0828 1.69302 15.2 2.00005 15.2C2.30708 15.2 2.61411 15.0828 2.84849 14.8484L8.00005 9.69686L13.1516 14.8484C13.386 15.0828 13.693 15.2 14 15.2C14.3071 15.2 14.6141 15.0828 14.8485 14.8484C15.3172 14.3797 15.3172 13.6203 14.8485 13.1516L9.69692 7.99999Z" fill="#FFC300"/>
</svg>
