<svg width="32" height="24" viewBox="0 0 32 24" fill="none" xmlns="http://www.w3.org/2000/svg">
<path d="M31.0625 21.9146H30.3645L29.6343 20.6394L29.6309 20.6335C29.0659 19.6631 28.158 18.0898 27.6379 17.1833C27.2021 16.4353 26.5432 16.0063 25.8293 16.0063C25.8289 16.0063 25.8284 16.0063 25.8279 16.0063C25.1143 16.0071 24.4558 16.4365 24.0217 17.1848L24.0159 17.1948C24.0029 17.2178 23.99 17.241 23.9766 17.2644L18.7424 8.198C18.2095 7.27441 17.4119 6.74414 16.5542 6.74316C16.5535 6.74316 16.5527 6.74316 16.5518 6.74316C15.6941 6.74316 14.895 7.27271 14.3586 8.198C14.3586 8.198 12.6509 11.1577 11.554 13.0579C11.3833 12.7627 11.2534 12.5376 11.25 12.532C10.7175 11.6079 9.91968 11.0774 9.06152 11.0767C9.06104 11.0767 9.06055 11.0767 9.05981 11.0767C8.20166 11.0767 7.40283 11.6067 6.86792 12.5315L1.45361 21.9146H0.9375C0.419678 21.9146 0 22.3345 0 22.8523C0 23.3699 0.419678 23.7898 0.9375 23.7898H31.0625C31.5803 23.7898 32 23.3699 32 22.8523C32 22.3345 31.5803 21.9146 31.0625 21.9146ZM8.49146 13.4695C8.7124 13.0874 8.93579 12.9517 9.05981 12.9517H9.06006C9.18359 12.9519 9.40601 13.0872 9.62598 13.4688C9.66211 13.5315 10.5142 15.0073 10.717 15.3535C10.8909 15.6501 11.2119 15.834 11.5554 15.834H11.5579C11.9021 15.833 12.2234 15.6475 12.3965 15.3486C13.0347 14.2449 15.9822 9.13623 15.9817 9.13672C16.2036 8.75391 16.4275 8.61816 16.552 8.61816H16.5522C16.676 8.61841 16.8984 8.75366 17.1184 9.13525L23.1372 19.5605C23.3103 19.8601 23.6326 20.0461 23.9785 20.0461H23.979C24.3252 20.0461 24.6477 19.8596 24.8208 19.5593L25.0352 19.1875C25.2595 18.7986 25.4714 18.4309 25.646 18.1213C25.7263 17.9841 25.7939 17.9214 25.8298 17.8948C25.8662 17.9214 25.9346 17.9844 26.0146 18.1218C26.5325 19.0244 27.4419 20.6001 28.009 21.574L28.2039 21.9146H3.61768L8.49146 13.4695Z" fill="#333333"/>
<path d="M7.79517 7.60889C9.89307 7.60889 11.5996 5.9021 11.5996 3.80444C11.5996 1.70654 9.89307 0 7.79517 0C5.69751 0 3.99072 1.70654 3.99072 3.80444C3.99072 5.9021 5.69751 7.60889 7.79517 7.60889ZM7.79517 1.875C8.85913 1.875 9.72461 2.74048 9.72461 3.80444C9.72461 4.86816 8.85913 5.73364 7.79517 5.73364C6.73145 5.73364 5.86597 4.86816 5.86597 3.80444C5.86597 2.74048 6.73145 1.875 7.79517 1.875Z" fill="#333333"/>
</svg>
