<svg width="17" height="18" viewBox="0 0 17 18" fill="none" xmlns="http://www.w3.org/2000/svg">
<path fill-rule="evenodd" clip-rule="evenodd" d="M7 0.5C3.13401 0.5 0 3.63401 0 7.5C0 11.366 3.13401 14.5 7 14.5C8.57234 14.5 10.0236 13.9816 11.1922 13.1064L15.293 17.2072C15.6835 17.5977 16.3167 17.5977 16.7072 17.2072C17.0977 16.8167 17.0977 16.1835 16.7072 15.793L12.6064 11.6922C13.4816 10.5236 14 9.07234 14 7.5C14 3.63401 10.866 0.5 7 0.5ZM2 7.5C2 4.73858 4.23858 2.5 7 2.5C9.76142 2.5 12 4.73858 12 7.5C12 10.2614 9.76142 12.5 7 12.5C4.23858 12.5 2 10.2614 2 7.5Z" fill="#E6E1E5"/>
</svg>
