<svg width="24" height="25" viewBox="0 0 24 25" fill="none" xmlns="http://www.w3.org/2000/svg">
<path fill-rule="evenodd" clip-rule="evenodd" d="M0 3.5C0 2.94772 0.447715 2.5 1 2.5H2.43845C3.81505 2.5 5.015 3.43689 5.34887 4.77239L5.53078 5.5H18.6027C20.8917 5.5 22.3336 7.95864 21.2234 9.95693L18.4457 14.9569C17.9166 15.9093 16.9127 16.5 15.8232 16.5H8.56155C7.18495 16.5 5.985 15.5631 5.65113 14.2276L3.40859 5.25746C3.2973 4.8123 2.89732 4.5 2.43845 4.5H1C0.447715 4.5 0 4.05228 0 3.5ZM6.03078 7.5L7.59141 13.7425C7.7027 14.1877 8.10268 14.5 8.56155 14.5H15.8232C16.1864 14.5 16.521 14.3031 16.6973 13.9856L19.4751 8.98564C19.8461 8.31781 19.3637 7.5 18.6027 7.5H6.03078Z" fill="#FFC300"/>
<path d="M9 20.5C9 21.6046 8.10457 22.5 7 22.5C5.89543 22.5 5 21.6046 5 20.5C5 19.3954 5.89543 18.5 7 18.5C8.10457 18.5 9 19.3954 9 20.5Z" fill="#FFC300"/>
<path d="M19 20.5C19 21.6046 18.1046 22.5 17 22.5C15.8954 22.5 15 21.6046 15 20.5C15 19.3954 15.8954 18.5 17 18.5C18.1046 18.5 19 19.3954 19 20.5Z" fill="#FFC300"/>
</svg>
