<svg width="24" height="24" viewBox="0 0 24 24" fill="none" xmlns="http://www.w3.org/2000/svg">
<path fill-rule="evenodd" clip-rule="evenodd" d="M12 6.47239L11.4325 8.21911C11.0308 9.45517 9.87896 10.2921 8.57929 10.2921H6.74269L8.22853 11.3716C9.27999 12.1355 9.71996 13.4896 9.31834 14.7257L8.7508 16.4724L10.2366 15.3929C11.2881 14.6289 12.7119 14.6289 13.7634 15.3929L15.2492 16.4724L14.6817 14.7257C14.28 13.4896 14.72 12.1355 15.7715 11.3716L17.2573 10.2921H15.4207C14.121 10.2921 12.9692 9.45517 12.5675 8.21911L12 6.47239ZM12.9511 2.92731C12.6517 2.006 11.3483 2.006 11.0489 2.92731L9.53034 7.60107C9.39647 8.0131 9.01251 8.29206 8.57929 8.29206H3.665C2.69628 8.29206 2.2935 9.53167 3.07722 10.1011L7.05296 12.9896C7.40344 13.2443 7.5501 13.6956 7.41623 14.1077L5.89763 18.7814C5.59828 19.7027 6.65276 20.4688 7.43647 19.8994L11.4122 17.0109C11.7627 16.7563 12.2373 16.7563 12.5878 17.0109L16.5635 19.8994C17.3472 20.4688 18.4017 19.7027 18.1024 18.7814L16.5838 14.1077C16.4499 13.6956 16.5965 13.2443 16.947 12.9896L20.9228 10.1011C21.7065 9.53167 21.3037 8.29206 20.335 8.29206H15.4207C14.9875 8.29206 14.6035 8.0131 14.4697 7.60107L12.9511 2.92731Z" fill="#5AD235"/>
</svg>
