<svg width="16" height="16" viewBox="0 0 16 16" fill="none" xmlns="http://www.w3.org/2000/svg">
<path d="M12.6667 7.33398C10.8287 7.33398 9.33337 8.84798 9.33337 10.7093C9.33337 13.278 12.2187 15.776 12.3414 15.8807C12.4354 15.9607 12.5507 16.0007 12.6667 16.0007C12.7827 16.0007 12.898 15.9607 12.992 15.8807C13.1147 15.7753 16 13.2773 16 10.7093C16 8.84798 14.5047 7.33398 12.6667 7.33398ZM12.6667 12.0007C11.9314 12.0007 11.3334 11.4027 11.3334 10.6673C11.3334 9.93198 11.9314 9.33398 12.6667 9.33398C13.402 9.33398 14 9.93198 14 10.6673C14 11.4027 13.402 12.0007 12.6667 12.0007Z" fill="#1D192B"/>
<path d="M15.3333 5.33333H15.2933L14.8133 1.73333C14.68 0.746667 13.8333 0 12.8333 0H3.16667C2.16667 0 1.32 0.746667 1.18667 1.73333L0.706667 5.33333H0.666667C0.3 5.33333 0 5.63333 0 6C0 6.36667 0.3 6.66667 0.666667 6.66667H1.33333V12.6667C1.33333 13.7667 2.23333 14.6667 3.33333 14.6667H9.47333C9.18667 14.26 8.90667 13.8133 8.67333 13.3333H3.33333C2.96667 13.3333 2.66667 13.0333 2.66667 12.6667V6.66667H10.2867C10.9867 6.24 11.8 6 12.6667 6C13.5333 6 14.3467 6.24 15.0467 6.66667H15.3333C15.7 6.66667 16 6.36667 16 6C16 5.63333 15.7 5.33333 15.3333 5.33333ZM3.70667 5.33333H2.05333L2.50667 1.91333C2.55333 1.58 2.83333 1.33333 3.16667 1.33333H4.24L3.70667 5.33333ZM7.33333 5.33333H5.05333L5.58667 1.33333H7.33333V5.33333ZM8.66667 5.33333V1.33333H10.4133L10.9467 5.33333H8.66667ZM12.2933 5.33333L11.76 1.33333H12.8333C13.1667 1.33333 13.4467 1.58 13.4933 1.91333L13.9467 5.33333H12.2933Z" fill="#1D192B"/>
<path d="M5.16667 11.9993H6.16667C6.81 11.9993 7.33333 11.476 7.33333 10.8327V9.83268C7.33333 9.18935 6.81 8.66602 6.16667 8.66602H5.16667C4.52333 8.66602 4 9.18935 4 9.83268V10.8327C4 11.476 4.52333 11.9993 5.16667 11.9993Z" fill="#1D192B"/>
</svg>
