<svg width="24" height="24" viewBox="0 0 24 24" fill="none" xmlns="http://www.w3.org/2000/svg">
<path d="M6 4.79998C6 4.13726 6.53728 3.59998 7.2 3.59998H22.8C23.4627 3.59998 24 4.13726 24 4.79998C24 5.46269 23.4627 5.99998 22.8 5.99998H7.2C6.53728 5.99998 6 5.46265 6 4.79998ZM22.8 10.8H1.2C0.537281 10.8 0 11.3373 0 12C0 12.6627 0.537281 13.2 1.2 13.2H22.8C23.4627 13.2 24 12.6627 24 12C24 11.3373 23.4627 10.8 22.8 10.8ZM22.8 18H12C11.3373 18 10.8 18.5373 10.8 19.2C10.8 19.8626 11.3373 20.4 12 20.4H22.8C23.4627 20.4 24 19.8626 24 19.2C24 18.5373 23.4627 18 22.8 18Z" fill="#FFC300"/>
</svg>
