<svg width="16" height="16" viewBox="0 0 16 16" fill="none" xmlns="http://www.w3.org/2000/svg">
<path d="M13.0667 11.4659C12.5203 11.4659 12.052 11.7951 11.8457 12.2659H9.50206C9.28174 11.645 8.69582 11.1992 7.99998 11.1992C7.30414 11.1992 6.7187 11.645 6.4979 12.2659H4.15422C3.94798 11.7951 3.47966 11.4659 2.93326 11.4659C2.19678 11.4659 1.59998 12.0627 1.59998 12.7992C1.59998 13.5357 2.19678 14.1325 2.93326 14.1325C3.48014 14.1325 3.94846 13.8024 4.15422 13.3325H6.4979C6.71822 13.9523 7.30414 14.3992 7.99998 14.3992C8.69582 14.3992 9.28174 13.9523 9.50206 13.3325H11.8457C12.0515 13.8024 12.5198 14.1325 13.0667 14.1325C13.8032 14.1325 14.4 13.5357 14.4 12.7992C14.4 12.0627 13.8032 11.4659 13.0667 11.4659ZM7.99998 13.3325C7.7051 13.3325 7.4667 13.0941 7.4667 12.7992C7.4667 12.5043 7.7051 12.2659 7.99998 12.2659C8.29486 12.2659 8.53326 12.5043 8.53326 12.7992C8.53326 13.0941 8.29486 13.3325 7.99998 13.3325Z" fill="#1D192B"/>
<path d="M8 1.59961C5.93904 1.59961 4.26672 3.27033 4.26672 5.33289C4.26672 6.36313 4.68432 7.29641 5.36048 7.97257L8 10.3996L10.6402 7.97145C11.3162 7.29641 11.7339 6.36313 11.7333 5.33193C11.7333 3.27145 10.0621 1.59961 8 1.59961ZM8 6.93289C7.11664 6.93289 6.4 6.21625 6.4 5.33289C6.4 4.44953 7.11664 3.73289 8 3.73289C8.88384 3.73289 9.6 4.44953 9.6 5.33289C9.6 6.21625 8.88384 6.93289 8 6.93289Z" fill="#1D192B"/>
</svg>
