<svg width="56" height="56" viewBox="0 0 56 56" fill="none" xmlns="http://www.w3.org/2000/svg">
<path d="M25.5873 9.49258C14.0331 9.49258 4.66669 18.859 4.66669 30.4131C4.66669 41.9672 14.0331 51.3337 25.5873 51.3337C37.1414 51.3337 46.5079 41.9672 46.5079 30.4131M30.2731 4.73167C40.9318 6.66383 49.3366 15.0685 51.2687 25.7272C51.7112 28.1685 49.8263 30.413 47.3451 30.413H40.4785C39.0369 30.413 37.7818 29.3931 37.5253 27.9744C36.6575 23.1766 33.2188 19.3799 28.0416 18.4683C26.6192 18.2179 25.5873 16.9729 25.5873 15.5285V8.65526C25.5873 6.17409 27.8317 4.28915 30.2731 4.73167ZM25.4876 30.1143C25.2126 30.1143 24.9895 30.3373 24.9895 30.6124C24.9895 30.8874 25.2126 31.1105 25.4876 31.1105C25.7627 31.1105 25.9858 30.8874 25.9858 30.6124C25.9858 30.3373 25.7627 30.1143 25.4876 30.1143Z" stroke="#666666" stroke-width="4.2" stroke-miterlimit="10" stroke-linecap="round" stroke-linejoin="round"/>
<path d="M18.2469 26.6233L14.8759 24.5039M33.8875 35.5892L37.1589 37.7087M36.9955 37.9803C34.7051 41.6304 30.6446 44.0571 26.0174 44.0571C18.8648 44.0571 13.0667 38.2589 13.0667 31.1064C13.0667 26.4372 15.5376 22.3452 19.2432 20.0664M14.8759 37.7086L18.2469 35.5892" stroke="#FF0000" stroke-width="4.2" stroke-miterlimit="10" stroke-linecap="round" stroke-linejoin="round"/>
</svg>
