<svg width="56" height="56" viewBox="0 0 56 56" fill="none" xmlns="http://www.w3.org/2000/svg">
<g clip-path="url(#clip0_1008_35499)">
<path d="M32.2068 26.2843C31.9335 25.7422 31.2511 25.514 30.6829 25.7751C30.1147 26.036 29.8755 26.687 30.1492 27.2293C30.3046 27.5372 30.3832 27.8685 30.3832 28.2139C30.3832 29.4679 29.3142 30.488 28.0001 30.488C26.6859 30.488 25.617 29.4678 25.617 28.2139C25.617 27.8815 25.69 27.5614 25.8345 27.2629C26.0986 26.7166 25.8486 26.0693 25.2761 25.8171C24.7038 25.565 24.0252 25.8035 23.761 26.3498C23.4773 26.9367 23.3334 27.5638 23.3334 28.2138C23.3334 30.6694 25.4269 32.667 28 32.667C30.5731 32.667 32.6666 30.6694 32.6667 28.2138C32.6667 27.5387 32.5121 26.8894 32.2068 26.2843Z" fill="#FF0000" stroke="#FF0000" stroke-width="0.3"/>
<path d="M28.0602 23.3332L28.0139 23.333C27.3834 23.333 26.8721 23.8441 26.8721 24.4748C26.8721 25.1054 27.3834 25.6165 28.0139 25.6165L28.0385 25.6166C28.0424 25.6166 28.0459 25.6166 28.0496 25.6166C28.6752 25.6166 29.1853 25.1126 29.1911 24.4857C29.197 23.8551 28.6907 23.3392 28.0602 23.3332Z" fill="#FF0000" stroke="#FF0000" stroke-width="0.3"/>
<path d="M55.4662 27.0604L53.9512 26.1568C53.2061 25.7124 52.7009 24.9663 52.5653 24.1094C52.4296 23.2526 52.6795 22.3868 53.2508 21.7339L54.4123 20.4064C54.6661 20.1164 54.7486 19.7142 54.6295 19.3476C54.5103 18.9809 54.2072 18.7041 53.8313 18.6187L52.1112 18.2276C51.2654 18.0353 50.5544 17.4816 50.1605 16.7087C49.7666 15.9356 49.7366 15.035 50.0783 14.2377L50.773 12.6163C50.9247 12.2619 50.8787 11.8541 50.6522 11.5421C50.4257 11.2303 50.0515 11.061 49.6681 11.0955L47.9113 11.2551C47.0466 11.3339 46.2001 11.0269 45.5866 10.4134C44.9732 9.8 44.6665 8.95267 44.7449 8.08872L44.9045 6.33194C44.9392 5.94803 44.7697 5.57419 44.4579 5.34767C44.146 5.12094 43.738 5.07533 43.3838 5.22703L41.7624 5.92167C40.9648 6.26336 40.0643 6.23328 39.2914 5.83953C38.5184 5.44567 37.9648 4.73463 37.7724 3.88872L37.3813 2.16858C37.2959 1.79277 37.019 1.48958 36.6524 1.37047C36.2863 1.25147 35.8836 1.33394 35.5936 1.58769L34.2661 2.74936C33.6133 3.32073 32.7471 3.57044 31.8907 3.4347C31.0338 3.29897 30.2877 2.79387 29.8434 2.04881L28.9399 0.53375C28.7423 0.202781 28.3854 0 28 0C27.6146 0 27.2577 0.202781 27.0601 0.533531L26.1566 2.04859C25.7123 2.79366 24.9662 3.29886 24.1093 3.43448C23.2528 3.57022 22.3868 3.32052 21.7338 2.74914L20.4062 1.58747C20.1161 1.33372 19.714 1.25114 19.3475 1.37025C18.9808 1.48936 18.704 1.79244 18.6186 2.16836L18.2275 3.8885C18.0351 4.73441 17.4814 5.44545 16.7085 5.83931C15.9357 6.23306 15.0351 6.26303 14.2376 5.92145L12.6162 5.22681C12.2618 5.075 11.854 5.12083 11.5421 5.34745C11.2303 5.57408 11.0608 5.94792 11.0955 6.33172L11.2551 8.08861C11.3335 8.95256 11.0267 9.79989 10.4134 10.4133C9.80011 11.0266 8.95267 11.3333 8.08872 11.255L6.33183 11.0954C5.94814 11.0603 5.57397 11.2302 5.34767 11.542C5.12105 11.8538 5.07522 12.2618 5.22692 12.6162L5.92156 14.2376C6.26325 15.035 6.23328 15.9357 5.83953 16.7086C5.44567 17.4814 4.73462 18.0351 3.88883 18.2275L2.16869 18.6186C1.79277 18.704 1.48969 18.9809 1.37047 19.3475C1.25136 19.7141 1.33394 20.1163 1.58769 20.4063L2.74925 21.7338C3.32063 22.3867 3.57044 23.2525 3.4347 24.1093C3.29897 24.9662 2.79387 25.7123 2.04881 26.1567L0.53375 27.0603C0.202781 27.2576 0 27.6146 0 28C0 28.3854 0.202781 28.7424 0.53375 28.9396L2.04881 29.8432C2.79387 30.2876 3.29908 31.0337 3.4347 31.8906C3.57044 32.7474 3.32052 33.6132 2.74925 34.2661L1.58769 35.5936C1.33394 35.8836 1.25136 36.2858 1.37047 36.6524C1.48969 37.0191 1.79277 37.2959 2.16869 37.3813L3.88883 37.7724C4.73462 37.9647 5.44556 38.5184 5.83953 39.2913C6.23339 40.0644 6.26325 40.965 5.92156 41.7623L5.22692 43.3837C5.07522 43.7381 5.12116 44.1459 5.34767 44.4579C5.57419 44.7697 5.94814 44.939 6.33183 44.9045L8.08872 44.7449C8.95366 44.6665 9.8 44.9731 10.4134 45.5866C11.0267 46.2 11.3335 47.0473 11.2551 47.9113L11.0955 49.6681C11.0608 50.052 11.2303 50.4258 11.5421 50.6523C11.8537 50.879 12.2618 50.9246 12.6162 50.773L14.2376 50.0783C15.035 49.7366 15.9357 49.7667 16.7085 50.1605C17.4814 50.5543 18.0351 51.2654 18.2275 52.1113L18.6186 53.8314C18.704 54.2072 18.9808 54.5103 19.3475 54.6295C19.7136 54.7486 20.1162 54.6662 20.4062 54.4123L21.7339 53.2506C22.3867 52.6793 23.2527 52.4296 24.1093 52.5653C24.9662 52.701 25.7123 53.2061 26.1566 53.9512L27.0601 55.4662C27.2577 55.7972 27.6147 56 28 56C28.3855 56 28.7423 55.7972 28.9399 55.4666L29.8434 53.9515C30.2877 53.2065 31.0338 52.7013 31.8907 52.5656C32.7471 52.4298 33.6132 52.6797 34.2661 53.251L35.5936 54.4126C35.8836 54.6664 36.2859 54.749 36.6524 54.6299C37.019 54.5107 37.2959 54.2077 37.3813 53.8317L37.7724 52.1116C37.9648 51.2657 38.5185 50.5547 39.2914 50.1608C40.0642 49.7669 40.9648 49.737 41.7624 50.0787L43.3838 50.7733C43.738 50.925 44.1458 50.8792 44.4579 50.6528C44.7697 50.4261 44.9392 50.0523 44.9045 49.6684L44.7449 47.9115C44.6665 47.0475 44.9732 46.2002 45.5866 45.5868C46.1999 44.9735 47.0473 44.6667 47.9113 44.7451L49.6681 44.9047C50.0518 44.9392 50.4258 44.7699 50.6522 44.4581C50.8788 44.1463 50.9247 43.7383 50.773 43.3839L50.0783 41.7625C49.7366 40.9651 49.7667 40.0644 50.1605 39.2915C50.5542 38.5187 51.2654 37.965 52.1112 37.7727L53.8313 37.3815C54.2072 37.2961 54.5103 37.0192 54.6295 36.6527C54.7486 36.286 54.6661 35.8839 54.4123 35.5938L53.2508 34.2663C52.6794 33.6135 52.4296 32.7476 52.5653 31.8908C52.701 31.034 53.2061 30.2878 53.9512 29.8434L55.4662 28.9399C55.7972 28.7425 56 28.3855 56 28.0001C56 27.6147 55.7972 27.2578 55.4662 27.0604ZM50.4035 31.5486C50.1695 33.0257 50.59 34.5179 51.5577 35.6545C50.1067 36.0052 48.8894 36.9654 48.2104 38.2979C47.5315 39.6303 47.4704 41.1796 48.0394 42.5596C46.5515 42.4449 45.0966 42.9818 44.0391 44.0393C42.9816 45.0968 42.4446 46.5511 42.5595 48.0396C41.1794 47.4703 39.63 47.5317 38.2978 48.2106C36.9653 48.8895 36.0052 50.107 35.6544 51.5578C34.5179 50.59 33.0252 50.1697 31.5483 50.4036C30.0712 50.6376 28.7818 51.4986 28 52.7703C27.218 51.4986 25.9288 50.6376 24.4517 50.4036C24.1836 50.3612 23.9152 50.3403 23.6482 50.3403C22.4447 50.3403 21.2758 50.7659 20.3455 51.5583C19.9948 50.1071 19.0346 48.8899 17.7021 48.211C16.3699 47.5322 14.8206 47.4709 13.4405 48.0399C13.5555 46.5514 13.0184 45.0972 11.9609 44.0396C10.9034 42.982 9.44912 42.445 7.96053 42.5599C8.52972 41.1799 8.46825 39.6306 7.78947 38.2982C7.11047 36.9657 5.89312 36.0055 4.44216 35.6547C5.4098 34.5182 5.83034 33.0258 5.59639 31.5488C5.36244 30.0717 4.50144 28.7822 3.22973 28.0003C4.50144 27.2183 5.36244 25.929 5.59639 24.4519C5.83034 22.9748 5.40991 21.4826 4.44216 20.3459C5.89323 19.9952 7.11047 19.035 7.78947 17.7025C8.46836 16.37 8.52961 14.8208 7.96053 13.4408C9.44912 13.5555 10.9033 13.0186 11.9609 11.961C13.0184 10.9035 13.5554 9.44923 13.4405 7.96075C14.8204 8.52994 16.3697 8.46858 17.7021 7.78969C19.0346 7.1108 19.9948 5.89345 20.3455 4.44238C21.4821 5.41002 22.9745 5.83045 24.4517 5.59661C25.9288 5.36266 27.2181 4.50166 28 3.23006C28.782 4.50177 30.0712 5.36277 31.5483 5.59672C33.0256 5.83089 34.5175 5.41034 35.6544 4.44248C36.0052 5.89345 36.9653 7.1108 38.2978 7.78969C39.6302 8.46858 41.1796 8.52983 42.5595 7.96075C42.4445 9.44923 42.9816 10.9035 44.0391 11.961C45.0966 13.0186 46.5524 13.5556 48.0394 13.4408C47.4701 14.8209 47.5315 16.3699 48.2104 17.7025C48.8894 19.035 50.1068 19.9951 51.5577 20.3458C50.5901 21.4823 50.1695 22.9748 50.4035 24.4518C50.6375 25.9289 51.4985 27.2183 52.7702 28.0002C51.4985 28.7821 50.6375 30.0715 50.4035 31.5486Z" fill="#666666" stroke="#666666" stroke-width="1.7"/>
<path d="M44.3296 26.6136C44.2984 26.2756 44.0772 25.9851 43.7604 25.8665C42.9597 25.5663 42.3664 24.9209 42.1325 24.0956C41.8987 23.2703 42.0648 22.4081 42.5881 21.7297C42.7952 21.4612 42.831 21.0974 42.6804 20.7935C42.5295 20.4893 42.2154 20.2963 41.8806 20.3031C41.0283 20.3102 40.2407 19.9269 39.7257 19.2422C39.2107 18.5575 39.0551 17.6931 39.2992 16.8709C39.3957 16.5454 39.2982 16.1932 39.0483 15.9644C38.7984 15.7357 38.4402 15.6705 38.1262 15.7972C37.3331 16.1169 36.4615 16.0412 35.7351 15.5896C35.0085 15.1378 34.5525 14.3883 34.4842 13.533C34.4572 13.1946 34.2396 12.9014 33.9241 12.7789C33.6085 12.6561 33.2512 12.7256 33.0042 12.9574C32.3799 13.5432 31.5402 13.7888 30.6999 13.6311C29.8599 13.4735 29.1651 12.9398 28.7935 12.1672C28.6464 11.8614 28.3381 11.667 27.9999 11.667C27.6618 11.667 27.3534 11.8614 27.2064 12.1672C26.8348 12.9398 26.14 13.4734 25.3 13.6311C24.4598 13.7887 23.6201 13.5433 22.9956 12.9574C22.7486 12.7256 22.3913 12.6562 22.0757 12.7789C21.7603 12.9015 21.5428 13.1945 21.5157 13.533C21.4474 14.3883 20.9914 15.1378 20.2648 15.5896C19.5383 16.0414 18.6666 16.117 17.8737 15.7972C17.5597 15.6706 17.2014 15.7358 16.9516 15.9644C16.7017 16.1932 16.6041 16.5454 16.7007 16.8709C16.9446 17.6932 16.7891 18.5575 16.2742 19.2422C15.7661 19.9179 14.9947 20.3033 14.1533 20.3033C14.142 20.3033 14.1306 20.3032 14.1193 20.3031C14.1156 20.303 14.112 20.303 14.1084 20.303C13.7745 20.303 13.4686 20.4927 13.3197 20.7934C13.1689 21.0973 13.2047 21.4611 13.4119 21.7295C13.9353 22.4079 14.1012 23.2703 13.8674 24.0955C13.6335 24.9208 13.0402 25.5662 12.2396 25.8664C11.9228 25.9851 11.7016 26.2755 11.6704 26.6136C11.6392 26.9517 11.8035 27.278 12.0932 27.4531C12.8251 27.8958 13.2902 28.6397 13.3691 29.494C13.4479 30.3484 13.127 31.1654 12.4884 31.7357C12.2356 31.9614 12.1338 32.3124 12.2265 32.639C12.3189 32.9657 12.5895 33.2102 12.9227 33.2685C13.7647 33.4158 14.466 33.9408 14.8469 34.7089C15.2278 35.4769 15.2225 36.3552 14.8321 37.1186C14.6776 37.4207 14.709 37.7849 14.9128 38.0558C15.1166 38.3268 15.4567 38.4567 15.7886 38.3903C16.6268 38.2222 17.4695 38.4574 18.101 39.0355C18.7326 39.6135 19.0436 40.4344 18.9543 41.2878C18.919 41.6255 19.0793 41.9538 19.3668 42.1325C19.6544 42.3114 20.0185 42.3091 20.3038 42.1268C21.0247 41.6661 21.8952 41.5797 22.6922 41.8897C23.4891 42.1997 24.0745 42.8524 24.2982 43.6805C24.3868 44.0082 24.6543 44.2561 24.9868 44.3185C25.3193 44.3808 25.658 44.2468 25.8585 43.9733C26.365 43.2822 27.1457 42.8859 28.0003 42.8859C28.8549 42.8859 29.6356 43.2823 30.1421 43.9733C30.3101 44.2023 30.5748 44.3337 30.8518 44.3337C30.9055 44.3337 30.9598 44.3287 31.0136 44.3186C31.3461 44.2563 31.6136 44.0083 31.7022 43.6806C31.9259 42.8524 32.5114 42.1997 33.3082 41.8898C34.1051 41.5799 34.9756 41.6662 35.6967 42.1269C35.9819 42.3091 36.346 42.3114 36.6336 42.1326C36.9212 41.9539 37.0815 41.6256 37.0461 41.2879C36.9569 40.4346 37.2678 39.6137 37.8994 39.0356C38.531 38.4577 39.3737 38.2224 40.2119 38.3904C40.5438 38.4569 40.8838 38.327 41.0876 38.0559C41.2914 37.7849 41.3228 37.4208 41.1683 37.1187C40.7779 36.3553 40.7727 35.4771 41.1535 34.709C41.5345 33.9409 42.2357 33.416 43.0777 33.2686C43.4109 33.2104 43.6814 32.9657 43.774 32.6391C43.8665 32.3125 43.7647 31.9615 43.512 31.7358C42.8734 31.1656 42.5525 30.3485 42.6313 29.4941C42.7101 28.6397 43.1752 27.8959 43.9072 27.4532C44.1965 27.278 44.3607 26.9518 44.3296 26.6136ZM40.8761 29.3307C40.789 30.2738 40.9952 31.1896 41.4542 31.9763C40.6516 32.4023 39.9961 33.0721 39.5756 33.92C39.155 34.7679 39.0178 35.6966 39.1628 36.5965C38.2611 36.7027 37.4089 37.0895 36.7118 37.7276C36.0145 38.3657 35.5523 39.1819 35.3638 40.0736C34.4846 39.8456 33.5508 39.8971 32.6712 40.2393C31.7915 40.5815 31.0668 41.175 30.5702 41.9382C29.8325 41.4067 28.9433 41.1161 27.9999 41.1161C27.0564 41.1161 26.1672 41.4067 25.4294 41.9381C24.9329 41.1749 24.208 40.5814 23.3284 40.2393C22.4486 39.897 21.5149 39.8455 20.6359 40.0735C20.4473 39.1819 19.9851 38.3655 19.2879 37.7275C18.5906 37.0892 17.7386 36.7024 16.8368 36.5964C16.9819 35.6966 16.8445 34.7678 16.4241 33.9199C16.0036 33.072 15.3481 32.4023 14.5454 31.9762C15.0045 31.1897 15.2106 30.2737 15.1235 29.3306C15.0365 28.3874 14.6663 27.5252 14.0711 26.8368C14.7822 26.2699 15.3039 25.4906 15.562 24.5796C15.8202 23.6685 15.7851 22.7302 15.4779 21.8724C16.3449 21.6017 17.1117 21.0641 17.6802 20.3083C18.2487 19.5525 18.5537 18.6649 18.5757 17.7535C19.4815 17.8154 20.3899 17.5924 21.1922 17.0938C21.9943 16.5951 22.5981 15.8782 22.9465 15.0364C23.7689 15.4228 24.6962 15.5441 25.6235 15.3702C26.5509 15.1961 27.3719 14.7464 27.9996 14.088C28.6274 14.7466 29.4484 15.1962 30.3757 15.3702C31.3031 15.5442 32.2303 15.4228 33.0527 15.0364C33.4011 15.8782 34.0048 16.5952 34.807 17.0939C35.6093 17.5927 36.5178 17.816 37.4234 17.7536C37.4455 18.6649 37.7505 19.5525 38.3189 20.3084C38.8875 21.0644 39.6542 21.6017 40.5213 21.8725C40.214 22.7303 40.179 23.6685 40.4373 24.5796C40.6955 25.4906 41.2171 26.27 41.9282 26.8369C41.3333 27.5253 40.9631 28.3875 40.8761 29.3307Z" fill="#666666" stroke="#666666" stroke-width="1.7"/>
</g>
<defs>
<clipPath id="clip0_1008_35499">
<rect width="56" height="56" fill="white"/>
</clipPath>
</defs>
</svg>
