<svg width="56" height="43" viewBox="0 0 56 43" fill="none" xmlns="http://www.w3.org/2000/svg">
<path d="M25.817 30.9161V30.7661H25.667H21.1501V21.733H34.8501V30.7661H30.3332H30.1832V30.9161V42.433H25.817V30.9161Z" fill="#FF0000" stroke="#FAFAFA" stroke-width="0.3"/>
<path d="M44.3331 3.06611H44.4831V2.91611C44.4831 1.71658 45.4666 0.733008 46.6669 0.733008H53.6669C54.8665 0.733008 55.85 1.71655 55.85 2.91611V7.58301C55.85 8.78324 54.8665 9.76611 53.6669 9.76611H46.6669C45.4666 9.76611 44.4831 8.78321 44.4831 7.58301V7.43301H44.3331H39.6669H39.5588L39.5246 7.53557L36.4473 16.7661H31.844L33.3349 12.2974L33.4008 12.0999H33.1926H22.8088H22.6007L22.6665 12.2973L24.1547 16.7661H19.5541L16.4754 7.53555L16.4412 7.43301H16.3331H11.6669H11.5169V7.58301C11.5169 8.78321 10.5334 9.76611 9.3331 9.76611H2.3331C1.13351 9.76611 0.15 8.78324 0.15 7.58301V2.91611C0.15 1.71655 1.13354 0.733008 2.3331 0.733008H9.3331C10.5334 0.733008 11.5169 1.71658 11.5169 2.91611V3.06611H11.6669H19.5878L21.1104 7.63047L21.1446 7.73301H21.2527H34.7473H34.8554L34.8896 7.63046L36.4115 3.06611H44.3331Z" fill="#666666" stroke="#FAFAFA" stroke-width="0.3"/>
</svg>
