<svg width="56" height="36" viewBox="0 0 56 36" fill="none" xmlns="http://www.w3.org/2000/svg">
<path d="M53.6196 22.1641L53.6187 22.1639C53.4981 22.1468 37.229 19.834 28 19.834C23.3594 19.834 19.9155 20.4082 16.4173 20.9915L16.3881 20.9964C16.3881 20.9964 16.388 20.9964 16.388 20.9964C12.8623 21.5839 9.34715 22.1673 4.66668 22.1673C4.52976 22.1673 4.00631 22.1308 3.54592 21.7628C3.17123 21.4632 2.45502 20.6391 2.45502 18.28C2.45502 15.5657 3.42222 11.5275 5.21384 8.19843C7.06351 4.76155 9.3522 2.83398 11.6667 2.83398C19.5445 2.83398 25.4055 6.03944 30.449 8.82183C30.449 8.82185 30.449 8.82186 30.449 8.82188L30.554 8.8798C32.8227 10.1317 35.173 11.4286 37.4379 12.1834C39.0865 12.7347 40.9185 13.1653 42.5867 13.5574L42.6611 13.5749C42.6611 13.5749 42.6612 13.5749 42.6612 13.5749C45.6039 14.2668 48.5018 14.9659 50.6907 16.2651C52.7276 17.4741 54 19.1008 54 21.834V21.8341C54 21.8818 53.9898 21.929 53.9699 21.9725C53.9501 22.0159 53.9212 22.0546 53.8851 22.0859L55.1956 23.5967L53.8851 22.0859C53.849 22.1172 53.8066 22.1404 53.7608 22.1538C53.715 22.1673 53.6668 22.1708 53.6196 22.1641Z" stroke="#666666" stroke-width="4"/>
<path d="M17.1007 25.2701C15.153 25.5947 13.1685 25.924 10.9693 26.1605L11.6667 27.2067V33.5003C11.6667 34.1192 11.9125 34.7127 12.3501 35.1502C12.7877 35.5878 13.3812 35.8337 14 35.8337H25.6667C26.0508 35.8337 26.4289 35.7388 26.7676 35.5576C27.1062 35.3764 27.3949 35.1143 27.608 34.7947L31.582 28.8337H39.375C39.85 28.8337 40.3137 28.6887 40.7041 28.4182C41.0945 28.1476 41.3931 27.7644 41.5599 27.3196L42.3736 25.149C37.555 24.636 32.0454 24.167 28 24.167C23.7175 24.167 20.5042 24.7028 17.1007 25.2701ZM19.8333 31.167C19.3719 31.167 18.9207 31.0301 18.537 30.7738C18.1533 30.5174 17.8542 30.1529 17.6776 29.7266C17.501 29.3002 17.4548 28.8311 17.5448 28.3784C17.6349 27.9258 17.8571 27.5101 18.1834 27.1837C18.5097 26.8574 18.9255 26.6352 19.3781 26.5452C19.8308 26.4551 20.2999 26.5013 20.7263 26.6779C21.1526 26.8545 21.517 27.1536 21.7734 27.5373C22.0298 27.921 22.1667 28.3722 22.1667 28.8337C22.1667 29.4525 21.9208 30.046 21.4833 30.4836C21.0457 30.9212 20.4522 31.167 19.8333 31.167Z" fill="#FF0000"/>
</svg>
