<svg width="56" height="56" viewBox="0 0 56 56" fill="none" xmlns="http://www.w3.org/2000/svg">
<mask id="path-1-inside-1_1008_35482" fill="white">
<path fill-rule="evenodd" clip-rule="evenodd" d="M11.083 17.1124C13.7763 16.3507 15.7498 13.8744 15.7498 10.9372C15.7498 7.39335 12.877 4.52051 9.33317 4.52051C5.78934 4.52051 2.9165 7.39335 2.9165 10.9372C2.9165 13.8743 4.88984 16.3505 7.58301 17.1123V27.2702V37.4291C4.88984 38.1909 2.9165 40.6671 2.9165 43.6042C2.9165 47.148 5.78934 50.0208 9.33317 50.0208C12.877 50.0208 15.7498 47.148 15.7498 43.6042C15.7498 40.667 13.7763 38.1907 11.083 37.429V29.0202H26.25V37.4289C23.5566 38.1906 21.583 40.6669 21.583 43.6042C21.583 47.148 24.4558 50.0208 27.9997 50.0208C31.5435 50.0208 34.4163 47.148 34.4163 43.6042C34.4163 40.6671 32.4431 38.191 29.75 37.4291V29.0202H44.333C46.5893 29.0202 48.4163 27.1908 48.4163 24.9368V17.1124C51.1098 16.3508 53.0833 13.8744 53.0833 10.9372C53.0833 7.39335 50.2105 4.52051 46.6667 4.52051C43.1228 4.52051 40.25 7.39335 40.25 10.9372C40.25 13.8742 42.2233 16.3504 44.9163 17.1122V24.9368C44.9163 25.2589 44.655 25.5202 44.333 25.5202H29.75V17.1122C32.4431 16.3504 34.4163 13.8742 34.4163 10.9372C34.4163 7.39335 31.5435 4.52051 27.9997 4.52051C24.4558 4.52051 21.583 7.39335 21.583 10.9372C21.583 13.8744 23.5566 16.3508 26.25 17.1124V25.5202H11.083V17.1124Z"/>
</mask>
<path fill-rule="evenodd" clip-rule="evenodd" d="M11.083 17.1124C13.7763 16.3507 15.7498 13.8744 15.7498 10.9372C15.7498 7.39335 12.877 4.52051 9.33317 4.52051C5.78934 4.52051 2.9165 7.39335 2.9165 10.9372C2.9165 13.8743 4.88984 16.3505 7.58301 17.1123V27.2702V37.4291C4.88984 38.1909 2.9165 40.6671 2.9165 43.6042C2.9165 47.148 5.78934 50.0208 9.33317 50.0208C12.877 50.0208 15.7498 47.148 15.7498 43.6042C15.7498 40.667 13.7763 38.1907 11.083 37.429V29.0202H26.25V37.4289C23.5566 38.1906 21.583 40.6669 21.583 43.6042C21.583 47.148 24.4558 50.0208 27.9997 50.0208C31.5435 50.0208 34.4163 47.148 34.4163 43.6042C34.4163 40.6671 32.4431 38.191 29.75 37.4291V29.0202H44.333C46.5893 29.0202 48.4163 27.1908 48.4163 24.9368V17.1124C51.1098 16.3508 53.0833 13.8744 53.0833 10.9372C53.0833 7.39335 50.2105 4.52051 46.6667 4.52051C43.1228 4.52051 40.25 7.39335 40.25 10.9372C40.25 13.8742 42.2233 16.3504 44.9163 17.1122V24.9368C44.9163 25.2589 44.655 25.5202 44.333 25.5202H29.75V17.1122C32.4431 16.3504 34.4163 13.8742 34.4163 10.9372C34.4163 7.39335 31.5435 4.52051 27.9997 4.52051C24.4558 4.52051 21.583 7.39335 21.583 10.9372C21.583 13.8744 23.5566 16.3508 26.25 17.1124V25.5202H11.083V17.1124Z" fill="#666666"/>
<path d="M11.083 17.1124L11.0286 16.9199L10.883 16.9611V17.1124H11.083ZM7.58301 17.1123H7.78301V16.961L7.63744 16.9198L7.58301 17.1123ZM7.58301 37.4291L7.63744 37.6215L7.78301 37.5804V37.4291H7.58301ZM11.083 37.429H10.883V37.5803L11.0286 37.6214L11.083 37.429ZM11.083 29.0202V28.8202H10.883V29.0202H11.083ZM26.25 29.0202H26.45V28.8202H26.25V29.0202ZM26.25 37.4289L26.3044 37.6214L26.45 37.5802V37.4289H26.25ZM29.75 37.4291H29.55V37.5804L29.6956 37.6216L29.75 37.4291ZM29.75 29.0202V28.8202H29.55V29.0202H29.75ZM48.4163 17.1124L48.3619 16.9199L48.2163 16.9611V17.1124H48.4163ZM44.9163 17.1122H45.1163V16.9609L44.9708 16.9198L44.9163 17.1122ZM29.75 25.5202H29.55V25.7202H29.75V25.5202ZM29.75 17.1122L29.6956 16.9198L29.55 16.9609V17.1122H29.75ZM26.25 17.1124H26.45V16.9611L26.3044 16.9199L26.25 17.1124ZM26.25 25.5202V25.7202H26.45V25.5202H26.25ZM11.083 25.5202H10.883V25.7202H11.083V25.5202ZM15.5498 10.9372C15.5498 13.7825 13.6381 16.1819 11.0286 16.9199L11.1374 17.3048C13.9146 16.5194 15.9498 13.9662 15.9498 10.9372H15.5498ZM9.33317 4.72051C12.7665 4.72051 15.5498 7.5038 15.5498 10.9372H15.9498C15.9498 7.28289 12.9875 4.32051 9.33317 4.32051V4.72051ZM3.1165 10.9372C3.1165 7.5038 5.8998 4.72051 9.33317 4.72051V4.32051C5.67889 4.32051 2.7165 7.28289 2.7165 10.9372H3.1165ZM7.63744 16.9198C5.02811 16.1817 3.1165 13.7824 3.1165 10.9372H2.7165C2.7165 13.9661 4.75156 16.5192 7.52857 17.3047L7.63744 16.9198ZM7.78301 27.2702V17.1123H7.38301V27.2702H7.78301ZM7.78301 37.4291V27.2702H7.38301V37.4291H7.78301ZM3.1165 43.6042C3.1165 40.7589 5.02811 38.3596 7.63744 37.6215L7.52857 37.2366C4.75156 38.0222 2.7165 40.5752 2.7165 43.6042H3.1165ZM9.33317 49.8208C5.8998 49.8208 3.1165 47.0375 3.1165 43.6042H2.7165C2.7165 47.2585 5.67889 50.2208 9.33317 50.2208V49.8208ZM15.5498 43.6042C15.5498 47.0375 12.7665 49.8208 9.33317 49.8208V50.2208C12.9875 50.2208 15.9498 47.2585 15.9498 43.6042H15.5498ZM11.0286 37.6214C13.6381 38.3594 15.5498 40.7588 15.5498 43.6042H15.9498C15.9498 40.5751 13.9146 38.0219 11.1374 37.2365L11.0286 37.6214ZM10.883 29.0202V37.429H11.283V29.0202H10.883ZM11.083 29.2202H26.25V28.8202H11.083V29.2202ZM26.05 29.0202V37.4289H26.45V29.0202H26.05ZM26.1956 37.2365C23.4183 38.0218 21.383 40.5751 21.383 43.6042H21.783C21.783 40.7587 23.6948 38.3593 26.3044 37.6214L26.1956 37.2365ZM21.383 43.6042C21.383 47.2585 24.3454 50.2208 27.9997 50.2208V49.8208C24.5663 49.8208 21.783 47.0375 21.783 43.6042H21.383ZM27.9997 50.2208C31.654 50.2208 34.6163 47.2585 34.6163 43.6042H34.2163C34.2163 47.0375 31.433 49.8208 27.9997 49.8208V50.2208ZM34.6163 43.6042C34.6163 40.5753 32.5814 38.0223 29.8044 37.2367L29.6956 37.6216C32.3048 38.3597 34.2163 40.759 34.2163 43.6042H34.6163ZM29.95 37.4291V29.0202H29.55V37.4291H29.95ZM29.75 29.2202H44.333V28.8202H29.75V29.2202ZM44.333 29.2202C46.6999 29.2202 48.6163 27.3012 48.6163 24.9368H48.2163C48.2163 27.0805 46.4788 28.8202 44.333 28.8202V29.2202ZM48.6163 24.9368V17.1124H48.2163V24.9368H48.6163ZM52.8833 10.9372C52.8833 13.7826 50.9715 16.182 48.3619 16.9199L48.4708 17.3048C51.248 16.5195 53.2833 13.9663 53.2833 10.9372H52.8833ZM46.6667 4.72051C50.1 4.72051 52.8833 7.5038 52.8833 10.9372H53.2833C53.2833 7.28289 50.321 4.32051 46.6667 4.32051V4.72051ZM40.45 10.9372C40.45 7.5038 43.2333 4.72051 46.6667 4.72051V4.32051C43.0124 4.32051 40.05 7.28289 40.05 10.9372H40.45ZM44.9708 16.9198C42.3615 16.1816 40.45 13.7824 40.45 10.9372H40.05C40.05 13.966 42.085 16.5191 44.8619 17.3047L44.9708 16.9198ZM44.7163 17.1122V24.9368H45.1163V17.1122H44.7163ZM44.7163 24.9368C44.7163 25.1484 44.5446 25.3202 44.333 25.3202V25.7202C44.7655 25.7202 45.1163 25.3693 45.1163 24.9368H44.7163ZM44.333 25.3202H29.75V25.7202H44.333V25.3202ZM29.95 25.5202V17.1122H29.55V25.5202H29.95ZM29.8044 17.3047C32.5814 16.5191 34.6163 13.966 34.6163 10.9372H34.2163C34.2163 13.7824 32.3048 16.1816 29.6956 16.9198L29.8044 17.3047ZM34.6163 10.9372C34.6163 7.28289 31.654 4.32051 27.9997 4.32051V4.72051C31.433 4.72051 34.2163 7.5038 34.2163 10.9372H34.6163ZM27.9997 4.32051C24.3454 4.32051 21.383 7.28289 21.383 10.9372H21.783C21.783 7.5038 24.5663 4.72051 27.9997 4.72051V4.32051ZM21.383 10.9372C21.383 13.9663 23.4183 16.5195 26.1956 17.3048L26.3044 16.9199C23.6948 16.182 21.783 13.7826 21.783 10.9372H21.383ZM26.05 17.1124V25.5202H26.45V17.1124H26.05ZM26.25 25.3202H11.083V25.7202H26.25V25.3202ZM10.883 17.1124V25.5202H11.283V17.1124H10.883Z" fill="#FAFAFA" mask="url(#path-1-inside-1_1008_35482)"/>
<path d="M52.7333 43.4167C52.7333 46.9053 49.9053 49.7333 46.4167 49.7333C42.9281 49.7333 40.1 46.9053 40.1 43.4167C40.1 39.9281 42.9281 37.1 46.4167 37.1C49.9053 37.1 52.7333 39.9281 52.7333 43.4167Z" fill="#FF0000" stroke="#FAFAFA" stroke-width="0.2"/>
</svg>
