<svg width="56" height="56" viewBox="0 0 56 56" fill="none" xmlns="http://www.w3.org/2000/svg">
<path d="M3.0066 17.1232L3.00964 17.1226C3.11063 17.1043 3.21452 17.1105 3.31264 17.1406C3.40977 17.1703 3.49845 17.2227 3.57144 17.2933L6.94032 20.6622L1.45819 26.1443L-1.90428 22.7818C-1.97733 22.7084 -2.03158 22.6185 -2.06243 22.5196C-2.09332 22.4206 -2.09981 22.3156 -2.08136 22.2136L-2.08135 22.2136L-2.08082 22.2106C-1.8577 20.9429 -1.24976 19.7746 -0.339576 18.8644C0.570604 17.9542 1.7389 17.3463 3.0066 17.1232Z" fill="#FF0000" stroke="white" stroke-width="1.3"/>
<path d="M22.2107 -2.08094L22.2137 -2.08149C22.3147 -2.09975 22.4186 -2.0936 22.5167 -2.06353C22.6139 -2.03376 22.7026 -1.98142 22.7755 -1.91081L26.1444 1.45807L20.6623 6.9402L17.2998 3.57773C17.2268 3.50434 17.1725 3.41439 17.1417 3.31553C17.1108 3.21652 17.1043 3.11152 17.1227 3.00947L17.1228 3.00947L17.1233 3.00648C17.3464 1.73878 17.9543 0.570484 18.8645 -0.339696C19.7747 -1.24988 20.943 -1.85782 22.2107 -2.08094Z" fill="#FF0000" stroke="white" stroke-width="1.3"/>
<path d="M27.9864 15.5067L27.9864 16.5067H27.987L27.9864 15.5067ZM61.113 36.9338C61.1132 36.934 61.1134 36.9342 61.1136 36.9344L61.1151 36.9359L61.8222 36.2288L61.113 36.9338ZM16.4946 27.999V27.9985L15.4952 27.9985L16.4946 27.999ZM16.4946 38.9717L15.4952 38.9722L16.4946 38.9722V38.9717ZM36.9239 61.1271L36.9224 61.1257C36.9222 61.1255 36.922 61.1252 36.9217 61.125L36.2168 61.8343L36.9239 61.1271ZM37.5336 62.1451L37.2203 61.1955L37.22 61.1956L37.5336 62.1451ZM49.3902 63.667C49.3906 63.6617 49.3914 63.6626 49.3884 63.6712C49.3897 63.6749 49.3902 63.6769 49.3904 63.6775C49.3908 63.6792 49.3896 63.6743 49.3902 63.667ZM63.6782 49.4109C63.6778 49.4108 63.6771 49.4106 63.6762 49.4103C63.6752 49.4106 63.6744 49.4109 63.6737 49.411C63.6701 49.412 63.6704 49.4116 63.6738 49.4114C63.6779 49.4111 63.6805 49.4116 63.6805 49.4115C63.6805 49.4115 63.6798 49.4114 63.6782 49.4109ZM61.1835 37.2324L62.1331 37.5456L61.1836 37.232L61.1835 37.2324ZM38.9602 15.5073L38.9597 16.5067H38.9602L38.9602 15.5073Z" fill="#666666" stroke="white" stroke-width="2"/>
<path d="M14.9965 39.6826L4.20647 28.8926L9.6886 23.4105L14.9652 28.6871L14.9965 39.6826Z" fill="#FF0000" stroke="white" stroke-width="1.3"/>
<path d="M28.6872 14.9651L23.4106 9.68848L28.8927 4.20635L39.6828 14.9964L28.6872 14.9651Z" fill="#FF0000" stroke="white" stroke-width="1.3"/>
<path d="M21.2407 15.5601L21.0168 15.6348L20.8499 15.8017L15.8019 20.8496L15.635 21.0166L15.5603 21.2405L15.0478 22.7782L11.9468 19.6772L12.6658 17.52L12.8613 16.9337L12.4243 16.4967L1.45049 5.52294C1.39549 5.46794 1.36459 5.39335 1.36459 5.31557C1.36459 5.23779 1.39549 5.1632 1.45049 5.1082L5.10841 1.45027C5.16341 1.39527 5.23801 1.36437 5.31579 1.36437C5.39356 1.36437 5.46816 1.39527 5.52316 1.45027L16.4969 12.424L16.9339 12.8611L17.5203 12.6656L19.6774 11.9466L22.7784 15.0476L21.2407 15.5601Z" fill="#666666" stroke="white" stroke-width="2"/>
</svg>
