<svg width="58" height="58" viewBox="0 0 58 58" fill="none" xmlns="http://www.w3.org/2000/svg">
<path d="M29 55.3594C43.5579 55.3594 55.3594 43.5579 55.3594 29C55.3594 14.4421 43.5579 2.64062 29 2.64062C14.4421 2.64062 2.64062 14.4421 2.64062 29C2.64062 43.5579 14.4421 55.3594 29 55.3594Z" stroke="#666666" stroke-width="3.5" stroke-miterlimit="10"/>
<path d="M29 32.2812C30.8122 32.2812 32.2812 30.8122 32.2812 29C32.2812 27.1878 30.8122 25.7188 29 25.7188C27.1878 25.7188 25.7188 27.1878 25.7188 29C25.7188 30.8122 27.1878 32.2812 29 32.2812Z" stroke="#FF0000" stroke-width="3.5" stroke-miterlimit="10"/>
<path d="M29 38.8438C34.4366 38.8438 38.8438 34.4366 38.8438 29C38.8438 23.5634 34.4366 19.1562 29 19.1562C23.5634 19.1562 19.1562 23.5634 19.1562 29C19.1562 34.4366 23.5634 38.8438 29 38.8438Z" stroke="#666666" stroke-width="3.5" stroke-miterlimit="10"/>
<path d="M25.958 19.638L20.8545 3.93066" stroke="#666666" stroke-width="3.5" stroke-miterlimit="10"/>
<path d="M21.0362 23.2144L7.6748 13.5068" stroke="#666666" stroke-width="3.5" stroke-miterlimit="10"/>
<path d="M19.1562 29H2.64062" stroke="#666666" stroke-width="3.5" stroke-miterlimit="10"/>
<path d="M21.0362 34.7861L7.6748 44.4937" stroke="#666666" stroke-width="3.5" stroke-miterlimit="10"/>
<path d="M25.958 38.3623L20.8545 54.0696" stroke="#666666" stroke-width="3.5" stroke-miterlimit="10"/>
<path d="M32.0419 38.3623L37.1455 54.0696" stroke="#666666" stroke-width="3.5" stroke-miterlimit="10"/>
<path d="M36.9638 34.7861L50.3252 44.4937" stroke="#666666" stroke-width="3.5" stroke-miterlimit="10"/>
<path d="M38.8438 29H55.3594" stroke="#666666" stroke-width="3.5" stroke-miterlimit="10"/>
<path d="M36.9638 23.2144L50.3252 13.5068" stroke="#666666" stroke-width="3.5" stroke-miterlimit="10"/>
<path d="M32.0419 19.638L37.1455 3.93066" stroke="#666666" stroke-width="3.5" stroke-miterlimit="10"/>
</svg>
