<svg width="32" height="32" viewBox="0 0 32 32" fill="none" xmlns="http://www.w3.org/2000/svg">
<path d="M10.791 20.33C11.4271 19.8238 11.5298 18.8912 11.0232 18.2576C10.5147 17.6222 9.58103 17.5195 8.94678 18.0257L6.60647 19.8965C5.97041 20.4026 5.86772 21.3371 6.37435 21.9706C6.88103 22.6043 7.81647 22.7087 8.45072 22.2008" stroke="#97852F" stroke-miterlimit="10" stroke-linecap="round" stroke-linejoin="round"/>
<path d="M10.2969 24.5049C9.66087 25.0129 9.55812 25.9456 10.0648 26.5792C10.5715 27.2146 11.5069 27.3172 12.1412 26.811L14.4815 24.9403C15.1175 24.4341 15.2202 23.4997 14.7136 22.8661C14.2051 22.2325 13.2715 22.1281 12.6372 22.636" stroke="#97852F" stroke-miterlimit="10" stroke-linecap="round" stroke-linejoin="round"/>
<path d="M12.1407 26.811C11.5065 27.3172 11.402 28.2517 11.9104 28.8852C12.4171 29.5188 13.3507 29.6232 13.9867 29.1153L15.296 28.0676C15.9302 27.5614 16.0348 26.6287 15.528 25.9951C15.0197 25.3597 14.086 25.2571 13.4517 25.7632" stroke="#97852F" stroke-miterlimit="10" stroke-linecap="round" stroke-linejoin="round"/>
<path d="M21.8766 20.8644L23.5491 22.2006C24.1833 22.7086 24.2878 23.6413 23.7811 24.2749C23.2726 24.9085 22.3389 25.0129 21.7047 24.505L19.8906 23.0573" stroke="#97852F" stroke-miterlimit="10" stroke-linecap="round" stroke-linejoin="round"/>
<path d="M19.8902 23.0572L21.7043 24.5049C22.3386 25.0128 22.4431 25.9456 21.9346 26.5792C21.428 27.2145 20.4926 27.3172 19.8583 26.811L18.0459 25.3615" stroke="#97852F" stroke-miterlimit="10" stroke-linecap="round" stroke-linejoin="round"/>
<path d="M18.0461 25.3616L18.9514 26.0854C19.5857 26.5934 19.6902 27.5261 19.1835 28.1597C18.6751 28.7951 17.7414 28.8977 17.1072 28.3916L15.7891 27.3385" stroke="#97852F" stroke-miterlimit="10" stroke-linecap="round" stroke-linejoin="round"/>
<path d="M30.1694 15.0414L31.2554 16.9599C31.507 17.4059 31.3493 17.981 30.9011 18.2289L29.2269 19.1562C28.7786 19.404 28.2081 19.2483 27.9566 18.804L23.1306 10.2682C22.8773 9.8221 23.035 9.24866 23.4832 9.00098L25.1592 8.07354C25.6074 7.82579 26.1761 7.97979 26.4277 8.42573L27.4074 10.1567" stroke="#97852F" stroke-miterlimit="10" stroke-linecap="round" stroke-linejoin="round"/>
<path d="M25.2764 19.8008C25.6714 18.9478 26.5325 18.3159 27.5211 18.0327" stroke="#97852F" stroke-miterlimit="10" stroke-linecap="round" stroke-linejoin="round"/>
<path d="M23.5487 22.2008C24.1828 22.7087 25.1183 22.6043 25.625 21.9706C26.1334 21.3371 26.029 20.4026 25.3947 19.8965L23.3662 18.2753C22.3811 17.4895 21.2685 16.6187 20.2127 15.8612C18.3028 14.4931 17.3621 13.5835 14.9686 14.0648C13.1597 14.4295 11.6963 13.8772 11.3155 12.311C11.071 11.3039 11.9284 10.8349 13.6275 10.6845L16.3381 10.442C16.8731 10.3942 17.192 10.3447 18.0583 10.6473L19.6935 11.219C20.799 11.6048 20.6502 11.7074 21.8 11.3747L23.4796 10.888" stroke="#97852F" stroke-miterlimit="10" stroke-linecap="round" stroke-linejoin="round"/>
<path d="M8.51629 9.00097L6.8421 8.07354C6.39391 7.82579 5.82341 7.97979 5.57185 8.42579L0.745913 16.9599C0.492538 17.4059 0.650288 17.9811 1.09841 18.2288L2.77266 19.1562C3.22085 19.404 3.79135 19.2483 4.04291 18.8041L8.86891 10.2682C9.12216 9.82216 8.96454 9.24872 8.51629 9.00097Z" stroke="#97852F" stroke-miterlimit="10" stroke-linecap="round" stroke-linejoin="round"/>
<path d="M11.3209 11.6895L8.52344 10.8789" stroke="#97852F" stroke-miterlimit="10" stroke-linecap="round" stroke-linejoin="round"/>
<path d="M6.72495 19.8008C6.32808 18.9478 5.46708 18.3159 4.47852 18.0327" stroke="#97852F" stroke-miterlimit="10" stroke-linecap="round" stroke-linejoin="round"/>
<path d="M16 5.74658V2.56271" stroke="#FF0000" stroke-miterlimit="10" stroke-linecap="round" stroke-linejoin="round"/>
<path d="M11.8294 7.06494L10.1641 4.42263" stroke="#FF0000" stroke-miterlimit="10" stroke-linecap="round" stroke-linejoin="round"/>
<path d="M20.1719 7.06494L21.8354 4.42263" stroke="#FF0000" stroke-miterlimit="10" stroke-linecap="round" stroke-linejoin="round"/>
<path d="M8.45027 22.2006L11.8217 19.507C12.456 19.0008 13.3914 19.1052 13.8981 19.7388C14.4048 20.3724 14.302 21.3051 13.666 21.8131L10.2963 24.505C9.66033 25.0129 8.72671 24.9085 8.21996 24.2749C7.71152 23.6413 7.81608 22.7086 8.45027 22.2006Z" stroke="#97852F" stroke-miterlimit="10" stroke-linecap="round" stroke-linejoin="round"/>
<path d="M28.7852 12.6011V12.5998" stroke="#FF0000" stroke-miterlimit="10" stroke-linecap="round" stroke-linejoin="round"/>
</svg>
