<svg width="16" height="16" viewBox="0 0 16 16" fill="none" xmlns="http://www.w3.org/2000/svg">
<g clip-path="url(#clip0_1069_15197)">
<path d="M15.1331 8.57215H11.4241V7.23027C11.4459 7.2363 11.467 7.24596 11.489 7.24959C11.5328 7.25713 11.5757 7.26045 11.6176 7.26045C11.9373 7.26045 12.216 7.06 12.4653 6.88038C12.6507 6.74664 12.859 6.59268 12.9864 6.61653C13.0679 6.63042 13.1509 6.72823 13.2062 6.80762C13.2429 6.86038 13.2954 6.90006 13.3562 6.92088C13.417 6.94169 13.4829 6.94257 13.5442 6.92337C13.6055 6.90417 13.6591 6.86591 13.6972 6.81414C13.7353 6.76238 13.7558 6.69981 13.7559 6.63555V4.88702C13.7559 4.82544 13.7369 4.76536 13.7019 4.71494C13.5259 4.46136 13.3194 4.31253 13.0884 4.27268C12.7141 4.20959 12.3944 4.43872 12.1124 4.64219C11.9265 4.77593 11.7136 4.92808 11.5914 4.90604C11.5096 4.89215 11.4268 4.79434 11.3713 4.71494C11.3346 4.66219 11.282 4.62251 11.2213 4.60169C11.1605 4.58088 11.0946 4.58 11.0333 4.5992C10.9719 4.61839 10.9183 4.65666 10.8803 4.70843C10.8422 4.76019 10.8216 4.82276 10.8216 4.88702L10.8204 8.57245H6.5704L6.39228 5.95419C6.39893 5.85547 6.3953 5.39087 6.39621 5.15902C6.39621 4.56249 5.60134 4.17608 5.44225 4.10453C5.40335 4.08715 5.36123 4.07817 5.31862 4.07817C5.27602 4.07817 5.2339 4.08715 5.195 4.10453C5.10081 4.14679 4.78504 4.29985 4.54232 4.54076C4.2987 4.29985 3.98172 4.14679 3.88723 4.10453C3.84843 4.08717 3.80641 4.07819 3.76391 4.07819C3.7214 4.07819 3.67938 4.08717 3.64059 4.10453C3.5464 4.14679 3.23062 4.29985 2.98791 4.54076C2.74398 4.29985 2.427 4.14679 2.33281 4.10453C2.29398 4.08712 2.2519 4.07812 2.20934 4.07812C2.16678 4.07812 2.1247 4.08712 2.08587 4.10453C1.92647 4.17608 1.13191 4.56249 1.13191 5.15902V5.92491L0.564057 14.9248C0.561499 14.9659 0.567413 15.0072 0.581434 15.046C0.595455 15.0849 0.617286 15.1204 0.645578 15.1504C0.67387 15.1805 0.708022 15.2044 0.745924 15.2207C0.783827 15.2371 0.824674 15.2454 0.865944 15.2454H15.1331C15.2132 15.2454 15.29 15.2136 15.3466 15.1569C15.4032 15.1003 15.435 15.0235 15.435 14.9435V8.87404C15.435 8.79397 15.4032 8.71719 15.3466 8.66057C15.29 8.60396 15.2132 8.57215 15.1331 8.57215ZM11.4253 5.48687C11.4465 5.4926 11.4676 5.49744 11.489 5.50106C11.8634 5.56445 12.1831 5.33502 12.4653 5.13185C12.6507 4.99781 12.8626 4.84506 12.9864 4.8677C13.0444 4.87766 13.1032 4.93019 13.1521 4.98845V6.03479C13.1311 6.02922 13.1099 6.02459 13.0884 6.02091C12.7141 5.95691 12.3944 6.18694 12.1124 6.39011C11.9265 6.52385 11.7136 6.6754 11.5914 6.65427C11.5331 6.6443 11.4742 6.59208 11.4253 6.53351V5.48687ZM4.84481 5.15872C4.84481 5.04672 5.07847 4.85049 5.31877 4.71766C5.55908 4.85049 5.79274 5.04672 5.79274 5.15842V5.63238H4.84481V5.15872ZM3.2904 5.15872C3.2904 5.04642 3.52436 4.85019 3.76466 4.71736C4.00315 4.84898 4.24104 5.04762 4.24104 5.15872V5.63268H3.29009L3.2904 5.15872ZM1.73568 5.15872C1.73568 5.04642 1.96964 4.85019 2.21025 4.71736C2.44874 4.84898 2.68662 5.04762 2.68662 5.15872V5.63268H1.73538L1.73568 5.15872ZM1.18776 14.6416L1.71727 6.23615H5.80632C6.53145 17.7552 6.28119 13.7824 6.33523 14.6419L1.18776 14.6416ZM12.9514 14.6416H11.2819V12.6772H12.9514V14.6416ZM14.8315 14.6416H13.5552V12.3753C13.5552 12.2953 13.5233 12.2185 13.4667 12.1619C13.4101 12.1052 13.3333 12.0734 13.2533 12.0734H10.9801C10.9 12.0734 10.8232 12.1052 10.7666 12.1619C10.71 12.2185 10.6782 12.2953 10.6782 12.3753V14.6416H6.94081L6.61176 9.17562H14.8312L14.8315 14.6416Z" fill="black"/>
<path d="M2.9054 7.68537C2.82534 7.68537 2.74855 7.71718 2.69194 7.77379C2.63532 7.8304 2.60352 7.90719 2.60352 7.98726V8.61971C2.60352 8.69977 2.63532 8.77656 2.69194 8.83318C2.74855 8.88979 2.82534 8.9216 2.9054 8.9216C2.98547 8.9216 3.06225 8.88979 3.11887 8.83318C3.17548 8.77656 3.20729 8.69977 3.20729 8.61971V7.98726C3.20729 7.90719 3.17548 7.8304 3.11887 7.77379C3.06225 7.71718 2.98547 7.68537 2.9054 7.68537ZM4.6171 7.68537C4.53704 7.68537 4.46025 7.71718 4.40363 7.77379C4.34702 7.8304 4.31521 7.90719 4.31521 7.98726V8.61971C4.31521 8.69977 4.34702 8.77656 4.40363 8.83318C4.46025 8.88979 4.53704 8.9216 4.6171 8.9216C4.69717 8.9216 4.77395 8.88979 4.83057 8.83318C4.88718 8.77656 4.91899 8.69977 4.91899 8.61971V7.98726C4.91899 7.90719 4.88718 7.8304 4.83057 7.77379C4.77395 7.71718 4.69717 7.68537 4.6171 7.68537ZM2.9054 9.98907C2.82534 9.98907 2.74855 10.0209 2.69194 10.0775C2.63532 10.1341 2.60352 10.2109 2.60352 10.291V10.9234C2.60352 11.0035 2.63532 11.0803 2.69194 11.1369C2.74855 11.1935 2.82534 11.2253 2.9054 11.2253C2.98547 11.2253 3.06225 11.1935 3.11887 11.1369C3.17548 11.0803 3.20729 11.0035 3.20729 10.9234V10.2913C3.20729 10.2112 3.17548 10.1344 3.11887 10.0778C3.06225 10.0212 2.98547 9.98907 2.9054 9.98907ZM4.6171 9.98907C4.53704 9.98907 4.46025 10.0209 4.40363 10.0775C4.34702 10.1341 4.31521 10.2109 4.31521 10.291V10.9234C4.31521 11.0035 4.34702 11.0803 4.40363 11.1369C4.46025 11.1935 4.53704 11.2253 4.6171 11.2253C4.69717 11.2253 4.77395 11.1935 4.83057 11.1369C4.88718 11.0803 4.91899 11.0035 4.91899 10.9234V10.2913C4.91899 10.2112 4.88718 10.1344 4.83057 10.0778C4.77395 10.0212 4.69717 9.98907 4.6171 9.98907ZM2.9054 12.2928C2.82534 12.2928 2.74855 12.3246 2.69194 12.3812C2.63532 12.4378 2.60352 12.5146 2.60352 12.5947V13.2271C2.60352 13.3072 2.63532 13.384 2.69194 13.4406C2.74855 13.4972 2.82534 13.529 2.9054 13.529C2.98547 13.529 3.06225 13.4972 3.11887 13.4406C3.17548 13.384 3.20729 13.3072 3.20729 13.2271V12.5944C3.20729 12.5143 3.17548 12.4375 3.11887 12.3809C3.06225 12.3243 2.98547 12.2928 2.9054 12.2928ZM4.6171 12.2928C4.53704 12.2928 4.46025 12.3246 4.40363 12.3812C4.34702 12.4378 4.31521 12.5146 4.31521 12.5947V13.2271C4.31521 13.3072 4.34702 13.384 4.40363 13.4406C4.46025 13.4972 4.53704 13.529 4.6171 13.529C4.69717 13.529 4.77395 13.4972 4.83057 13.4406C4.88718 13.384 4.91899 13.3072 4.91899 13.2271V12.5944C4.91899 12.5143 4.88718 12.4375 4.83057 12.3809C4.77395 12.3243 4.69717 12.2928 4.6171 12.2928ZM8.18118 11.151C8.26124 11.151 8.33803 11.1192 8.39464 11.0626C8.45126 11.006 8.48306 10.9292 8.48306 10.8491V10.2167C8.48306 10.1366 8.45126 10.0598 8.39464 10.0032C8.33803 9.94661 8.26124 9.9148 8.18118 9.9148C8.10111 9.9148 8.02432 9.94661 7.96771 10.0032C7.91109 10.0598 7.87929 10.1366 7.87929 10.2167V10.8491C7.87929 10.9292 7.91109 11.006 7.96771 11.0626C8.02432 11.1192 8.10111 11.151 8.18118 11.151ZM9.91612 11.151C9.99618 11.151 10.073 11.1192 10.1296 11.0626C10.1862 11.006 10.218 10.9292 10.218 10.8491V10.2167C10.218 10.1366 10.1862 10.0598 10.1296 10.0032C10.073 9.94661 9.99618 9.9148 9.91612 9.9148C9.83605 9.9148 9.75927 9.94661 9.70265 10.0032C9.64604 10.0598 9.61423 10.1366 9.61423 10.2167V10.8491C9.61423 10.9292 9.64604 11.006 9.70265 11.0626C9.75927 11.1192 9.83605 11.151 9.91612 11.151ZM11.6508 11.151C11.7308 11.151 11.8076 11.1192 11.8642 11.0626C11.9208 11.006 11.9526 10.9292 11.9526 10.8491V10.2167C11.9526 10.1366 11.9208 10.0598 11.8642 10.0032C11.8076 9.94661 11.7308 9.9148 11.6508 9.9148C11.5707 9.9148 11.4939 9.94661 11.4373 10.0032C11.3807 10.0598 11.3489 10.1366 11.3489 10.2167V10.8491C11.3489 10.9292 11.3807 11.006 11.4373 11.0626C11.4939 11.1192 11.5707 11.151 11.6508 11.151ZM13.3857 11.151C13.4658 11.151 13.5426 11.1192 13.5992 11.0626C13.6558 11.006 13.6876 10.9292 13.6876 10.8491V10.2167C13.6876 10.1366 13.6558 10.0598 13.5992 10.0032C13.5426 9.94661 13.4658 9.9148 13.3857 9.9148C13.3056 9.9148 13.2289 9.94661 13.1722 10.0032C13.1156 10.0598 13.0838 10.1366 13.0838 10.2167V10.8491C13.0838 10.9292 13.1156 11.006 13.1722 11.0626C13.2289 11.1192 13.3056 11.151 13.3857 11.151ZM5.21091 1.36839C5.21302 1.36839 5.42525 1.32401 5.55386 1.42907C5.71808 1.5628 5.69212 1.86378 5.71084 1.99118C5.75944 2.32205 6.24578 2.34469 6.2977 1.99118C6.31884 1.84507 6.29046 1.5628 6.45469 1.42907C6.58148 1.32552 6.78918 1.36688 6.79733 1.36869C6.87515 1.38767 6.95732 1.37495 7.02577 1.33334C7.09422 1.29173 7.14333 1.22463 7.16231 1.1468C7.18128 1.06898 7.16857 0.986806 7.12696 0.918359C7.08534 0.849912 7.01824 0.800798 6.94042 0.781822C6.89031 0.769143 6.4405 0.668313 6.08065 0.955106C6.05136 0.978351 6.02993 1.00945 6.00427 1.03571C5.97831 1.00914 5.95718 0.978351 5.92789 0.955106C5.56804 0.668313 5.11793 0.769445 5.06812 0.781822C4.99116 0.801031 4.92492 0.849904 4.88385 0.917773C4.84279 0.985643 4.83025 1.067 4.84895 1.14409C4.88729 1.30529 5.05031 1.40612 5.21091 1.36839ZM6.89786 3.76748C6.91135 3.80477 6.93205 3.83904 6.95879 3.86833C6.98553 3.89762 7.01778 3.92135 7.05369 3.93817C7.0896 3.95499 7.12847 3.96457 7.16809 3.96636C7.20771 3.96815 7.24729 3.96212 7.28457 3.94862C7.28759 3.94741 7.61786 3.83782 7.82103 3.98333C8.06737 4.15963 8.03567 4.66862 8.04563 4.74197C8.09061 5.07978 8.58721 5.09307 8.63431 4.74197C8.65242 4.60552 8.61861 4.15752 8.8568 3.98454C9.05695 3.83903 9.38963 3.9465 9.39657 3.94922C9.47195 3.97624 9.55498 3.97221 9.62739 3.93802C9.6998 3.90382 9.75566 3.84226 9.78268 3.76688C9.80971 3.6915 9.80568 3.60847 9.77148 3.53606C9.73729 3.46365 9.67573 3.40779 9.60035 3.38077C9.53695 3.35782 8.96457 3.16462 8.50691 3.49246C8.44481 3.54001 8.38875 3.59495 8.33997 3.65609C8.2911 3.59493 8.23493 3.53999 8.17272 3.49246C7.71536 3.16462 7.14299 3.35782 7.07929 3.38077C7.00405 3.40802 6.9427 3.46402 6.90874 3.53648C6.87477 3.60894 6.87097 3.69192 6.89816 3.76718L6.89786 3.76748Z" fill="black"/>
</g>
<defs>
<clipPath id="clip0_1069_15197">
<rect width="16" height="16" fill="white"/>
</clipPath>
</defs>
</svg>
