<svg width="16" height="16" viewBox="0 0 16 16" fill="none" xmlns="http://www.w3.org/2000/svg">
<path d="M15.75 5.75V5.25C15.75 5.18369 15.7237 5.12009 15.6768 5.07322L15.25 4.64647V4.54059C15.25 4.02228 14.9551 3.55753 14.5 3.33309V2.75H14V3.33316C13.8772 3.39378 13.7652 3.47244 13.6672 3.56594C13.6226 3.52497 13.5634 3.50038 13.4994 3.50003C13.4845 2.99816 13.1932 2.55162 12.75 2.33309V1.75H12.25V2.33306C11.8068 2.55163 11.5155 2.99813 11.5006 3.5H11.5V2.75C11.5 2.61194 11.3881 2.5 11.25 2.5H10.9792C10.9216 2.15803 10.7478 1.85497 10.5 1.63294V0.75H10V1.33572C9.86219 1.28684 9.71519 1.25756 9.56234 1.25128C9.23625 0.843813 8.76437 0.580625 8.25 0.515719V0H7.75V0.515719C7.23563 0.580625 6.76375 0.843813 6.43766 1.25128C6.374 1.25391 6.31138 1.26053 6.25 1.27087V0.75H5.75V1.45134C5.37084 1.67119 5.09628 2.05222 5.02084 2.5H4.75C4.61194 2.5 4.5 2.61194 4.5 2.75V3.5H4.49941C4.48447 2.99813 4.19319 2.55163 3.75 2.33306V1.75H3.25V2.33306C2.80681 2.55163 2.51553 2.99813 2.50059 3.5C2.43663 3.50034 2.37741 3.52497 2.33281 3.56591C2.23481 3.47241 2.12275 3.39375 2 3.33313V2.75H1.5V3.33306C1.04491 3.5575 0.75 4.02228 0.75 4.54056V4.64644L0.323219 5.07322C0.276344 5.12009 0.25 5.18369 0.25 5.25V5.75C0.111937 5.75 0 5.86194 0 6V15.75C0 15.8881 0.111937 16 0.25 16H15.75C15.8881 16 16 15.8881 16 15.75V6C16 5.86194 15.8881 5.75 15.75 5.75ZM14.8965 5L15.25 5.35353V5.75H14.205L14.055 5H14.8965ZM14.25 3.76797C14.5401 3.89787 14.7338 4.18003 14.749 4.5H13.9218L13.8445 4.15169C13.9325 3.98144 14.0755 3.84628 14.25 3.76797ZM12.5 2.76797C12.79 2.89787 12.9838 3.18003 12.999 3.5H12.001C12.0162 3.18 12.21 2.89784 12.5 2.76797ZM13.2974 4L13.6857 5.75H11.5008L11.5001 4H13.2974ZM5 3H5.25C5.38806 3 5.5 2.88806 5.5 2.75C5.5 2.19859 5.94859 1.75 6.5 1.75C6.51687 1.75 6.53362 1.75044 6.55028 1.75125C6.63681 1.75541 6.71856 1.71512 6.76778 1.64437C7.04859 1.24088 7.50922 1 8 1C8.49078 1 8.95141 1.24088 9.23222 1.64437C9.28147 1.71512 9.36372 1.75531 9.44972 1.75125C9.46637 1.75044 9.48312 1.75 9.5 1.75C10.0514 1.75 10.5 2.19859 10.5 2.75C10.5 2.88806 10.6119 3 10.75 3H11V3.75628C10.8332 3.56822 10.6291 3.41006 10.3944 3.29272L10.3618 3.27641C10.2914 3.24122 10.2086 3.24122 10.1382 3.27641L10.1056 3.29272C9.87088 3.41009 9.66675 3.56828 9.49997 3.75634C9.49475 2.88775 8.97163 2.11941 8.16425 1.79644L8.09291 1.76787C8.03328 1.74403 7.96678 1.74403 7.90716 1.76787L7.83584 1.79644C7.02844 2.11941 6.50531 2.88775 6.50009 3.75634C6.33331 3.56825 6.12919 3.41006 5.89447 3.29272L5.86184 3.27641C5.79147 3.24122 5.70862 3.24122 5.63825 3.27641L5.60563 3.29272C5.37094 3.41006 5.16681 3.56822 5.00006 3.75628V3H5ZM11 5.08156V5.75H9.5V5.08156C9.5 4.53988 9.78516 4.04997 10.25 3.78244C10.7148 4.04997 11 4.53984 11 5.08156ZM9 3.76944V5.75H7V3.76944C7 3.10884 7.39169 2.52262 8 2.26944C8.60828 2.52262 9 3.10884 9 3.76944ZM5 5.08156C5 4.53988 5.28516 4.04997 5.75 3.78244C6.21484 4.04997 6.5 4.53984 6.5 5.08156V5.75H5V5.08156ZM3.5 2.76797C3.79003 2.89787 3.98384 3.18003 3.99903 3.5H3.00097C3.01616 3.18 3.20997 2.89784 3.5 2.76797ZM2.70259 4H4.49991L4.49922 5.75H2.31434L2.70259 4ZM1.74997 3.76797C1.92453 3.84628 2.06747 3.98144 2.15547 4.15169L2.07819 4.5H1.25097C1.26616 4.18003 1.45994 3.89787 1.74997 3.76797ZM0.75 5.35353L1.10353 5H1.94503L1.79503 5.75H0.75V5.35353ZM0.5 7.25H1V9.5H0.5V7.25ZM0.5 10H6.77478C6.62937 10.1424 6.50797 10.3109 6.41838 10.5H0.5V10ZM1.5 9.5V7.25H2.31406C2.11291 7.50925 2 7.83097 2 8.16897V9.5H1.5ZM4 8.5V8.16897C4 7.83094 3.88709 7.50925 3.68594 7.25H4.5V9.5H4V9H3.5V9.5H2.5V8.16897C2.5 7.83384 2.66647 7.52281 2.94531 7.33694L3 7.30047L3.05469 7.33694C3.3335 7.52281 3.5 7.83388 3.5 8.16897V8.5H4ZM5 9.5V7.25H5.5V9.5H5ZM6 9.5V7.25H7.31406C7.11291 7.50925 7 7.83097 7 8.16897V9.5H6ZM5.5 15.5H0.5V15H5.5V15.5ZM1.25 14.5V12.919C1.25 12.5838 1.41647 12.2728 1.69531 12.0869L1.75 12.0505L1.80469 12.0869C2.08353 12.2728 2.25 12.5839 2.25 12.919V14.5H1.25ZM3.75 14.5V12.919C3.75 12.5838 3.91647 12.2728 4.19531 12.0869L4.25 12.0505L4.30469 12.0869C4.5835 12.2728 4.75 12.5839 4.75 12.919V14.5H3.75ZM5.5 11.75V14.5H5.25V12.919C5.25 12.4163 5.00031 11.9497 4.58203 11.6709L4.38866 11.542C4.30469 11.486 4.19528 11.486 4.11131 11.542L3.91794 11.6709C3.49969 11.9497 3.25 12.4163 3.25 12.919V14.5H2.75V12.919C2.75 12.4163 2.50031 11.9497 2.08203 11.6709L1.88866 11.542C1.80469 11.486 1.69528 11.486 1.61131 11.542L1.41794 11.6709C0.999688 11.9497 0.75 12.4163 0.75 12.919V14.5H0.5V11H5.74856C5.59156 11.2099 5.5 11.4702 5.5 11.75ZM10 15.5H9.5V12.501C9.5 11.9473 9.25206 11.4315 8.81975 11.0856L8.15616 10.5548C8.06484 10.4817 7.93512 10.4817 7.84381 10.5548L7.18022 11.0856C6.74794 11.4315 6.5 11.9473 6.5 12.501V13.25H7V12.501C7 12.1001 7.17953 11.7265 7.49259 11.4761L8 11.0702L8.50741 11.4761C8.82047 11.7265 9 12.1001 9 12.501V15.5H7V13.75H6.5V15.5H6V11.75C6 11.3833 6.26178 11.0724 6.6225 11.0108C6.71272 10.9953 6.78731 10.9319 6.81694 10.8453C6.81828 10.8413 6.81966 10.8374 6.82103 10.8334C6.82103 10.8334 6.82106 10.8333 6.82109 10.8333C6.99591 10.3388 7.46359 10.0053 7.9875 10.0001C7.99166 10 7.99584 10 8 10C8.00419 10 8.00834 10 8.0125 10.0001C8.53644 10.0053 9.00413 10.3388 9.17891 10.8333C9.17891 10.8333 9.17894 10.8334 9.17894 10.8334C9.18031 10.8374 9.18169 10.8413 9.18303 10.8453C9.21266 10.9318 9.28722 10.9953 9.37747 11.0108C9.73822 11.0724 10 11.3833 10 11.75V15.5ZM7.5 9.5V8.16897C7.5 7.83384 7.66647 7.52281 7.94531 7.33694L8 7.30047L8.05469 7.33694C8.3335 7.52281 8.5 7.83388 8.5 8.16897V9.5H7.5ZM8.68594 7.25H10V9.5H9V8.16897C9 7.83097 8.88709 7.50925 8.68594 7.25ZM15.5 15.5H10.5V15H15.5V15.5ZM11.25 14.5V12.919C11.25 12.5838 11.4165 12.2728 11.6953 12.0869L11.75 12.0505L11.8047 12.0869C12.0835 12.2728 12.25 12.5839 12.25 12.919V14.5H11.25ZM13.75 14.5V12.919C13.75 12.5838 13.9165 12.2728 14.1953 12.0869L14.25 12.0505L14.3047 12.0869C14.5835 12.2728 14.75 12.5839 14.75 12.919V14.5H13.75ZM15.5 10.5H13.5V11H15.5V14.5H15.25V12.919C15.25 12.4163 15.0003 11.9497 14.582 11.6709L14.3887 11.542C14.3047 11.486 14.1953 11.486 14.1113 11.542L13.9179 11.6709C13.4997 11.9497 13.25 12.4163 13.25 12.919V14.5H12.75V12.919C12.75 12.4163 12.5003 11.9497 12.082 11.6709L11.8887 11.542C11.8047 11.486 11.6953 11.486 11.6113 11.542L11.4179 11.6709C10.9997 11.9497 10.75 12.4163 10.75 12.919V14.5H10.5V11.75C10.5 11.4702 10.4084 11.2099 10.2514 11H13V10.5H9.58162C9.49206 10.3109 9.37063 10.1424 9.22525 10H15.5V10.5ZM10.5 9.5V7.25H11V9.5H10.5ZM11.5 9.5V7.25H12.3141C12.1129 7.50925 12 7.83097 12 8.16897V9.5H11.5ZM12.5 9.5V8.16897C12.5 7.83384 12.6665 7.52281 12.9453 7.33694L13 7.30047L13.0547 7.33694C13.3335 7.52281 13.5 7.83388 13.5 8.16897V9.5H12.5ZM13.6859 7.25H14.5V9.5H14V8.16897C14 7.83097 13.8871 7.50925 13.6859 7.25ZM15.5 9.5H15V7.25H15.5V9.5ZM15.5 6.75H0.5V6.25H15.5V6.75Z" fill="#313033"/>
<path d="M6 2.5H6.25V3H6V2.5Z" fill="#313033"/>
<path d="M9.75 2.5H10V3H9.75V2.5Z" fill="#313033"/>
<path d="M3.25 4.5H3.75V5.25H3.25V4.5Z" fill="#313033"/>
<path d="M12.25 4.5H12.75V5.25H12.25V4.5Z" fill="#313033"/>
</svg>
