<svg width="16" height="16" viewBox="0 0 16 16" fill="none" xmlns="http://www.w3.org/2000/svg">
<path d="M9.07088 10.1277C9.07088 11.5994 10.264 12.7926 11.7358 12.7926C13.2074 12.7926 14.4006 11.5994 14.4006 10.1277C14.4006 8.65601 13.2074 7.46289 11.7358 7.46289C10.2646 7.46451 9.07251 8.65665 9.07088 10.1277ZM11.7358 7.99582C12.9132 7.99582 13.8676 8.95028 13.8676 10.1277C13.8676 11.305 12.9132 12.2595 11.7358 12.2595C10.5584 12.2595 9.60393 11.3051 9.60393 10.1277C9.60519 8.95091 10.5589 7.99709 11.7358 7.99582ZM10.213 15.4574H13.2587V15.9903H10.2131L10.213 15.4574ZM9.07088 14.3914H14.4007V14.9244H9.07088V14.3914ZM3.20822 14.3914H3.74124V14.9244H3.20825L3.20822 14.3914ZM1.60938 14.9244H2.14228V15.4574H1.60938V14.9244Z" fill="#313033"/>
<path d="M3.2345 12.8917C4.62597 10.4683 5.49901 7.78224 5.79831 5.0038L8.27665 7.46744C8.32622 7.51681 8.39324 7.54466 8.46319 7.54497C8.51271 7.54504 8.56126 7.53129 8.60339 7.50527C8.64551 7.47925 8.67954 7.44198 8.70164 7.39767C9.20402 6.39495 9.0073 5.18313 8.21346 4.39092L7.99554 4.17289H9.86991C10.0171 4.173 10.1365 4.05378 10.1365 3.90659C10.1366 3.87784 10.132 3.84927 10.1229 3.82199C9.76896 2.75767 8.77303 2.03996 7.65141 2.04106H7.30502L8.63584 0.702452C8.7397 0.598172 8.73926 0.429491 8.63501 0.325652C8.61483 0.30555 8.59156 0.288824 8.56607 0.276112C7.56293 -0.22682 6.35046 -0.0302049 5.55772 0.764073L5.30325 1.01854C5.22031 1.10205 5.14312 1.19109 5.07221 1.28503C5.00207 1.19106 4.92557 1.10202 4.84323 1.01854L4.58876 0.764073C3.79663 -0.0296544 2.58482 -0.226297 1.58231 0.276112C1.45062 0.341889 1.3972 0.501956 1.46298 0.633565C1.47566 0.659023 1.49242 0.682279 1.51254 0.702452L2.84487 2.04103H2.49507C1.37342 2.03996 0.377352 2.7577 0.0235872 3.82199C-0.0230897 3.96152 0.0522924 4.11248 0.191938 4.15913C0.219129 4.16827 0.247725 4.17289 0.27654 4.17289H2.14912L1.93118 4.39092C1.13734 5.18313 0.940613 6.39495 1.44288 7.39767C1.46503 7.44197 1.49908 7.47922 1.54122 7.50524C1.58336 7.53126 1.63192 7.54502 1.68144 7.54497C1.75184 7.54498 1.81937 7.5171 1.86925 7.46744L4.17712 5.17323C3.89139 7.72684 2.9296 10.158 1.39095 12.2159C1.03278 12.1219 0.669634 12.0478 0.303208 11.9943L0.136702 11.9775L0.0833645 12.5081L0.238697 12.5232C0.505218 12.5614 0.770005 12.6152 1.03339 12.6762C0.980079 12.7431 0.926742 12.811 0.871588 12.8769L1.28034 13.2187C3.32824 10.7839 4.54911 7.76109 4.76658 4.58698L5.07328 4.28221L5.30292 4.51056C5.02276 7.90512 3.85761 11.1669 1.92366 13.9708L2.36016 14.2762C2.56965 13.9771 2.76952 13.6667 2.96324 13.3504C4.20979 13.9467 5.31045 14.809 6.18769 15.8766L6.59989 15.5389C6.08118 14.9083 5.48683 14.3438 4.83024 13.8583H15.9991V13.3253H4.04066C3.7794 13.1676 3.5098 13.0247 3.2345 12.8917ZM8.36538 6.80359L5.54974 4.00421C5.90329 3.89864 6.27875 3.89019 6.6367 3.97974C6.99465 4.06928 7.32189 4.25353 7.58409 4.51314L7.83856 4.76772C8.10031 5.02901 8.28724 5.35569 8.37988 5.71374C8.47252 6.07179 8.4675 6.44814 8.36532 6.80359H8.36538ZM9.46333 3.63996H7.25686C6.74303 3.39537 6.16313 3.32619 5.60618 3.44304C5.79727 3.17431 6.04989 2.9552 6.34294 2.80402C6.63599 2.65285 6.96096 2.57399 7.29071 2.57404H7.65042C8.02029 2.57346 8.38356 2.67203 8.7024 2.85949C9.02124 3.04696 9.28401 3.31647 9.46333 3.63996ZM5.6792 1.39537L5.93378 1.1409C6.19525 0.879083 6.52211 0.692117 6.88034 0.599456C7.23857 0.506795 7.61509 0.511826 7.97072 0.614025L6.391 2.20308C5.87831 2.3918 5.43813 2.73727 5.13298 3.19042C5.07188 2.86928 5.08975 2.5381 5.18505 2.2254C5.28035 1.9127 5.45023 1.62785 5.68005 1.39537H5.6792ZM4.21119 1.1409L4.46566 1.39537C4.58435 1.51655 4.68733 1.65217 4.77217 1.79906C4.65148 2.07967 4.58249 2.37978 4.56853 2.68493C4.32934 2.47601 4.05388 2.3127 3.75581 2.20308L2.17573 0.613997C2.53125 0.511849 2.90764 0.506845 3.26574 0.599507C3.62384 0.692168 3.95056 0.879109 4.21191 1.14087L4.21119 1.1409ZM2.49419 2.57404H2.85401C3.18401 2.57372 3.50929 2.65241 3.80266 2.80354C4.09602 2.95466 4.34894 3.17383 4.54027 3.44271C3.98356 3.32626 3.40403 3.39555 2.89047 3.63999H0.683146C0.86241 3.31666 1.12502 3.04727 1.44366 2.85981C1.7623 2.67236 2.12535 2.57369 2.49504 2.57407L2.49419 2.57404ZM1.7811 6.80359C1.67895 6.44812 1.67395 6.07178 1.76662 5.71372C1.85929 5.35567 2.04624 5.029 2.308 4.76772L2.56247 4.51314C2.75231 4.32379 2.97767 4.17378 3.22562 4.07172C3.47357 3.96966 3.73923 3.91757 4.00736 3.91843C4.20723 3.91852 4.40606 3.94704 4.5979 4.00314L1.7811 6.80359Z" fill="#313033"/>
</svg>
