<svg width="22" height="22" viewBox="0 0 22 22" fill="none" xmlns="http://www.w3.org/2000/svg">
<path d="M11 2.17188C11.727 2.17188 12.3184 2.76328 12.3184 3.49023C12.3184 4.21719 11.727 4.80859 11 4.80859C10.273 4.80859 9.68164 4.21719 9.68164 3.49023C9.68164 2.76328 10.273 2.17188 11 2.17188ZM11 5.98047C12.3731 5.98047 13.4902 4.86336 13.4902 3.49023C13.4902 2.11711 12.3731 1 11 1C9.62687 1 8.50977 2.11711 8.50977 3.49023C8.50977 4.86336 9.62687 5.98047 11 5.98047Z" fill="#9B9B9B" stroke="#9B9B9B" stroke-width="0.5"/>
<path d="M12.6113 14.5742H9.38867V10.0332C9.38867 9.14473 10.1115 8.42188 11 8.42188C11.8885 8.42188 12.6113 9.14473 12.6113 10.0332V14.5742ZM11 7.25C9.46531 7.25 8.2168 8.49852 8.2168 10.0332V21H9.38867V15.7461H12.6113V21H13.7832V10.0332C13.7832 8.49852 12.5347 7.25 11 7.25Z" fill="#9B9B9B" stroke="#9B9B9B" stroke-width="0.5"/>
<path d="M3.7832 8.62695C4.51016 8.62695 5.10156 9.21836 5.10156 9.94531C5.10156 10.6723 4.51016 11.2637 3.7832 11.2637C3.05625 11.2637 2.46484 10.6723 2.46484 9.94531C2.46484 9.21836 3.05625 8.62695 3.7832 8.62695ZM3.7832 12.4355C5.15633 12.4355 6.27344 11.3184 6.27344 9.94531C6.27344 8.57219 5.15633 7.45508 3.7832 7.45508C2.41008 7.45508 1.29297 8.57219 1.29297 9.94531C1.29297 11.3184 2.41008 12.4355 3.7832 12.4355Z" fill="#FF0000" stroke="#FF0000" stroke-width="0.5"/>
<path d="M5.39453 17.8555H2.17188V16.4883C2.17188 15.5998 2.89473 14.877 3.7832 14.877C4.67168 14.877 5.39453 15.5998 5.39453 16.4883V17.8555ZM3.7832 13.7051C2.24852 13.7051 1 14.9536 1 16.4883V21H2.17188V19.0273H5.39453V21H6.56641V16.4883C6.56641 14.9536 5.31789 13.7051 3.7832 13.7051Z" fill="#9B9B9B" stroke="#9B9B9B" stroke-width="0.5"/>
<path d="M18.2168 4.47656C18.9437 4.47656 19.5352 5.06797 19.5352 5.79492C19.5352 6.52188 18.9437 7.11328 18.2168 7.11328C17.4898 7.11328 16.8984 6.52188 16.8984 5.79492C16.8984 5.06797 17.4898 4.47656 18.2168 4.47656ZM18.2168 8.28516C19.5899 8.28516 20.707 7.16805 20.707 5.79492C20.707 4.4218 19.5899 3.30469 18.2168 3.30469C16.8437 3.30469 15.7266 4.4218 15.7266 5.79492C15.7266 7.16805 16.8437 8.28516 18.2168 8.28516Z" fill="#9B9B9B" stroke="#9B9B9B" stroke-width="0.5"/>
<path d="M19.8281 16.8789H16.6055V12.3379C16.6055 11.4494 17.3283 10.7266 18.2168 10.7266C19.1053 10.7266 19.8281 11.4494 19.8281 12.3379V16.8789ZM18.2168 9.55469C16.6821 9.55469 15.4336 10.8032 15.4336 12.3379V21H16.6055V18.0508H19.8281V21H21V12.3379C21 10.8032 19.7514 9.55469 18.2168 9.55469Z" fill="#9B9B9B" stroke="#9B9B9B" stroke-width="0.5"/>
</svg>
