<svg width="22" height="14" viewBox="0 0 22 14" fill="none" xmlns="http://www.w3.org/2000/svg">
<path d="M20.5506 7.32308C19.8544 5.96904 18.458 5.11934 16.9355 5.12328C16.5052 5.12364 16.0777 5.19282 15.6692 5.32819L13.6947 1.37496H16.3129C16.4854 1.37496 16.6253 1.51482 16.6253 1.68732C16.6253 1.85983 16.4854 1.99968 16.3129 1.99968H15.954C15.7815 1.99968 15.6416 2.13954 15.6416 2.31204C15.6416 2.48455 15.7815 2.62441 15.954 2.62441H16.3129C16.8305 2.62441 17.25 2.20487 17.25 1.68732C17.25 1.16978 16.8305 0.750244 16.3129 0.750244H13.1893C13.0168 0.749307 12.8762 0.888385 12.8752 1.06089C12.875 1.10993 12.8862 1.15834 12.9082 1.20223L13.6189 2.6244H8.07005L7.4294 1.29074H9.11053C9.28303 1.29074 9.42289 1.15088 9.42289 0.978376C9.42289 0.805875 9.28303 0.666016 9.11053 0.666016H5.98692C5.81442 0.666016 5.67456 0.805875 5.67456 0.978376C5.67456 1.15088 5.81442 1.29074 5.98692 1.29074H6.73096L7.52779 2.93676L6.33208 5.32819C4.20197 4.62663 1.90647 5.78467 1.20491 7.91477C0.503343 10.0449 1.66138 12.3404 3.79149 13.0419C5.92159 13.7435 8.2171 12.5855 8.91866 10.4554C9.02104 10.1446 9.08542 9.82255 9.11053 9.49633H11.0006C11.0259 9.49617 11.0511 9.49293 11.0756 9.48664L11.0821 9.48508C11.0893 9.48321 11.0956 9.47915 11.1028 9.47696C11.1154 9.47321 11.1278 9.46876 11.1399 9.46353C11.1418 9.46353 11.1427 9.46103 11.1443 9.46009C11.1459 9.45915 11.1531 9.45572 11.1571 9.45322C11.1662 9.44732 11.175 9.44096 11.1834 9.43417C11.1968 9.42472 11.2096 9.41425 11.2215 9.40293L11.2336 9.39044C11.2383 9.38513 11.2411 9.37919 11.2455 9.37357C11.2499 9.36795 11.2602 9.35764 11.2661 9.34827C11.2686 9.34389 11.2699 9.3389 11.2721 9.33452C11.2743 9.33015 11.2777 9.32765 11.2799 9.32359L14.1242 3.6352L15.0926 5.57183C13.1018 6.59544 12.3177 9.03907 13.3413 11.0298C14.3649 13.0206 16.8085 13.8047 18.7993 12.7811C20.7901 11.7575 21.5742 9.31383 20.5506 7.32308ZM5.06576 12.6199C3.16813 12.6226 1.62765 11.0864 1.62499 9.18877C1.62234 7.29114 3.15853 5.75066 5.05616 5.748C5.39257 5.74754 5.72723 5.79646 6.04943 5.89325L4.47384 9.04434C4.39673 9.19865 4.45932 9.38626 4.61362 9.46337C4.65704 9.48504 4.70487 9.49633 4.7534 9.49633H8.4858C8.32295 11.2642 6.84115 12.6175 5.06576 12.6199ZM5.2588 8.87161L6.63038 6.12877C7.67741 6.66537 8.37738 7.7001 8.4858 8.87161H5.2588ZM9.11053 8.87161C9.00077 7.46317 8.16688 6.21299 6.90869 5.57058L7.87701 3.63395L10.4952 8.87161H9.11053ZM11.0006 8.48553L8.38241 3.24912H13.6188L11.0006 8.48553ZM17.9287 12.4747C17.6065 12.5715 17.2719 12.6204 16.9355 12.6199C15.0392 12.6215 13.5008 11.0855 13.4992 9.18927C13.4981 7.89837 14.2213 6.71597 15.3709 6.12877L16.9683 9.32359C17.0454 9.47797 17.2331 9.54064 17.3875 9.46353C17.5418 9.38641 17.6045 9.19873 17.5274 9.04434L15.9519 5.89325C17.7693 5.34736 19.6851 6.37811 20.231 8.19554C20.7769 10.0129 19.7462 11.9288 17.9287 12.4747Z" fill="#9B9B9B" stroke="#9B9B9B" stroke-width="0.7"/>
<path d="M5.37472 3.25H1.31236C1.13986 3.25 1 3.38986 1 3.56236C1 3.73486 1.13986 3.87472 1.31236 3.87472H5.37472C5.54722 3.87472 5.68708 3.73486 5.68708 3.56236C5.68708 3.38986 5.54722 3.25 5.37472 3.25Z" fill="#FF0000" stroke="#FF0000" stroke-width="0.7"/>
</svg>
