<svg width="20" height="20" viewBox="0 0 20 20" fill="none" xmlns="http://www.w3.org/2000/svg">
<g clip-path="url(#clip0_586_8606)">
<path d="M9.13863 3.38944C5.01215 3.38944 1.66699 6.73459 1.66699 10.8611C1.66699 14.9875 5.01215 18.3327 9.13863 18.3327C13.2651 18.3327 16.6103 14.9875 16.6103 10.8611M10.8121 1.68911C14.6188 2.37917 17.6205 5.38084 18.3106 9.18752C18.4686 10.0594 17.7954 10.861 16.9093 10.861H14.4569C13.9421 10.861 13.4938 10.4968 13.4022 9.99008C13.0923 8.27659 11.8642 6.92064 10.0152 6.59505C9.50716 6.50564 9.13863 6.06097 9.13863 5.54511V3.0904C9.13863 2.20426 9.94023 1.53107 10.8121 1.68911ZM9.10305 10.7543C9.00482 10.7543 8.92515 10.834 8.92515 10.9322C8.92515 11.0305 9.00482 11.1101 9.10305 11.1101C9.20128 11.1101 9.28095 11.0305 9.28095 10.9322C9.28095 10.834 9.20128 10.7543 9.10305 10.7543Z" stroke="#9B9B9B" stroke-width="1.7" stroke-miterlimit="10" stroke-linecap="round" stroke-linejoin="round"/>
<path d="M6.51708 9.50776L5.31315 8.75082M12.103 12.7099L13.2714 13.4668M13.213 13.5638C12.395 14.8674 10.9448 15.7341 9.29226 15.7341C6.73777 15.7341 4.66699 13.6633 4.66699 11.1089C4.66699 9.4413 5.54946 7.97985 6.8729 7.16602M5.31315 13.4668L6.51708 12.7099" stroke="#FF0000" stroke-width="1.2" stroke-miterlimit="10" stroke-linecap="round" stroke-linejoin="round"/>
</g>
<defs>
<clipPath id="clip0_586_8606">
<rect width="20" height="20" fill="white"/>
</clipPath>
</defs>
</svg>
