<svg width="20" height="20" viewBox="0 0 20 20" fill="none" xmlns="http://www.w3.org/2000/svg">
<path d="M19.0812 9.35998L12.7045 3.00592L14.3783 1.33396C14.6836 1.02904 14.6838 0.534356 14.3789 0.229121C14.074 -0.0761522 13.5794 -0.0763866 13.2741 0.228496L3.84664 9.64564C2.52961 10.0131 1.56055 11.2237 1.56055 12.6563C1.56055 13.0878 1.91031 13.4376 2.3418 13.4376C2.77328 13.4376 3.12305 13.0878 3.12305 12.6563C3.12305 12.05 3.4702 11.5232 3.97613 11.2643L10.5854 17.8509C11.1945 18.4594 11.9943 18.7635 12.7941 18.7635C13.5941 18.7635 14.3943 18.459 15.0029 17.8504L19.0828 13.7811C19.6731 13.1907 19.9982 12.4057 19.998 11.5708C19.9979 10.7358 19.6725 9.95092 19.0812 9.35998ZM17.9786 12.6754L13.8987 16.7449C13.2899 17.3538 12.2988 17.354 11.689 16.7448L6.01859 11.0938H14.6856C15.1171 11.0938 15.4668 10.744 15.4668 10.3126C15.4668 9.88107 15.1171 9.53131 14.6856 9.53131H6.17203L11.5991 4.11022L17.9775 10.4661C18.2728 10.7612 18.4355 11.1536 18.4356 11.5711C18.4356 11.9885 18.2731 12.381 17.9786 12.6754Z" fill="#9B9B9B"/>
<path d="M3.71746 15.5974C3.31992 15.0038 2.9268 14.5241 2.91023 14.504C2.76184 14.3234 2.54035 14.2188 2.30664 14.2188C2.07293 14.2188 1.85145 14.3234 1.70305 14.504C1.68648 14.5241 1.29336 15.0038 0.89582 15.5974C0.0946094 16.7937 0.00195312 17.3676 0.00195312 17.6954C0.00195312 18.9662 1.03586 20 2.30664 20C3.57742 20 4.61133 18.9662 4.61133 17.6954C4.61133 17.3676 4.51867 16.7937 3.71746 15.5974ZM2.30664 18.4375C1.89738 18.4375 1.56445 18.1046 1.56441 17.6972C1.56457 17.6941 1.58496 17.3742 2.20066 16.457C2.23609 16.4043 2.27148 16.3524 2.30664 16.3019C2.34176 16.3524 2.37719 16.4043 2.41262 16.457C3.01762 17.3583 3.04785 17.6828 3.04883 17.6968C3.04805 18.1053 2.71539 18.4375 2.30664 18.4375Z" fill="#FF0000"/>
</svg>
