<svg width="10" height="10" viewBox="0 0 10 10" fill="none" xmlns="http://www.w3.org/2000/svg">
<path d="M9.24207 9.24304C9.50242 8.98269 9.50242 8.56058 9.24207 8.30023L5.94269 5.00086L9.24298 1.70057C9.50332 1.44022 9.50332 1.01811 9.24297 0.757764C8.98263 0.497414 8.56051 0.497414 8.30016 0.757763L4.99988 4.05805L1.69959 0.757762C1.43925 0.497413 1.01714 0.497413 0.756786 0.757762C0.496436 1.01811 0.496436 1.44022 0.756785 1.70057L4.05707 5.00086L0.757691 8.30024C0.497341 8.56058 0.497342 8.9827 0.757691 9.24304C1.01804 9.50339 1.44015 9.5034 1.7005 9.24305L4.99988 5.94367L8.29926 9.24304C8.55961 9.50339 8.98172 9.50339 9.24207 9.24304Z" fill="#313033"/>
</svg>
