<svg width="20" height="16" viewBox="0 0 20 16" fill="none" xmlns="http://www.w3.org/2000/svg">
<path d="M16.6344 3.10466L15.862 4.38052H6.25168L3.98962 0.608104C3.86272 0.396824 3.63276 0.26929 3.38634 0.273541C3.13992 0.277792 2.91449 0.413182 2.79496 0.628713C2.67543 0.844243 2.67997 1.10717 2.80686 1.31845L5.05858 5.07017L0.09996 13.3357C-0.0308131 13.5485 -0.034782 13.8157 0.0896152 14.0322C0.212417 14.2478 0.441531 14.3808 0.689615 14.3805H7.76548C7.64605 14.0487 7.58538 13.6987 7.58617 13.346C7.58608 13.2308 7.59299 13.1156 7.60686 13.0012H1.90686L5.86203 6.41155L8.63099 11.0253C8.9788 10.7173 9.3912 10.4911 9.83789 10.3633L7.07927 5.75983H15.0275L12.1069 10.5874C12.526 10.8022 12.8905 11.1101 13.1724 11.4874L17.5931 4.18397L16.6344 3.10466Z" fill="#9B9B9B" stroke="#9B9B9B" stroke-width="0.2"/>
<path d="M18.7952 4.49331C19.0486 4.77623 19.4831 4.80099 19.767 4.54869C20.0509 4.29639 20.0774 3.86202 19.8262 3.57711L17.0676 0.473657C16.8142 0.190741 16.3797 0.165984 16.0958 0.418281C15.8119 0.670579 15.7854 1.10495 16.0366 1.38986L18.7952 4.49331Z" fill="#9B9B9B" stroke="#9B9B9B" stroke-width="0.2"/>
<path d="M10.6892 10.9316C9.35608 10.9316 8.27539 12.0123 8.27539 13.3454C8.27539 14.6785 9.35608 15.7592 10.6892 15.7592C12.0223 15.7592 13.103 14.6785 13.103 13.3454C13.1034 12.7051 12.8493 12.0909 12.3965 11.6381C11.9437 11.1853 11.3295 10.9312 10.6892 10.9316ZM10.6892 14.3799C10.1179 14.3799 9.6547 13.9168 9.6547 13.3454C9.6547 12.7741 10.1179 12.311 10.6892 12.311C11.2605 12.311 11.7237 12.7741 11.7237 13.3454C11.7237 13.9168 11.2605 14.3799 10.6892 14.3799Z" fill="#FF0000" stroke="#FF0000" stroke-width="0.3"/>
</svg>
