<svg width="20" height="20" viewBox="0 0 20 20" fill="none" xmlns="http://www.w3.org/2000/svg">
<g clip-path="url(#clip0_586_8581)">
<path d="M11.3777 9.43841C11.2882 9.26094 11.0648 9.18625 10.8787 9.2717C10.6927 9.35712 10.6144 9.57025 10.704 9.74779C10.7549 9.84861 10.7806 9.95706 10.7806 10.0701C10.7806 10.4807 10.4307 10.8147 10.0005 10.8147C9.57022 10.8147 9.22027 10.4806 9.22027 10.0701C9.22027 9.96131 9.24418 9.85653 9.29147 9.75881C9.37792 9.57994 9.29611 9.36803 9.10867 9.28547C8.92131 9.20293 8.69913 9.28101 8.61264 9.45987C8.51977 9.652 8.47266 9.85731 8.47266 10.0701C8.47266 10.874 9.15802 11.528 10.0004 11.528C10.8428 11.528 11.5282 10.874 11.5282 10.0701C11.5282 9.84907 11.4776 9.63652 11.3777 9.43841Z" fill="#FF0000" stroke="#FF0000" stroke-width="0.458333"/>
<path d="M10.0198 8.47273L10.0046 8.47266C9.79823 8.47266 9.63086 8.63999 9.63086 8.84644C9.63086 9.0529 9.79823 9.22023 10.0046 9.22023L10.0127 9.22027C10.014 9.22027 10.0151 9.22027 10.0163 9.22027C10.2212 9.22027 10.3881 9.05525 10.3901 8.85003C10.392 8.64358 10.2262 8.47467 10.0198 8.47273Z" fill="#FF0000" stroke="#FF0000" stroke-width="0.458333"/>
<path d="M18.9916 9.69303L18.4956 9.39723C18.2517 9.25174 18.0863 9.00746 18.0419 8.72695C17.9974 8.44644 18.0793 8.16299 18.2663 7.94925L18.6466 7.51466C18.7296 7.4197 18.7567 7.28803 18.7177 7.16801C18.6786 7.04798 18.5794 6.95735 18.4564 6.92939L17.8932 6.80134C17.6163 6.73839 17.3836 6.55714 17.2546 6.30409C17.1256 6.051 17.1158 5.75616 17.2277 5.49513L17.4551 4.96432C17.5048 4.8483 17.4897 4.71478 17.4156 4.61266C17.3414 4.51057 17.2189 4.45514 17.0934 4.46646L16.5182 4.5187C16.2352 4.54448 15.958 4.44397 15.7572 4.24313C15.5564 4.04232 15.456 3.76492 15.4816 3.48208L15.5339 2.90694C15.5453 2.78126 15.4898 2.65887 15.3877 2.58471C15.2856 2.51048 15.152 2.49555 15.036 2.54521L14.5052 2.77263C14.2441 2.88449 13.9493 2.87464 13.6963 2.74574C13.4432 2.61679 13.262 2.38401 13.199 2.10708L13.0709 1.54394C13.043 1.4209 12.9523 1.32164 12.8323 1.28265C12.7124 1.24369 12.5806 1.27069 12.4857 1.35376L12.0511 1.73407C11.8374 1.92113 11.5538 2.00288 11.2734 1.95844C10.9929 1.914 10.7486 1.74865 10.6032 1.50473L10.3074 1.00872C10.2427 0.900371 10.1259 0.833984 9.99967 0.833984C9.87349 0.833984 9.75665 0.900371 9.69198 1.00865L9.39618 1.50465C9.25073 1.74857 9.00645 1.91397 8.72594 1.95837C8.44553 2.00281 8.16201 1.92106 7.94824 1.734L7.51361 1.35369C7.41865 1.27062 7.28699 1.24358 7.167 1.28258C7.04697 1.32157 6.95634 1.42079 6.92838 1.54386L6.80033 2.10701C6.73734 2.38394 6.55609 2.61672 6.30304 2.74566C6.05006 2.87457 5.75522 2.88438 5.49411 2.77256L4.96331 2.54514C4.84729 2.49544 4.71377 2.51045 4.61168 2.58464C4.50959 2.65883 4.45409 2.78122 4.46548 2.90687L4.51772 3.48204C4.5434 3.76488 4.44296 4.04228 4.24215 4.24309C4.04138 4.4439 3.76394 4.5443 3.4811 4.51866L2.90593 4.46642C2.78032 4.45493 2.65782 4.51053 2.58373 4.61262C2.50954 4.71471 2.49454 4.84827 2.5442 4.96428L2.77161 5.49509C2.88348 5.75616 2.87367 6.05104 2.74476 6.30405C2.61582 6.55706 2.38303 6.73832 2.10614 6.80131L1.54299 6.92935C1.41993 6.95732 1.3207 7.04798 1.28167 7.16797C1.24268 7.288 1.26971 7.41966 1.35279 7.51462L1.73306 7.94922C1.92012 8.16295 2.0019 8.4464 1.95746 8.72691C1.91303 9.00743 1.74767 9.25171 1.50375 9.39719L1.00775 9.693C0.899395 9.75759 0.833008 9.87447 0.833008 10.0007C0.833008 10.1268 0.899395 10.2437 1.00775 10.3083L1.50375 10.6041C1.74767 10.7496 1.91306 10.9938 1.95746 11.2744C2.0019 11.5549 1.92008 11.8383 1.73306 12.0521L1.35279 12.4866C1.26971 12.5816 1.24268 12.7133 1.28167 12.8333C1.3207 12.9533 1.41993 13.0439 1.54299 13.0719L2.10614 13.2C2.38303 13.2629 2.61578 13.4442 2.74476 13.6972C2.8737 13.9503 2.88348 14.2451 2.77161 14.5062L2.5442 15.037C2.49454 15.153 2.50958 15.2865 2.58373 15.3886C2.65789 15.4907 2.78032 15.5462 2.90593 15.5348L3.4811 15.4826C3.76426 15.4569 4.04134 15.5573 4.24215 15.7582C4.44296 15.959 4.5434 16.2364 4.51772 16.5192L4.46548 17.0944C4.45409 17.22 4.50959 17.3424 4.61168 17.4166C4.71369 17.4908 4.84729 17.5057 4.96331 17.4561L5.49411 17.2287C5.75519 17.1168 6.05006 17.1267 6.30304 17.2556C6.55609 17.3845 6.73734 17.6173 6.80033 17.8942L6.92838 18.4574C6.95634 18.5804 7.04697 18.6796 7.167 18.7187C7.28688 18.7576 7.41868 18.7306 7.51361 18.6475L7.94828 18.2672C8.16197 18.0802 8.44549 17.9984 8.72594 18.0429C9.00645 18.0873 9.25073 18.2527 9.39618 18.4966L9.69198 18.9926C9.75665 19.1009 9.87353 19.1673 9.99967 19.1673C10.1259 19.1673 10.2427 19.1009 10.3074 18.9927L10.6032 18.4967C10.7486 18.2528 10.9929 18.0874 11.2734 18.043C11.5538 17.9985 11.8373 18.0803 12.0511 18.2673L12.4857 18.6476C12.5806 18.7307 12.7123 18.7578 12.8323 18.7188C12.9523 18.6798 13.043 18.5805 13.0709 18.4575L13.199 17.8943C13.262 17.6174 13.4432 17.3846 13.6963 17.2557C13.9493 17.1267 14.2441 17.1169 14.5052 17.2288L15.036 17.4562C15.152 17.5059 15.2855 17.4909 15.3877 17.4167C15.4898 17.3425 15.5453 17.2202 15.5339 17.0945L15.4816 16.5193C15.456 16.2365 15.5564 15.9591 15.7572 15.7582C15.958 15.5574 16.2354 15.457 16.5182 15.4827L17.0934 15.5349C17.219 15.5462 17.3415 15.4908 17.4156 15.3887C17.4898 15.2866 17.5048 15.1531 17.4551 15.0371L17.2277 14.5062C17.1158 14.2452 17.1257 13.9503 17.2546 13.6973C17.3835 13.4443 17.6163 13.263 17.8932 13.2L18.4564 13.072C18.5794 13.044 18.6786 12.9534 18.7177 12.8334C18.7567 12.7133 18.7296 12.5817 18.6466 12.4867L18.2663 12.0521C18.0792 11.8384 17.9974 11.5549 18.0419 11.2744C18.0863 10.9939 18.2517 10.7496 18.4956 10.6041L18.9916 10.3083C19.1 10.2437 19.1663 10.1269 19.1663 10.0007C19.1663 9.8745 19.1 9.75766 18.9916 9.69303ZM17.3342 11.1624C17.2576 11.646 17.3952 12.1345 17.712 12.5066C17.237 12.6214 16.8385 12.9357 16.6162 13.372C16.3939 13.8082 16.3739 14.3154 16.5602 14.7672C16.0731 14.7296 15.5968 14.9054 15.2506 15.2516C14.9044 15.5978 14.7286 16.0739 14.7662 16.5612C14.3143 16.3749 13.8071 16.395 13.371 16.6172C12.9347 16.8395 12.6204 17.2381 12.5056 17.713C12.1335 17.3962 11.6448 17.2586 11.1613 17.3352C10.6778 17.4118 10.2556 17.6936 9.99967 18.11C9.74365 17.6936 9.32159 17.4118 8.83801 17.3352C8.75025 17.3213 8.66238 17.3144 8.57497 17.3144C8.18099 17.3144 7.79831 17.4538 7.49374 17.7132C7.37894 17.2381 7.06459 16.8396 6.62835 16.6173C6.19221 16.3951 5.685 16.3751 5.23319 16.5613C5.27082 16.074 5.09497 15.5979 4.74879 15.2517C4.40257 14.9055 3.92647 14.7297 3.43913 14.7673C3.62548 14.3155 3.60535 13.8083 3.38313 13.3721C3.16084 12.9358 2.7623 12.6215 2.28729 12.5067C2.60407 12.1346 2.74175 11.646 2.66516 11.1625C2.58857 10.6789 2.30669 10.2567 1.89036 10.0008C2.30669 9.74474 2.58857 9.32264 2.66516 8.83906C2.74175 8.35548 2.60411 7.86697 2.28729 7.49486C2.76234 7.38002 3.16084 7.06567 3.38313 6.62943C3.60539 6.19323 3.62544 5.68602 3.43913 5.23424C3.92647 5.2718 4.40253 5.09602 4.74879 4.7498C5.09497 4.40358 5.27078 3.92748 5.23319 3.44018C5.68493 3.62652 6.19214 3.60644 6.62835 3.38418C7.06459 3.16192 7.37894 2.76339 7.49374 2.28833C7.86585 2.60512 8.35444 2.74276 8.83801 2.66621C9.32159 2.58962 9.74369 2.30774 9.99967 1.89145C10.2557 2.30778 10.6778 2.58965 11.1613 2.66624C11.6449 2.74291 12.1334 2.60523 12.5056 2.28837C12.6204 2.76339 12.9347 3.16192 13.371 3.38418C13.8072 3.60644 14.3144 3.62649 14.7662 3.44018C14.7285 3.92748 14.9044 4.40358 15.2506 4.7498C15.5968 5.09602 16.0734 5.27183 16.5602 5.23424C16.3738 5.68605 16.3939 6.19319 16.6162 6.62943C16.8385 7.06567 17.237 7.37999 17.712 7.49482C17.3952 7.86689 17.2576 8.35549 17.3342 8.83903C17.4107 9.32261 17.6926 9.74474 18.109 10.0007C17.6926 10.2567 17.4107 10.6788 17.3342 11.1624Z" fill="#9B9B9B" stroke="#9B9B9B" stroke-width="0.825"/>
<path d="M15.3456 9.54559C15.3353 9.43491 15.2629 9.33983 15.1592 9.30098C14.8971 9.20272 14.7028 8.99143 14.6263 8.72122C14.5498 8.45105 14.6041 8.16877 14.7754 7.94668C14.8432 7.85879 14.8549 7.73968 14.8056 7.64017C14.7562 7.54061 14.6534 7.47741 14.5438 7.47964C14.2648 7.48195 14.007 7.35648 13.8383 7.13233C13.6697 6.90816 13.6188 6.62519 13.6987 6.356C13.7303 6.24943 13.6984 6.13414 13.6166 6.05924C13.5348 5.98438 13.4175 5.96301 13.3147 6.0045C13.055 6.10916 12.7697 6.08437 12.5319 5.93652C12.294 5.78863 12.1447 5.54324 12.1224 5.26325C12.1135 5.15245 12.0423 5.05648 11.939 5.01635C11.8357 4.97617 11.7187 4.99892 11.6379 5.0748C11.4335 5.26658 11.1586 5.34698 10.8835 5.29536C10.6085 5.24377 10.381 5.06904 10.2594 4.81609C10.2112 4.71598 10.1103 4.65234 9.99955 4.65234C9.88885 4.65234 9.78787 4.71598 9.73974 4.81609C9.61812 5.06904 9.39063 5.24374 9.11563 5.29536C8.84057 5.34695 8.56568 5.26661 8.36124 5.0748C8.28035 4.99892 8.1634 4.9762 8.06008 5.01635C7.95682 5.05651 7.8856 5.15242 7.87674 5.26325C7.85437 5.54324 7.70509 5.78863 7.46722 5.93652C7.22936 6.08443 6.944 6.10919 6.6844 6.0045C6.5816 5.96304 6.46433 5.9844 6.38252 6.05924C6.30071 6.13414 6.26877 6.24946 6.3004 6.356C6.38024 6.62522 6.32935 6.90816 6.16078 7.13233C5.99442 7.35352 5.74188 7.4797 5.46642 7.4797C5.46273 7.4797 5.45898 7.47967 5.45529 7.47964C5.45408 7.47961 5.4529 7.47961 5.45171 7.47961C5.3424 7.47961 5.24228 7.54171 5.19352 7.64014C5.14415 7.73965 5.15586 7.85876 5.22371 7.94663C5.39505 8.16871 5.44938 8.45105 5.37282 8.7212C5.29626 8.9914 5.10203 9.20269 4.83991 9.30095C4.73619 9.33983 4.66378 9.43488 4.65358 9.54556C4.64337 9.65627 4.69715 9.76308 4.79199 9.82043C5.03161 9.96536 5.18386 10.2089 5.2097 10.4886C5.2355 10.7683 5.13043 11.0358 4.92137 11.2225C4.83861 11.2963 4.80528 11.4113 4.83561 11.5182C4.86589 11.6251 4.95447 11.7052 5.06356 11.7243C5.3392 11.7725 5.56878 11.9444 5.6935 12.1958C5.81818 12.4473 5.81645 12.7348 5.68865 12.9847C5.63808 13.0836 5.64834 13.2028 5.71507 13.2915C5.78179 13.3803 5.89313 13.4228 6.00178 13.401C6.2762 13.346 6.55207 13.423 6.75882 13.6123C6.9656 13.8015 7.06742 14.0703 7.03818 14.3496C7.02662 14.4602 7.0791 14.5677 7.17322 14.6262C7.26739 14.6847 7.38657 14.684 7.47997 14.6243C7.71599 14.4735 8.00097 14.4452 8.2619 14.5467C8.52277 14.6482 8.71444 14.8618 8.78768 15.133C8.81666 15.2402 8.90427 15.3214 9.01312 15.3418C9.12194 15.3622 9.23285 15.3184 9.29848 15.2288C9.46431 15.0026 9.71988 14.8728 9.99967 14.8728C10.2795 14.8728 10.535 15.0026 10.7009 15.2288C10.7558 15.3038 10.8425 15.3468 10.9332 15.3468C10.9508 15.3468 10.9686 15.3452 10.9862 15.3419C11.095 15.3215 11.1826 15.2403 11.2116 15.133C11.2848 14.8618 11.4765 14.6482 11.7374 14.5467C11.9983 14.4453 12.2833 14.4735 12.5193 14.6243C12.6127 14.684 12.7319 14.6848 12.8261 14.6262C12.9202 14.5677 12.9727 14.4602 12.9611 14.3497C12.9319 14.0703 13.0337 13.8016 13.2405 13.6123C13.4472 13.4231 13.7231 13.3461 13.9975 13.4011C14.1062 13.4228 14.2175 13.3803 14.2842 13.2916C14.3509 13.2028 14.3612 13.0836 14.3106 12.9847C14.1828 12.7348 14.1811 12.4473 14.3058 12.1958C14.4305 11.9444 14.6601 11.7725 14.9357 11.7243C15.0448 11.7052 15.1334 11.6251 15.1637 11.5182C15.194 11.4113 15.1606 11.2964 15.0779 11.2225C14.8688 11.0358 14.7638 10.7683 14.7896 10.4886C14.8154 10.2089 14.9676 9.96539 15.2073 9.82046C15.302 9.76308 15.3558 9.6563 15.3456 9.54559ZM14.215 10.4351C14.1865 10.7439 14.254 11.0437 14.4042 11.3012C14.1415 11.4407 13.9269 11.66 13.7892 11.9375C13.6515 12.2151 13.6066 12.5192 13.6541 12.8138C13.3589 12.8486 13.0799 12.9752 12.8516 13.1841C12.6234 13.393 12.472 13.6602 12.4103 13.9521C12.1225 13.8775 11.8168 13.8943 11.5288 14.0064C11.2408 14.1184 11.0036 14.3127 10.841 14.5625C10.5995 14.3885 10.3084 14.2934 9.99952 14.2934C9.69067 14.2934 9.39954 14.3885 9.15802 14.5625C8.99544 14.3127 8.75816 14.1184 8.47018 14.0064C8.18214 13.8943 7.87646 13.8774 7.58871 13.9521C7.52697 13.6602 7.37564 13.3929 7.14738 13.184C6.91912 12.9751 6.64019 12.8485 6.34495 12.8138C6.39244 12.5192 6.34746 12.2151 6.20983 11.9375C6.07217 11.6599 5.85757 11.4407 5.59479 11.3012C5.74508 11.0437 5.81256 10.7438 5.78404 10.4351C5.75558 10.1263 5.63436 9.84402 5.43952 9.61864C5.6723 9.43306 5.8431 9.17794 5.92761 8.87968C6.01213 8.58142 6.00065 8.27424 5.90008 7.99341C6.1839 7.90476 6.43494 7.72879 6.62108 7.48135C6.80718 7.2339 6.90704 6.94331 6.91425 6.64496C7.21076 6.6652 7.50817 6.59221 7.77083 6.42898C8.03341 6.26573 8.23107 6.03102 8.34515 5.75543C8.61438 5.88192 8.91796 5.92164 9.22154 5.86472C9.52515 5.80771 9.79393 5.66049 9.99944 5.44492C10.205 5.66055 10.4738 5.80774 10.7773 5.86472C11.0809 5.92167 11.3845 5.88192 11.6537 5.75543C11.7678 6.03102 11.9654 6.26576 12.228 6.42901C12.4907 6.5923 12.7881 6.6654 13.0846 6.64499C13.0918 6.94334 13.1917 7.23393 13.3778 7.48137C13.5639 7.72888 13.8149 7.90479 14.0988 7.99344C13.9982 8.27427 13.9867 8.58142 14.0713 8.87968C14.1558 9.17794 14.3266 9.43309 14.5594 9.61869C14.3646 9.84405 14.2434 10.1263 14.215 10.4351Z" fill="#9B9B9B" stroke="#9B9B9B" stroke-width="0.825"/>
</g>
<defs>
<clipPath id="clip0_586_8581">
<rect width="20" height="20" fill="white"/>
</clipPath>
</defs>
</svg>
