<svg width="20" height="20" viewBox="0 0 20 20" fill="none" xmlns="http://www.w3.org/2000/svg">
<path d="M12.4998 6.66863H11.6665C11.6665 5.28767 10.5473 4.16862 9.1665 4.16862H6.6665C6.2065 4.16862 5.83317 3.79529 5.83317 3.33529C5.83317 2.87529 6.2065 2.50195 6.6665 2.50195H9.1665C11.4673 2.50195 13.3332 4.36767 13.3332 6.66863H12.7832H13.3332H12.4998H13.3332C13.3332 8.96959 11.4673 10.8353 9.1665 10.8353H8.67816L13.9223 16.0791C14.2473 16.4048 14.2473 16.9325 13.9223 17.2582C13.5973 17.5829 13.069 17.5829 12.744 17.2582L6.07733 10.5915C5.839 10.3524 5.76733 9.99435 5.8965 9.68292C6.02567 9.37149 6.32983 9.16864 6.6665 9.16864H9.1665C10.5473 9.16864 11.6665 8.04959 11.6665 6.66863H12.4998Z" fill="#9B9B9B"/>
<path d="M5.00033 4.16667H15.0003C15.4603 4.16667 15.8337 3.79333 15.8337 3.33333C15.8337 2.87333 15.4603 2.5 15.0003 2.5H5.00033C4.54033 2.5 4.16699 2.87333 4.16699 3.33333C4.16699 3.79333 4.54033 4.16667 5.00033 4.16667Z" fill="#9B9B9B"/>
<path d="M5.00033 7.50065H15.0003C15.4603 7.50065 15.8337 7.12732 15.8337 6.66732C15.8337 6.20732 15.4603 5.83398 15.0003 5.83398H5.00033C4.54033 5.83398 4.16699 6.20732 4.16699 6.66732C4.16699 7.12732 4.54033 7.50065 5.00033 7.50065Z" fill="#FF0000"/>
</svg>
