<svg width="20" height="20" viewBox="0 0 20 20" fill="none" xmlns="http://www.w3.org/2000/svg">
<path fill-rule="evenodd" clip-rule="evenodd" d="M10.0005 5.39334L9.52753 6.84893C9.19285 7.87899 8.23296 8.57639 7.14989 8.57639H5.61939L6.85759 9.47599C7.73381 10.1126 8.10046 11.241 7.76577 12.2711L7.29282 13.7267L8.53102 12.8271C9.40724 12.1905 10.5937 12.1905 11.4699 12.8271L12.7081 13.7267L12.2352 12.2711C11.9005 11.241 12.2672 10.1126 13.1434 9.47599L14.3816 8.57639H12.8511C11.768 8.57639 10.8081 7.87899 10.4734 6.84893L10.0005 5.39334ZM10.793 2.4391C10.5436 1.67134 9.4574 1.67134 9.20794 2.4391L7.94244 6.3339C7.83088 6.67725 7.51091 6.90972 7.14989 6.90972H3.05466C2.24739 6.90972 1.91174 7.94273 2.56484 8.41724L5.87795 10.8244C6.17002 11.0366 6.29224 11.4127 6.18068 11.7561L4.91518 15.6509C4.66572 16.4186 5.54445 17.057 6.19755 16.5825L9.51066 14.1754C9.80274 13.9632 10.1982 13.9632 10.4903 14.1754L13.8034 16.5825C14.4565 17.057 15.3352 16.4186 15.0858 15.6509L13.8203 11.7561C13.7087 11.4127 13.8309 11.0366 14.123 10.8244L17.4361 8.41724C18.0892 7.94273 17.7536 6.90972 16.9463 6.90972H12.8511C12.4901 6.90972 12.1701 6.67725 12.0585 6.3339L10.793 2.4391Z" fill="#9B9B9B"/>
<path d="M15.0246 3.0002L14.9847 3C14.4409 3 14 3.44765 14 3.99995C14 4.55225 14.4409 4.9999 14.9847 4.9999L15.0059 5C15.0093 5 15.0123 5 15.0155 5C15.555 5 15.9949 4.55854 16 4.00954C16.0051 3.45725 15.5684 3.0054 15.0246 3.0002Z" fill="#FF0000" stroke="#FF0000" stroke-width="0.458333"/>
</svg>
