<svg width="14" height="20" viewBox="0 0 14 20" fill="none" xmlns="http://www.w3.org/2000/svg">
<path d="M3.71249 -0.461982C3.67794 -0.527066 3.62832 -0.582939 3.56777 -0.624935C3.15224 -0.916083 2.65717 -1.07227 2.14979 -1.07227C1.64242 -1.07227 1.14734 -0.916083 0.731813 -0.624935C0.670629 -0.582491 0.620615 -0.525882 0.586032 -0.459935C0.55145 -0.393987 0.533326 -0.320657 0.533203 -0.246192L3.71249 -0.461982ZM0.908203 1.30948L0.908203 -0.245761C0.908256 -0.259705 0.911664 -0.273432 0.91814 -0.285781C0.924644 -0.298185 0.934052 -0.308833 0.945562 -0.316818L0.945565 -0.316815L0.947 -0.31782C1.29947 -0.564785 1.71941 -0.697266 2.14979 -0.697266C2.58017 -0.697266 3.00012 -0.564785 3.35258 -0.31782L3.35258 -0.317817L3.35405 -0.316801C3.36544 -0.308901 3.37477 -0.29839 3.38127 -0.286149C3.38756 -0.274296 3.39102 -0.261152 3.39138 -0.247749L3.39138 1.30948L0.908203 1.30948Z" fill="#FF0000" stroke="white" stroke-width="0.75"/>
<path d="M13.1809 -0.502088L13.1815 -0.501682C13.2224 -0.473324 13.2559 -0.435597 13.2792 -0.391649C13.3024 -0.347934 13.3149 -0.299327 13.3156 -0.249847V1.53448H10.3824V-0.246059C10.3825 -0.296301 10.3948 -0.345776 10.4181 -0.390273C10.4414 -0.434804 10.4752 -0.473028 10.5165 -0.501689L10.5165 -0.501687L10.5171 -0.502089C10.9074 -0.775564 11.3724 -0.922266 11.849 -0.922266C12.3256 -0.922266 12.7906 -0.775564 13.1809 -0.502088Z" fill="#FF0000" stroke="white" stroke-width="0.3"/>
<path d="M12.9255 9.61639C13.097 9.78809 13.233 9.99191 13.3258 10.2162C13.4185 10.4405 13.4661 10.6808 13.4659 10.9235V20.623L8.84709 6.30469C9.08978 6.3045 9.33014 6.35212 9.55442 6.44485C9.7787 6.53757 9.98251 6.67358 10.1542 6.84509L12.9255 9.61639ZM12.9255 9.61639L12.6603 9.88155M12.9255 9.61639L12.6602 9.8814L9.8892 7.1104L12.6603 9.88155M12.6603 9.88155C12.797 10.0184 12.9053 10.1808 12.9792 10.3595C13.0531 10.5382 13.0911 10.7298 13.0909 10.9232V10.9235M12.6603 9.88155L13.0909 10.9235M8.84738 6.67969L8.84709 6.67969L5.15203 6.67969H5.15173C4.9583 6.67954 4.76673 6.7175 4.58798 6.7914C4.40928 6.86528 4.24689 6.97362 4.11007 7.11026C4.11005 7.11027 4.11003 7.11029 4.11002 7.1103C4.10999 7.11034 4.10995 7.11037 4.10992 7.1104L1.33892 9.8814C1.33889 9.88144 1.33885 9.88147 1.33882 9.8815C1.3388 9.88152 1.33879 9.88153 1.33877 9.88155C1.20214 10.0184 1.09379 10.1808 1.01991 10.3595C0.946011 10.5382 0.908051 10.7298 0.908204 10.9232L0.908204 10.9235L0.908204 20.6223C0.908315 20.6382 0.912802 20.6538 0.921174 20.6673L0.603296 20.8638L0.921176 20.6673C0.92961 20.681 0.941658 20.692 0.955984 20.6992L1.6256 21.0363L1.83197 21.1402V21.3713V22.9325C1.83197 23.323 1.98711 23.6975 2.26326 23.9737C2.30095 24.0114 2.4114 24.0924 2.5787 24.1804C2.73953 24.265 2.92175 24.3396 3.0861 24.3795C3.25597 24.4208 3.34893 24.411 3.38181 24.3996C3.38544 24.3887 3.39138 24.3639 3.39138 24.3181L3.39138 11.1083V10.9594L3.49346 10.8511L5.07772 9.16984L5.18875 9.05201H5.35064H8.64848H8.81037L8.9214 9.16984L10.5057 10.8511L10.6077 10.9594V11.1083V24.3181C10.6077 24.3529 10.6111 24.3766 10.6145 24.3915C10.6161 24.3984 10.6176 24.4033 10.6188 24.4065C10.6482 24.4175 10.7372 24.4295 10.9051 24.3896C11.0666 24.3513 11.247 24.2778 11.4083 24.1923C11.5747 24.104 11.6901 24.0194 11.7359 23.9737C12.012 23.6975 12.1672 23.323 12.1672 22.9325V21.3713V21.1402L12.3735 21.0363L13.0431 20.6992L8.84738 6.67969ZM8.84738 6.67969C9.04082 6.67954 9.23239 6.7175 9.41114 6.7914C9.58984 6.86528 9.75223 6.97362 9.88905 7.11026L8.84738 6.67969ZM13.0909 10.9235V20.6223C13.0908 20.6382 13.0863 20.6538 13.0779 20.6673C13.0695 20.6809 13.0575 20.692 13.0433 20.6992L13.0909 10.9235Z" fill="#9B9B9B" stroke="white" stroke-width="0.75"/>
<path d="M0.908203 7.94504L0.908203 2.98438H3.39138V5.44767L0.908203 7.94504Z" fill="#FF0000" stroke="white" stroke-width="0.75"/>
<path d="M10.3824 5.54049V2.75938H13.3156V8.49043L10.3824 5.54049Z" fill="#FF0000" stroke="white" stroke-width="0.3"/>
<path d="M8.44234 3.19722L8.36316 3.15763H8.27464H5.72505H5.63652L5.55734 3.19722L5.06543 3.44318V1.91687L5.7819 1.55863L5.98919 1.45499V1.22322V-4.31937C5.98919 -4.34241 5.99835 -4.36451 6.01464 -4.3808C6.03094 -4.3971 6.05303 -4.40625 6.07608 -4.40625H7.92361C7.94665 -4.40625 7.96875 -4.3971 7.98504 -4.3808C8.00134 -4.36451 8.01049 -4.34241 8.01049 -4.31937V1.22322V1.45499L8.21778 1.55863L8.93426 1.91687V3.44318L8.44234 3.19722Z" fill="#9B9B9B" stroke="white" stroke-width="0.75"/>
</svg>
