<svg width="22" height="20" viewBox="0 0 22 20" fill="none" xmlns="http://www.w3.org/2000/svg">
<path d="M8.77734 17.0605C12.6768 17.0605 15.8379 13.8994 15.8379 10C15.8379 6.10057 12.6768 2.93945 8.77734 2.93945C4.87791 2.93945 1.7168 6.10057 1.7168 10C1.7168 13.8994 4.87791 17.0605 8.77734 17.0605Z" stroke="#9B9B9B" stroke-width="1.5" stroke-miterlimit="10"/>
<path d="M8.77734 10.8789C9.26275 10.8789 9.65625 10.4854 9.65625 10C9.65625 9.51459 9.26275 9.12109 8.77734 9.12109C8.29194 9.12109 7.89844 9.51459 7.89844 10C7.89844 10.4854 8.29194 10.8789 8.77734 10.8789Z" stroke="#9B9B9B" stroke-width="0.8" stroke-miterlimit="10"/>
<path d="M8.77734 12.6367C10.2336 12.6367 11.4141 11.4562 11.4141 10C11.4141 8.54378 10.2336 7.36328 8.77734 7.36328C7.32112 7.36328 6.14062 8.54378 6.14062 10C6.14062 11.4562 7.32112 12.6367 8.77734 12.6367Z" stroke="#9B9B9B" stroke-width="1.5" stroke-miterlimit="10"/>
<path d="M7.96272 7.49248L6.5957 3.28516" stroke="#9B9B9B" stroke-width="1.5" stroke-miterlimit="10"/>
<path d="M6.64437 8.44985L3.06543 5.84961" stroke="#9B9B9B" stroke-width="1.5" stroke-miterlimit="10"/>
<path d="M6.14062 10H1.7168" stroke="#9B9B9B" stroke-width="1.5" stroke-miterlimit="10"/>
<path d="M6.64437 11.5508L3.06543 14.151" stroke="#9B9B9B" stroke-width="1.5" stroke-miterlimit="10"/>
<path d="M7.96272 12.5078L6.5957 16.7151" stroke="#9B9B9B" stroke-width="1.5" stroke-miterlimit="10"/>
<path d="M9.5918 12.5078L10.9588 16.7151" stroke="#9B9B9B" stroke-width="1.5" stroke-miterlimit="10"/>
<path d="M10.9102 11.5508L14.4891 14.151" stroke="#9B9B9B" stroke-width="1.5" stroke-miterlimit="10"/>
<path d="M11.4141 10H15.8379" stroke="#9B9B9B" stroke-width="1.5" stroke-miterlimit="10"/>
<path d="M10.9102 8.44985L14.4891 5.84961" stroke="#9B9B9B" stroke-width="1.5" stroke-miterlimit="10"/>
<path d="M9.5918 7.49248L10.9588 3.28516" stroke="#9B9B9B" stroke-width="1.5" stroke-miterlimit="10"/>
<path d="M18.6738 4.17511V15.7142L18.0019 15.036C17.7998 14.8319 17.4696 14.8303 17.2654 15.0329C17.0613 15.235 17.0597 15.5652 17.2623 15.7694L18.8248 17.3459C18.9222 17.4444 19.055 17.5001 19.1936 17.5001C19.3321 17.5006 19.4649 17.4459 19.5628 17.3475L21.1253 15.785C21.3285 15.5819 21.3285 15.2517 21.1253 15.0485C20.9222 14.8454 20.592 14.8454 20.3889 15.0485L19.7154 15.722V4.16678L20.3889 4.84022C20.592 5.04334 20.9222 5.04334 21.1253 4.84022C21.3285 4.63709 21.3285 4.30688 21.1253 4.10376L19.5628 2.54126C19.4649 2.44334 19.3321 2.38813 19.1936 2.38865C19.055 2.38917 18.9222 2.44438 18.8248 2.54282L17.2623 4.11938C17.0597 4.32355 17.0613 4.65376 17.2654 4.85636C17.4696 5.05845 17.7998 5.05688 18.0019 4.85272L18.6738 4.17511Z" fill="#FF0000" stroke="#FF0000" stroke-width="0.3"/>
</svg>
