<svg width="18" height="21" viewBox="0 0 18 21" fill="none" xmlns="http://www.w3.org/2000/svg">
<path d="M7.25122 19.5253L7.25219 19.5262C7.62203 19.8409 8.07952 20 8.53846 20C8.9974 20 9.45489 19.8409 9.82474 19.5262L9.82809 19.5233C9.97234 19.3994 11.5052 18.0717 13.0099 16.1135C14.4904 14.187 16.0769 11.4802 16.0769 8.62085C16.0769 4.42929 12.7078 1 8.53846 1C4.36913 1 1 4.42929 1 8.62085C1 11.4808 2.58651 14.1879 4.06699 16.1145C5.57148 18.0724 7.10428 19.4 7.25122 19.5253ZM8.53846 10.1538C7.64836 10.1538 6.92308 9.42856 6.92308 8.53846C6.92308 7.64836 7.64836 6.92308 8.53846 6.92308C9.42856 6.92308 10.1538 7.64836 10.1538 8.53846C10.1538 9.42856 9.42856 10.1538 8.53846 10.1538Z" stroke="#313033" stroke-width="2"/>
</svg>
