<svg width="10" height="9" viewBox="0 0 10 9" fill="none" xmlns="http://www.w3.org/2000/svg">
<path d="M8.975 9C7.9 9 6.85217 8.76033 5.8315 8.281C4.8105 7.802 3.90633 7.16867 3.119 6.381C2.33133 5.59367 1.698 4.6895 1.219 3.6685C0.739667 2.64783 0.5 1.6 0.5 0.525C0.5 0.375 0.55 0.25 0.65 0.15C0.75 0.05 0.875 0 1.025 0H3.05C3.16667 0 3.27083 0.0374999 3.3625 0.1125C3.45417 0.1875 3.50833 0.283333 3.525 0.4L3.85 2.15C3.86667 2.26667 3.86467 2.37283 3.844 2.4685C3.823 2.5645 3.775 2.65 3.7 2.725L2.4875 3.95C2.8375 4.55 3.27717 5.1125 3.8065 5.6375C4.3355 6.1625 4.91667 6.61667 5.55 7L6.725 5.825C6.8 5.75 6.898 5.69367 7.019 5.656C7.13967 5.61867 7.25833 5.60833 7.375 5.625L9.1 5.975C9.21667 6 9.3125 6.05617 9.3875 6.1435C9.4625 6.23117 9.5 6.33333 9.5 6.45V8.475C9.5 8.625 9.45 8.75 9.35 8.85C9.25 8.95 9.125 9 8.975 9ZM2.0125 3L2.8375 2.175L2.625 1H1.5125C1.55417 1.34167 1.6125 1.67917 1.6875 2.0125C1.7625 2.34583 1.87083 2.675 2.0125 3ZM6.4875 7.475C6.8125 7.61667 7.14383 7.72917 7.4815 7.8125C7.81883 7.89583 8.15833 7.95 8.5 7.975V6.875L7.325 6.6375L6.4875 7.475Z" fill="#1C1B1F"/>
</svg>
