<svg width="16" height="16" viewBox="0 0 16 16" fill="none" xmlns="http://www.w3.org/2000/svg">
<path fill-rule="evenodd" clip-rule="evenodd" d="M8 14C11.3137 14 14 11.3137 14 8C14 4.68629 11.3137 2 8 2C4.68629 2 2 4.68629 2 8C2 11.3137 4.68629 14 8 14ZM8 15.5C12.1421 15.5 15.5 12.1421 15.5 8C15.5 3.85786 12.1421 0.5 8 0.5C3.85786 0.5 0.5 3.85786 0.5 8C0.5 12.1421 3.85786 15.5 8 15.5Z" fill="#AFAFAF"/>
<path d="M8.75 8C8.75 8.41421 8.41421 8.75 8 8.75C7.58579 8.75 7.25 8.41421 7.25 8V5C7.25 4.58579 7.58579 4.25 8 4.25C8.41421 4.25 8.75 4.58579 8.75 5V8Z" fill="#AFAFAF"/>
<path d="M7.25 11C7.25 10.5858 7.58579 10.25 8 10.25C8.41421 10.25 8.75 10.5858 8.75 11C8.75 11.4142 8.41421 11.75 8 11.75C7.58579 11.75 7.25 11.4142 7.25 11Z" fill="#AFAFAF"/>
</svg>
