<svg width="12" height="14" viewBox="0 0 12 14" fill="none" xmlns="http://www.w3.org/2000/svg">
<path d="M4 1.00065C4 0.632461 4.29848 0.333984 4.66667 0.333984H7.33333C7.70152 0.333984 8 0.632461 8 1.00065V1.66732H11.3333C11.7015 1.66732 12 1.96579 12 2.33398C12 2.70217 11.7015 3.00065 11.3333 3.00065H0.666667C0.298477 3.00065 0 2.70217 0 2.33398C0 1.96579 0.298477 1.66732 0.666667 1.66732H4V1.00065Z" fill="#666666"/>
<path d="M2 4.33398C2.36819 4.33398 2.66667 4.63246 2.66667 5.00065V11.6673C2.66667 12.0355 2.96514 12.334 3.33333 12.334H8.66667C9.03486 12.334 9.33333 12.0355 9.33333 11.6673V5.00065C9.33333 4.63246 9.63181 4.33398 10 4.33398C10.3682 4.33398 10.6667 4.63246 10.6667 5.00065V11.6673C10.6667 12.7719 9.77124 13.6673 8.66667 13.6673H3.33333C2.22876 13.6673 1.33333 12.7719 1.33333 11.6673V5.00065C1.33333 4.63246 1.63181 4.33398 2 4.33398Z" fill="#666666"/>
<path d="M4 6.33398C4 5.9658 4.29848 5.66732 4.66667 5.66732C5.03486 5.66732 5.33333 5.9658 5.33333 6.33398V10.334C5.33333 10.7022 5.03486 11.0007 4.66667 11.0007C4.29848 11.0007 4 10.7022 4 10.334V6.33398Z" fill="#666666"/>
<path d="M7.33333 5.66732C6.96514 5.66732 6.66667 5.9658 6.66667 6.33398V10.334C6.66667 10.7022 6.96514 11.0007 7.33333 11.0007C7.70152 11.0007 8 10.7022 8 10.334V6.33398C8 5.9658 7.70152 5.66732 7.33333 5.66732Z" fill="#666666"/>
</svg>
