<svg width="120" height="120" viewBox="0 0 120 120" fill="none" xmlns="http://www.w3.org/2000/svg">
<path d="M115.046 60.0045C115.046 65.4593 105.129 69.228 103.492 74.1374C101.856 79.0468 107.608 88.1215 104.534 92.3364C101.459 96.5514 91.1445 93.8738 86.8799 96.9979C82.6153 100.122 81.921 110.684 76.9622 112.37C72.0033 114.057 65.4576 105.775 60.0028 105.775C54.548 105.775 47.9032 114.007 42.9937 112.42C38.0846 110.833 37.3406 100.122 33.076 97.0471C28.8114 93.9724 18.5959 96.6503 15.3727 92.3857C12.1494 88.121 18.0505 79.2447 16.4141 74.1866C14.7776 69.1286 4.95898 65.4591 4.95898 60.0043C4.95898 54.5494 14.8767 50.7808 16.5132 45.8713C18.1497 40.9619 12.3974 31.8872 15.3727 27.6226C18.348 23.358 28.7617 26.0853 33.0263 22.9612C37.2909 19.8371 37.9852 9.27476 42.9441 7.58859C47.9029 5.90243 54.5477 14.2334 60.0026 14.2334C65.4574 14.2334 72.1022 6.00158 77.0116 7.58859C81.921 9.17561 82.6647 19.8865 86.9294 22.9612C91.194 26.0356 101.459 23.358 104.583 27.6226C107.707 31.8872 101.905 40.7636 103.542 45.8216C105.178 50.8801 115.046 54.5497 115.046 60.0045Z" fill="#E4F7EA"/>
<path d="M44.3521 117.595C43.4099 117.595 42.448 117.457 41.4662 117.134C36.5966 115.562 34.6081 110.638 32.8525 106.299C32.1435 104.553 30.9631 101.633 30.1747 101.062C29.3961 100.502 26.3216 100.294 24.4819 100.17C20.0537 99.8723 14.5443 99.5052 11.4152 95.3646C8.20182 91.1147 9.61516 85.6997 10.7508 81.3507C11.212 79.5804 11.9904 76.615 11.693 75.7025C11.3955 74.7851 9.15413 72.9255 7.67633 71.6908C4.25971 68.8594 0 65.3237 0 60.003C0 54.6473 4.33893 51.072 7.83009 48.1959C9.20874 47.0603 11.5146 45.161 11.812 44.3032C12.0898 43.4057 11.3161 40.4005 10.86 38.6055C9.70446 34.088 8.3905 28.9606 11.3062 24.7851C14.2916 20.5054 19.8603 20.1435 24.3333 19.851C26.1979 19.732 29.3171 19.5287 30.0955 18.9585C30.9038 18.3732 32.0791 15.4725 32.7782 13.7418C34.5237 9.42747 36.5024 4.54313 41.352 2.89682C46.286 1.21089 50.9524 4.18617 54.6913 6.56634C56.3873 7.64732 58.9461 9.27395 60.0071 9.27395C61.0881 9.27395 63.6718 7.63748 65.3825 6.5565C69.2752 4.09687 73.6837 1.31003 78.5385 2.87197C83.4032 4.44399 85.3966 9.36325 87.1472 13.7022C87.8563 15.4476 89.0415 18.3735 89.83 18.9437C90.6086 19.5091 93.6929 19.7123 95.5328 19.8363C99.9761 20.1337 105.51 20.5057 108.58 24.696C111.669 28.9109 110.29 34.2715 109.185 38.5809C108.723 40.3712 107.955 43.3664 108.252 44.2985C108.55 45.211 110.885 47.1498 112.284 48.3053C115.72 51.1468 120 54.6874 120 60.0084C120 65.3641 115.661 68.9443 112.17 71.8204C110.796 72.956 108.485 74.8552 108.188 75.7131C107.915 76.6056 108.669 79.576 109.12 81.3564C110.276 85.9135 111.585 91.0857 108.535 95.2659C105.505 99.4265 100.229 99.7785 95.5774 100.096C93.7128 100.22 90.5936 100.428 89.8052 101.008C89.0019 101.599 87.8314 104.499 87.1273 106.23C85.3769 110.539 83.4032 115.424 78.5533 117.08C73.6193 118.761 68.9827 115.806 65.2635 113.44C63.5874 112.369 61.0534 110.753 59.9971 110.753C58.9161 110.753 56.3325 112.389 54.6217 113.47C51.5227 115.418 48.0863 117.595 44.3521 117.595ZM44.3521 12.3233C43.8712 12.7646 42.681 15.7052 41.972 17.4608C40.5289 21.0213 39.0412 24.7056 35.9569 26.962C32.8478 29.2381 28.8459 29.5009 24.9779 29.7538C23.1382 29.8679 20.0537 30.0711 19.295 30.6165C19.2106 31.2313 19.9991 34.306 20.4653 36.1457C21.4272 39.9143 22.429 43.8072 21.2142 47.4421C20.034 50.9876 17.0339 53.4571 14.1329 55.8473C12.7346 56.9977 10.136 59.1449 9.90791 60.0773C10.1212 60.8409 12.6551 62.9485 14.0188 64.0792C16.8007 66.3949 19.9496 69.0083 21.1347 72.663C22.32 76.3227 21.2735 80.3344 20.3511 83.8701C19.885 85.6554 19.1014 88.6556 19.4089 89.5331C20.0188 89.9447 23.3513 90.1678 25.1464 90.2869C28.9549 90.5398 32.8921 90.8025 35.9766 93.0243C39.0857 95.2657 40.5933 98.9898 42.0512 102.59C42.7553 104.331 43.9307 107.236 44.6993 107.787C45.2447 107.668 47.7985 106.042 49.3258 105.079C52.4797 103.086 56.05 100.825 60.0071 100.825C63.9544 100.825 67.4901 103.081 70.6093 105.064C72.1218 106.026 74.6459 107.648 75.5482 107.648C76.0341 107.202 77.2243 104.261 77.9336 102.506C79.3767 98.9401 80.8692 95.2608 83.9486 93.0043C87.0577 90.7233 91.2333 90.4456 94.9176 90.1976C96.7772 90.0785 99.8863 89.8652 100.64 89.3001C100.744 88.6703 99.9707 85.6205 99.5094 83.7958C98.5622 80.0569 97.5804 76.1889 98.7854 72.5789C99.9655 69.0334 102.966 66.5587 105.867 64.1736C107.225 63.0479 109.734 60.9801 110.072 60.0131C109.744 59.0758 107.295 57.0476 105.971 55.9516C103.174 53.6409 100.005 51.0176 98.825 47.3629C97.6397 43.6933 98.6712 39.6715 99.5788 36.1211C100.045 34.3259 100.814 31.3159 100.511 30.4382C99.921 30.0763 96.7622 29.8679 94.8728 29.739C91.0594 29.4861 87.117 29.2234 84.0278 26.9967C80.9187 24.7553 79.4111 21.0312 77.9533 17.431C77.2492 15.6954 76.074 12.7895 75.3052 12.2392C74.7647 12.3631 72.2059 13.9846 70.6785 14.9517C67.5246 16.9451 63.9542 19.2065 59.9971 19.2065C56.0498 19.2065 52.4942 16.9402 49.3553 14.9468C47.8334 13.9546 45.2646 12.3233 44.3521 12.3233Z" fill="#32A25A"/>
<path d="M53.4072 80.6796C52.093 80.6796 50.8337 80.1639 49.9013 79.2266L36.6612 65.9865C34.7223 64.0477 34.7223 60.9135 36.6612 58.9746C38.6 57.0358 41.7342 57.0358 43.673 58.9746L53.08 68.3767L75.1867 41.941C76.9423 39.8484 80.0612 39.5556 82.1737 41.321C84.2764 43.0766 84.549 46.2056 82.7986 48.308L57.2108 78.9044C56.7692 79.4326 56.2222 79.8628 55.6048 80.1676C54.9875 80.4725 54.3133 80.6451 53.6254 80.6747C53.5561 80.6796 53.4815 80.6796 53.4072 80.6796Z" fill="#32A25A"/>
</svg>
