<svg width="23" height="20" viewBox="0 0 23 20" fill="none" xmlns="http://www.w3.org/2000/svg">
<path fill-rule="evenodd" clip-rule="evenodd" d="M0.5 1C0.5 0.447715 0.947715 0 1.5 0H2.93845C4.31505 0 5.515 0.936892 5.84887 2.27239L6.03078 3H19.1027C21.3917 3 22.8336 5.45864 21.7234 7.45693L18.9457 12.4569C18.4166 13.4093 17.4127 14 16.3232 14H9.06155C7.68495 14 6.485 13.0631 6.15113 11.7276L3.90859 2.75746C3.7973 2.3123 3.39732 2 2.93845 2H1.5C0.947715 2 0.5 1.55228 0.5 1ZM6.53078 5L8.09141 11.2425C8.2027 11.6877 8.60268 12 9.06155 12H16.3232C16.6864 12 17.021 11.8031 17.1973 11.4856L19.9751 6.48564C20.3461 5.81781 19.8637 5 19.1027 5H6.53078Z" fill="#666666"/>
<path d="M9.5 18C9.5 19.1046 8.60457 20 7.5 20C6.39543 20 5.5 19.1046 5.5 18C5.5 16.8954 6.39543 16 7.5 16C8.60457 16 9.5 16.8954 9.5 18Z" fill="#666666"/>
<path d="M19.5 18C19.5 19.1046 18.6046 20 17.5 20C16.3954 20 15.5 19.1046 15.5 18C15.5 16.8954 16.3954 16 17.5 16C18.6046 16 19.5 16.8954 19.5 18Z" fill="#666666"/>
</svg>
