<svg width="17" height="16" viewBox="0 0 17 16" fill="none" xmlns="http://www.w3.org/2000/svg">
<g clip-path="url(#clip0_586_8941)">
<path d="M10.72 2.72031C10.72 1.39695 9.64336 0.320312 8.32 0.320312C6.99664 0.320312 5.92 1.39695 5.92 2.72031C5.92 4.04367 6.99664 5.12031 8.32 5.12031C9.64336 5.12031 10.72 4.04367 10.72 2.72031ZM9.76 2.72031C9.76 3.51439 9.11408 4.16031 8.32 4.16031C7.52592 4.16031 6.88 3.51439 6.88 2.72031C6.88 1.92623 7.52592 1.28031 8.32 1.28031C9.11408 1.28031 9.76 1.92623 9.76 2.72031ZM12.64 8.48031V10.4003C12.64 11.1944 11.9941 11.8403 11.2 11.8403H10.72V14.2403C10.72 15.0344 10.0741 15.6803 9.28 15.6803C8.91152 15.6803 8.57504 15.5411 8.32 15.3128C8.06496 15.5411 7.72848 15.6803 7.36 15.6803C6.56592 15.6803 5.92 15.0344 5.92 14.2403V11.8403H5.44C4.64592 11.8403 4 11.1944 4 10.4003V8.48031C4 7.15695 5.07664 6.08031 6.4 6.08031H10.24C11.5634 6.08031 12.64 7.15695 12.64 8.48031ZM11.68 8.48031C11.68 7.68623 11.0341 7.04031 10.24 7.04031H6.4C5.60592 7.04031 4.96 7.68623 4.96 8.48031V10.4003C4.96 10.6651 5.17536 10.8803 5.44 10.8803H5.92V9.44031C5.92 9.17503 6.13488 8.96031 6.4 8.96031C6.66512 8.96031 6.88 9.17503 6.88 9.44031V14.2403C6.88 14.5051 7.09536 14.7203 7.36 14.7203C7.62464 14.7203 7.84 14.5051 7.84 14.2403V11.3603C7.84 11.095 8.05488 10.8803 8.32 10.8803C8.58512 10.8803 8.8 11.095 8.8 11.3603V14.2403C8.8 14.5051 9.01536 14.7203 9.28 14.7203C9.54464 14.7203 9.76 14.5051 9.76 14.2403V9.44031C9.76 9.17503 9.97488 8.96031 10.24 8.96031C10.5051 8.96031 10.72 9.17503 10.72 9.44031V10.8803H11.2C11.4646 10.8803 11.68 10.6651 11.68 10.4003V8.48031Z" fill="#9B9B9B" stroke="#9B9B9B" stroke-width="0.6"/>
</g>
<defs>
<clipPath id="clip0_586_8941">
<rect width="16" height="16" fill="white" transform="translate(0.5)"/>
</clipPath>
</defs>
</svg>
