<svg width="14" height="14" viewBox="0 0 14 14" fill="none" xmlns="http://www.w3.org/2000/svg">
<path d="M13.3631 13.3636C13.7536 12.9731 13.7536 12.3399 13.3631 11.9494L8.41403 7.00031L13.3645 2.04988C13.755 1.65936 13.755 1.02619 13.3645 0.635669C12.9739 0.245145 12.3408 0.245145 11.9502 0.635668L6.99982 5.58609L2.04939 0.635666C1.65887 0.245143 1.0257 0.245142 0.635178 0.635667C0.244654 1.02619 0.244654 1.65936 0.635178 2.04988L5.58561 7.00031L0.636536 11.9494C0.246012 12.3399 0.246013 12.9731 0.636537 13.3636C1.02706 13.7541 1.66023 13.7541 2.05075 13.3636L6.99982 8.41452L11.9489 13.3636C12.3394 13.7541 12.9726 13.7541 13.3631 13.3636Z" fill="#040921"/>
</svg>
