<svg width="23" height="36" viewBox="0 0 23 36" fill="none" xmlns="http://www.w3.org/2000/svg">
<path fill-rule="evenodd" clip-rule="evenodd" d="M22.1001 30V33.6C22.1001 34.9255 21.0256 36 19.7001 36H2.90003C1.57454 36 0.50002 34.9255 0.50002 33.6V30C0.503228 27.9494 1.08992 25.9421 2.19154 24.2126C3.29315 22.483 4.86421 21.1027 6.72115 20.2329C5.0669 19.1595 3.84386 17.5375 3.26693 15.6519C2.69 13.7662 2.7961 11.7375 3.56659 9.92232C2.652 9.51806 1.87496 8.85617 1.33038 8.01753C0.785802 7.17888 0.497265 6.19978 0.50002 5.19984C0.499349 3.8538 1.02093 2.56001 1.95496 1.59079C2.88899 0.621577 4.16262 0.0525389 5.50776 0.00345944C6.8529 -0.04562 8.16461 0.429088 9.16679 1.32766C10.169 2.22623 10.7835 3.47857 10.8809 4.82107C12.7244 4.72605 14.5477 5.24182 16.0682 6.28844C17.5888 7.33507 18.7216 8.85407 19.291 10.61C19.8605 12.3659 19.8348 14.2606 19.2179 16.0004C18.601 17.7402 17.4274 19.2279 15.879 20.2329C17.7359 21.1027 19.307 22.483 20.4086 24.2126C21.5102 25.9421 22.0969 27.9494 22.1001 30ZM5.40385 14.2882C6.61823 14.0958 7.77562 13.6393 8.79438 12.9509C9.81315 12.2625 10.6685 11.359 11.3001 10.3041C11.9317 11.359 12.787 12.2625 13.8058 12.9509C14.8245 13.6392 15.9819 14.0957 17.1963 14.2881C16.943 15.6671 16.2143 16.9137 15.1371 17.8111C14.0598 18.7084 12.7021 19.1999 11.3001 19.1999C9.89802 19.1999 8.54032 18.7084 7.46307 17.8111C6.38582 16.9137 5.65718 15.6671 5.40385 14.2882ZM14.2632 10.2368C15.0539 11.0276 16.0496 11.5821 17.1383 11.8381C16.8824 10.7494 16.3278 9.75371 15.537 8.96292C14.7462 8.17214 13.7506 7.6176 12.6619 7.36166C12.9178 8.45032 13.4724 9.44601 14.2632 10.2368ZM9.93826 7.36166C9.68231 8.45032 9.12778 9.44601 8.337 10.2368C7.54621 11.0276 6.55052 11.5821 5.46186 11.8381C5.7178 10.7494 6.27234 9.75371 7.06312 8.96292C7.85391 8.17214 8.8496 7.6176 9.93826 7.36166ZM3.11663 4.11787C2.97331 4.46057 2.89967 4.82838 2.90003 5.19984C2.89968 5.78906 3.08768 6.36296 3.43658 6.83778C3.78549 7.31259 4.27703 7.66345 4.83945 7.83913C5.80684 6.67809 7.06864 5.79855 8.49269 5.29264C8.50537 4.92139 8.44398 4.55135 8.3121 4.20408C8.18023 3.85682 7.9805 3.53931 7.72459 3.27007C7.46868 3.00083 7.1617 2.78526 6.82157 2.63594C6.48145 2.48662 6.11499 2.40654 5.74358 2.40038C5.37217 2.39422 5.00326 2.46209 4.65837 2.60004C4.31348 2.738 3.99951 2.94327 3.73481 3.20387C3.4701 3.46447 3.25996 3.77518 3.11663 4.11787ZM14.8197 22.3832L14.2836 25.5999H8.31652L7.78043 22.3832C8.88206 21.8673 10.0836 21.5999 11.3001 21.5999C12.5165 21.5999 13.7181 21.8673 14.8197 22.3832ZM3.6036 26.6456C3.14019 27.7032 2.90065 28.8453 2.90003 30V33.6H5.41401L6.09032 26.8394L5.59272 23.8544C4.74424 24.6376 4.067 25.5879 3.6036 26.6456ZM8.38614 28H14.214L14.774 33.6H7.82613L8.38614 28ZM19.7001 33.6V30C19.6995 28.8453 19.46 27.7032 18.9966 26.6456C18.5332 25.5879 17.8559 24.6376 17.0075 23.8544L16.5099 26.8394L17.1861 33.6H19.7001Z" fill="#FF0000"/>
</svg>
