<svg width="17" height="17" viewBox="0 0 17 17" fill="none" xmlns="http://www.w3.org/2000/svg">
<g clip-path="url(#clip0_556_9638)">
<path d="M13.1333 6.58031V8.02031H13.6133C13.8784 8.02031 14.0933 8.23503 14.0933 8.50031C14.0933 8.76559 13.8784 8.98031 13.6133 8.98031H13.1333V10.4203H14.5733C14.8384 10.4203 15.0533 10.635 15.0533 10.9003C15.0533 11.1656 14.8384 11.3803 14.5733 11.3803H13.1333V12.8203H13.6133C13.8784 12.8203 14.0933 13.035 14.0933 13.3003C14.0933 13.5656 13.8784 13.7803 13.6133 13.7803H13.1333V15.2203H14.5733C14.8384 15.2203 15.0533 15.435 15.0533 15.7003C15.0533 15.9656 14.8384 16.1803 14.5733 16.1803H12.6533C12.3882 16.1803 12.1733 15.9656 12.1733 15.7003V1.30031C12.1733 1.03503 12.3882 0.820312 12.6533 0.820312H14.5733C14.8384 0.820312 15.0533 1.03503 15.0533 1.30031C15.0533 1.56559 14.8384 1.78031 14.5733 1.78031H13.1333V3.22031H13.6133C13.8784 3.22031 14.0933 3.43503 14.0933 3.70031C14.0933 3.96559 13.8784 4.18031 13.6133 4.18031H13.1333V5.62031H14.5733C14.8384 5.62031 15.0533 5.83503 15.0533 6.10031C15.0533 6.36559 14.8384 6.58031 14.5733 6.58031H13.1333ZM10.2533 8.98031V10.9003C10.2533 11.6944 9.60736 12.3403 8.81328 12.3403H8.33328V14.7403C8.33328 15.5344 7.68736 16.1803 6.89328 16.1803C6.5248 16.1803 6.18832 16.0411 5.93328 15.8128C5.67824 16.0411 5.34176 16.1803 4.97328 16.1803C4.1792 16.1803 3.53328 15.5344 3.53328 14.7403V12.3403H3.05328C2.2592 12.3403 1.61328 11.6944 1.61328 10.9003V8.98031C1.61328 7.65695 2.68992 6.58031 4.01328 6.58031H7.85328C9.17664 6.58031 10.2533 7.65695 10.2533 8.98031ZM9.29328 8.98031C9.29328 8.18623 8.64736 7.54031 7.85328 7.54031H4.01328C3.2192 7.54031 2.57328 8.18623 2.57328 8.98031V10.9003C2.57328 11.1651 2.78864 11.3803 3.05328 11.3803H3.53328V9.94031C3.53328 9.67503 3.74816 9.46031 4.01328 9.46031C4.2784 9.46031 4.49328 9.67503 4.49328 9.94031V14.7403C4.49328 15.0051 4.70864 15.2203 4.97328 15.2203C5.23792 15.2203 5.45328 15.0051 5.45328 14.7403V11.8603C5.45328 11.595 5.66816 11.3803 5.93328 11.3803C6.1984 11.3803 6.41328 11.595 6.41328 11.8603V14.7403C6.41328 15.0051 6.62864 15.2203 6.89328 15.2203C7.15792 15.2203 7.37328 15.0051 7.37328 14.7403V9.94031C7.37328 9.67503 7.58816 9.46031 7.85328 9.46031C8.1184 9.46031 8.33328 9.67503 8.33328 9.94031V11.3803H8.81328C9.07792 11.3803 9.29328 11.1651 9.29328 10.9003V8.98031Z" fill="#666666" stroke="#666666" stroke-width="0.3"/>
<path fill-rule="evenodd" clip-rule="evenodd" d="M8.13301 3.22031C8.13301 1.89695 7.05637 0.820312 5.73301 0.820312C4.40965 0.820312 3.33301 1.89695 3.33301 3.22031C3.33301 4.54367 4.40965 5.62031 5.73301 5.62031C7.05637 5.62031 8.13301 4.54367 8.13301 3.22031ZM5.73301 4.66031C6.52709 4.66031 7.17301 4.01439 7.17301 3.22031C7.17301 2.42623 6.52709 1.78031 5.73301 1.78031C4.93893 1.78031 4.29301 2.42623 4.29301 3.22031C4.29301 4.01439 4.93893 4.66031 5.73301 4.66031Z" fill="#FF0000" stroke="#FF0000" stroke-width="0.3"/>
</g>
<defs>
<clipPath id="clip0_556_9638">
<rect width="16" height="16" fill="white" transform="translate(0.333008 0.5)"/>
</clipPath>
</defs>
</svg>
