<svg width="16" height="16" viewBox="0 0 16 16" fill="none" xmlns="http://www.w3.org/2000/svg">
<path d="M12.4673 6.08031V7.52031H12.9473C13.2124 7.52031 13.4273 7.73503 13.4273 8.00031C13.4273 8.26559 13.2124 8.48031 12.9473 8.48031H12.4673V9.92031H13.9073C14.1724 9.92031 14.3873 10.135 14.3873 10.4003C14.3873 10.6656 14.1724 10.8803 13.9073 10.8803H12.4673V12.3203H12.9473C13.2124 12.3203 13.4273 12.535 13.4273 12.8003C13.4273 13.0656 13.2124 13.2803 12.9473 13.2803H12.4673V14.7203H13.9073C14.1724 14.7203 14.3873 14.935 14.3873 15.2003C14.3873 15.4656 14.1724 15.6803 13.9073 15.6803H11.9873C11.7221 15.6803 11.5073 15.4656 11.5073 15.2003V0.800312C11.5073 0.535032 11.7221 0.320312 11.9873 0.320312H13.9073C14.1724 0.320312 14.3873 0.535032 14.3873 0.800312C14.3873 1.06559 14.1724 1.28031 13.9073 1.28031H12.4673V2.72031H12.9473C13.2124 2.72031 13.4273 2.93503 13.4273 3.20031C13.4273 3.46559 13.2124 3.68031 12.9473 3.68031H12.4673V5.12031H13.9073C14.1724 5.12031 14.3873 5.33503 14.3873 5.60031C14.3873 5.86559 14.1724 6.08031 13.9073 6.08031H12.4673ZM7.66727 2.72031C7.66727 1.39695 6.59063 0.320312 5.26727 0.320312C3.94391 0.320312 2.86727 1.39695 2.86727 2.72031C2.86727 4.04367 3.94391 5.12031 5.26727 5.12031C6.59063 5.12031 7.66727 4.04367 7.66727 2.72031ZM6.70727 2.72031C6.70727 3.51439 6.06135 4.16031 5.26727 4.16031C4.47319 4.16031 3.82727 3.51439 3.82727 2.72031C3.82727 1.92623 4.47319 1.28031 5.26727 1.28031C6.06135 1.28031 6.70727 1.92623 6.70727 2.72031ZM9.58727 8.48031V10.4003C9.58727 11.1944 8.94135 11.8403 8.14727 11.8403H7.66727V14.2403C7.66727 15.0344 7.02135 15.6803 6.22727 15.6803C5.85879 15.6803 5.52231 15.5411 5.26727 15.3128C5.01223 15.5411 4.67575 15.6803 4.30727 15.6803C3.51319 15.6803 2.86727 15.0344 2.86727 14.2403V11.8403H2.38727C1.59319 11.8403 0.947266 11.1944 0.947266 10.4003V8.48031C0.947266 7.15695 2.02391 6.08031 3.34727 6.08031H7.18727C8.51063 6.08031 9.58727 7.15695 9.58727 8.48031ZM8.62727 8.48031C8.62727 7.68623 7.98135 7.04031 7.18727 7.04031H3.34727C2.55319 7.04031 1.90727 7.68623 1.90727 8.48031V10.4003C1.90727 10.6651 2.12263 10.8803 2.38727 10.8803H2.86727V9.44031C2.86727 9.17503 3.08215 8.96031 3.34727 8.96031C3.61239 8.96031 3.82727 9.17503 3.82727 9.44031V14.2403C3.82727 14.5051 4.04263 14.7203 4.30727 14.7203C4.57191 14.7203 4.78727 14.5051 4.78727 14.2403V11.3603C4.78727 11.095 5.00215 10.8803 5.26727 10.8803C5.53239 10.8803 5.74727 11.095 5.74727 11.3603V14.2403C5.74727 14.5051 5.96263 14.7203 6.22727 14.7203C6.49191 14.7203 6.70727 14.5051 6.70727 14.2403V9.44031C6.70727 9.17503 6.92215 8.96031 7.18727 8.96031C7.45239 8.96031 7.66727 9.17503 7.66727 9.44031V10.8803H8.14727C8.41191 10.8803 8.62727 10.6651 8.62727 10.4003V8.48031Z" fill="#9B9B9B" stroke="#9B9B9B" stroke-width="0.6"/>
</svg>
