<svg width="17" height="18" viewBox="0 0 17 18" fill="none" xmlns="http://www.w3.org/2000/svg">
<path d="M8.5 1.9375C9.08156 1.9375 9.55469 2.41062 9.55469 2.99219C9.55469 3.57375 9.08156 4.04688 8.5 4.04688C7.91844 4.04688 7.44531 3.57375 7.44531 2.99219C7.44531 2.41062 7.91844 1.9375 8.5 1.9375ZM8.5 4.98438C9.5985 4.98438 10.4922 4.09069 10.4922 2.99219C10.4922 1.89369 9.5985 1 8.5 1C7.4015 1 6.50781 1.89369 6.50781 2.99219C6.50781 4.09069 7.4015 4.98438 8.5 4.98438Z" fill="#9B9B9B" stroke="#9B9B9B" stroke-width="0.5"/>
<path d="M9.78906 11.8594H7.21094V8.22656C7.21094 7.51578 7.78922 6.9375 8.5 6.9375C9.21078 6.9375 9.78906 7.51578 9.78906 8.22656V11.8594ZM8.5 6C7.27225 6 6.27344 6.99881 6.27344 8.22656V17H7.21094V12.7969H9.78906V17H10.7266V8.22656C10.7266 6.99881 9.72775 6 8.5 6Z" fill="#9B9B9B" stroke="#9B9B9B" stroke-width="0.5"/>
<path d="M2.72656 7.10156C3.30813 7.10156 3.78125 7.57469 3.78125 8.15625C3.78125 8.73781 3.30813 9.21094 2.72656 9.21094C2.145 9.21094 1.67188 8.73781 1.67188 8.15625C1.67188 7.57469 2.145 7.10156 2.72656 7.10156ZM2.72656 10.1484C3.82506 10.1484 4.71875 9.25475 4.71875 8.15625C4.71875 7.05775 3.82506 6.16406 2.72656 6.16406C1.62806 6.16406 0.734375 7.05775 0.734375 8.15625C0.734375 9.25475 1.62806 10.1484 2.72656 10.1484Z" fill="#9B9B9B" stroke="#9B9B9B" stroke-width="0.5"/>
<path d="M4.01562 14.4844H1.4375V13.3906C1.4375 12.6798 2.01578 12.1016 2.72656 12.1016C3.43734 12.1016 4.01562 12.6798 4.01562 13.3906V14.4844ZM2.72656 11.1641C1.49881 11.1641 0.5 12.1629 0.5 13.3906V17H1.4375V15.4219H4.01562V17H4.95312V13.3906C4.95312 12.1629 3.95431 11.1641 2.72656 11.1641Z" fill="#9B9B9B" stroke="#9B9B9B" stroke-width="0.5"/>
<path d="M14.2734 3.78125C14.855 3.78125 15.3281 4.25437 15.3281 4.83594C15.3281 5.4175 14.855 5.89062 14.2734 5.89062C13.6919 5.89062 13.2188 5.4175 13.2188 4.83594C13.2188 4.25437 13.6919 3.78125 14.2734 3.78125ZM14.2734 6.82812C15.3719 6.82812 16.2656 5.93444 16.2656 4.83594C16.2656 3.73744 15.3719 2.84375 14.2734 2.84375C13.1749 2.84375 12.2812 3.73744 12.2812 4.83594C12.2812 5.93444 13.1749 6.82812 14.2734 6.82812Z" fill="#9B9B9B" stroke="#9B9B9B" stroke-width="0.5"/>
<path d="M15.5625 13.7031H12.9844V10.0703C12.9844 9.35953 13.5626 8.78125 14.2734 8.78125C14.9842 8.78125 15.5625 9.35953 15.5625 10.0703V13.7031ZM14.2734 7.84375C13.0457 7.84375 12.0469 8.84256 12.0469 10.0703V17H12.9844V14.6406H15.5625V17H16.5V10.0703C16.5 8.84256 15.5012 7.84375 14.2734 7.84375Z" fill="#9B9B9B" stroke="#9B9B9B" stroke-width="0.5"/>
</svg>
