<svg width="17" height="16" viewBox="0 0 17 16" fill="none" xmlns="http://www.w3.org/2000/svg">
<path d="M12.1006 8C10.9008 8 9.82719 8.53059 9.09418 9.36719L6.5552 7.80457C6.6852 7.44777 6.76738 7.06816 6.76738 6.66656C6.76738 6.40375 6.72977 6.15176 6.67238 5.90617L10.0474 4.34879C10.5362 4.9452 11.2692 5.3332 12.1008 5.3332C13.5728 5.3332 14.7674 4.13922 14.7674 2.6666C14.7674 1.19398 13.5726 0 12.1006 0C10.6274 0 9.43398 1.19398 9.43398 2.6666C9.43398 2.82922 9.45418 2.98699 9.48137 3.14059L6.11035 4.6966C5.50297 3.87379 4.53477 3.3334 3.43395 3.3334C1.59277 3.3334 0.100586 4.82539 0.100586 6.6666C0.100586 8.50781 1.59277 10 3.43398 10C4.39219 10 5.25039 9.5898 5.8584 8.94141L8.39359 10.5014C8.20598 10.9648 8.10059 11.4694 8.10059 12C8.10059 14.2096 9.89098 16 12.1006 16C14.309 16 16.1006 14.2096 16.1006 12C16.1006 9.79039 14.309 8 12.1006 8ZM12.1006 1.3334C12.8356 1.3334 13.434 1.93102 13.434 2.6668C13.434 3.40238 12.8356 4 12.1006 4C11.3656 4 10.7672 3.40238 10.7672 2.6666C10.7672 1.93102 11.3656 1.3334 12.1006 1.3334ZM3.43398 8.6666C2.33098 8.6666 1.43398 7.76961 1.43398 6.6666C1.43398 5.56379 2.33098 4.6666 3.43398 4.6666C4.5368 4.6666 5.43398 5.56379 5.43398 6.6666C5.43398 7.76961 4.5368 8.6666 3.43398 8.6666ZM12.1006 14.6666C10.6298 14.6666 9.43398 13.4708 9.43398 12C9.43398 10.5292 10.6298 9.3334 12.1006 9.3334C13.5714 9.3334 14.7672 10.5292 14.7672 12C14.7672 13.4708 13.5714 14.6666 12.1006 14.6666Z" fill="#666666"/>
</svg>
