<svg width="14" height="14" viewBox="0 0 14 14" fill="none" xmlns="http://www.w3.org/2000/svg">
<path fill-rule="evenodd" clip-rule="evenodd" d="M8.04837 0.480698C7.92202 0.330589 7.76231 0.209515 7.58092 0.126341C7.39954 0.0431674 7.20107 0 7.00007 0C6.79906 0 6.6006 0.0431674 6.41921 0.126341C6.23783 0.209515 6.07811 0.330589 5.95177 0.480698L5.6768 0.806835C5.51272 1.00173 5.29323 1.1467 5.04499 1.22412C4.79675 1.30154 4.53043 1.30809 4.27839 1.24298L3.85651 1.13427C3.66242 1.08412 3.45912 1.07629 3.26147 1.11134C3.06383 1.14639 2.87685 1.22344 2.71423 1.33684C2.55161 1.45025 2.41746 1.59714 2.3216 1.76676C2.22574 1.93638 2.1706 2.12443 2.16022 2.31716L2.13798 2.73648C2.12445 2.98661 2.03562 3.22761 1.88226 3.43022C1.7289 3.63284 1.5176 3.78837 1.274 3.87796L0.865594 4.02808C0.677962 4.09712 0.508779 4.20555 0.370423 4.34547C0.232067 4.48538 0.128041 4.65322 0.065955 4.83671C0.00386948 5.02021 -0.014704 5.2147 0.0115936 5.40598C0.0378913 5.59725 0.108395 5.78046 0.217945 5.9422L0.455843 6.29422C0.598104 6.50422 0.673829 6.74936 0.673829 6.99988C0.673829 7.2504 0.598104 7.49553 0.455843 7.70554L0.217945 8.05756C0.108395 8.21929 0.0378913 8.4025 0.0115936 8.59378C-0.014704 8.78505 0.00386948 8.97955 0.065955 9.16304C0.128041 9.34653 0.232067 9.51438 0.370423 9.65429C0.508779 9.7942 0.677962 9.90264 0.865594 9.97167L1.274 10.1218C1.5177 10.2114 1.72907 10.3671 1.88244 10.5698C2.03581 10.7725 2.12458 11.0137 2.13798 11.2639L2.16022 11.6832C2.1706 11.876 2.22574 12.064 2.3216 12.2336C2.41746 12.4033 2.55161 12.5502 2.71423 12.6636C2.87685 12.777 3.06383 12.854 3.26147 12.8891C3.45912 12.9241 3.66242 12.9163 3.85651 12.8661L4.27839 12.7574C4.53043 12.6923 4.79675 12.6989 5.04499 12.7763C5.29323 12.8537 5.51272 12.9987 5.6768 13.1936L5.95177 13.5197C6.07812 13.6697 6.2378 13.7907 6.41912 13.8738C6.60044 13.9569 6.79881 14 6.99973 14C7.20065 14 7.39902 13.9569 7.58034 13.8738C7.76166 13.7907 7.92134 13.6697 8.0477 13.5197L8.32266 13.1936C8.48674 12.9987 8.70623 12.8537 8.95447 12.7763C9.20271 12.6989 9.46903 12.6923 9.72107 12.7574L10.143 12.8661C10.337 12.9163 10.5403 12.9241 10.738 12.8891C10.9356 12.854 11.1226 12.777 11.2852 12.6636C11.4479 12.5502 11.582 12.4033 11.6779 12.2336C11.7737 12.064 11.8289 11.876 11.8392 11.6832L11.8615 11.2639C11.8749 11.0136 11.9638 10.7724 12.1173 10.5697C12.2708 10.3669 12.4823 10.2113 12.7261 10.1218L13.1339 9.97167C13.3216 9.90271 13.4908 9.79432 13.6292 9.65443C13.7677 9.51455 13.8718 9.34672 13.9339 9.16322C13.9961 8.97972 14.0147 8.7852 13.9884 8.59389C13.9622 8.40259 13.8917 8.21934 13.7822 8.05756L13.5436 7.70554C13.4014 7.49553 13.3256 7.2504 13.3256 6.99988C13.3256 6.74936 13.4014 6.50422 13.5436 6.29422L13.7822 5.9422C13.8917 5.78042 13.9622 5.59717 13.9884 5.40586C14.0147 5.21456 13.9961 5.02003 13.9339 4.83653C13.8718 4.65303 13.7677 4.4852 13.6292 4.34532C13.4908 4.20544 13.3216 4.09705 13.1339 4.02808L12.7261 3.87796C12.4823 3.78843 12.2708 3.63284 12.1173 3.43009C11.9638 3.22734 11.8749 2.98615 11.8615 2.73583L11.8392 2.31651C11.8288 2.12377 11.7736 1.93571 11.6776 1.76612C11.5817 1.59652 11.4475 1.44967 11.2848 1.33632C11.1221 1.22298 10.935 1.146 10.7374 1.11104C10.5397 1.07608 10.3364 1.08402 10.1423 1.13427L9.7204 1.24298C9.46835 1.30809 9.20204 1.30154 8.9538 1.22412C8.70556 1.1467 8.48607 1.00173 8.32199 0.806835L8.04702 0.480698H8.04837ZM3.08351 6.4767C3.27299 6.29464 3.53002 6.1923 3.79807 6.19218C4.06613 6.19206 4.32326 6.29417 4.51292 6.47605L5.82237 7.73142L9.48587 4.21121C9.67542 4.02912 9.93254 3.92679 10.2007 3.92673C10.3334 3.9267 10.4649 3.95178 10.5876 4.00054C10.7102 4.04929 10.8217 4.12077 10.9156 4.21089C11.0095 4.30101 11.084 4.408 11.1348 4.52577C11.1857 4.64353 11.2119 4.76975 11.2119 4.89723C11.2119 5.02471 11.1858 5.15094 11.135 5.26873C11.0843 5.38651 11.0098 5.49354 10.916 5.58371L6.53741 9.78984C6.34787 9.97161 6.09093 10.0737 5.82304 10.0737C5.55515 10.0737 5.29822 9.97161 5.10867 9.78984L3.08418 7.84855C2.89487 7.66655 2.78854 7.41984 2.78854 7.16262C2.78854 6.9054 2.8942 6.65869 3.08351 6.4767Z" fill="#5AD235"/>
</svg>
