<svg width="17" height="17" viewBox="0 0 17 17" fill="none" xmlns="http://www.w3.org/2000/svg">
<g clip-path="url(#clip0_556_9669)">
<path d="M12.7802 3.65717C13.7418 3.15061 14.5225 2.4232 15.0377 1.55361C15.1249 1.4063 15.1265 1.22345 15.0417 1.07467C14.9569 0.925859 14.7988 0.833984 14.6275 0.833984H1.87118C1.69993 0.833984 1.54184 0.925859 1.45706 1.07464C1.37227 1.22345 1.37381 1.4063 1.46109 1.55358C1.97627 2.42317 2.7569 3.15061 3.71852 3.65714C4.54427 4.09214 5.47527 4.34892 6.43449 4.40942V5.63398H4.18177C3.33949 5.63398 2.62715 6.26442 2.52477 7.10042L1.56215 14.9617C1.50406 15.436 1.6524 15.9131 1.96906 16.271C2.28571 16.6288 2.74137 16.834 3.21915 16.834H13.2798C13.7576 16.834 14.2133 16.6288 14.5299 16.271C14.8466 15.9132 14.9949 15.436 14.9368 14.9617L13.9742 7.10048C13.8719 6.26445 13.1595 5.63405 12.3172 5.63405H10.0642V4.40948C11.0234 4.34892 11.9545 4.09214 12.7802 3.65717ZM12.3172 6.5873C12.6786 6.5873 12.9841 6.8577 13.028 7.21636L13.9906 15.0776C14.0159 15.284 13.9539 15.4835 13.8161 15.6392C13.6782 15.795 13.4878 15.8807 13.2798 15.8807H3.21912C3.01115 15.8807 2.82071 15.795 2.6829 15.6392C2.54506 15.4835 2.48306 15.284 2.50834 15.0776L3.47093 7.21636C3.51484 6.85777 3.82043 6.58733 4.18174 6.58733H12.3172V6.5873ZM7.38774 5.63402V4.42364H9.11096V5.63402H7.38774ZM9.62309 3.47036H6.87562C5.25949 3.47036 3.77677 2.8418 2.81509 1.7873H13.6836C12.7219 2.84177 11.2392 3.47036 9.62309 3.47036Z" fill="#666666" stroke="#666666" stroke-width="0.3"/>
<path d="M8.24991 7.32812C6.09603 7.32812 4.34375 9.08044 4.34375 11.2343C4.34375 13.3882 6.09606 15.1405 8.24991 15.1405C10.4037 15.1405 12.1561 13.3882 12.1561 11.2343C12.1561 9.08041 10.4038 7.32812 8.24991 7.32812ZM8.24991 14.1872C6.62169 14.1872 5.29706 12.8625 5.29706 11.2343C5.29706 9.60609 6.62172 8.28144 8.24991 8.28144C9.87809 8.28144 11.2027 9.60609 11.2027 11.2343C11.2027 12.8625 9.87809 14.1872 8.24991 14.1872Z" fill="#FF0000" stroke="#FF0000" stroke-width="0.3"/>
<path d="M8.58627 10.8974C8.40015 10.7113 8.09834 10.7113 7.91224 10.8974L6.76462 12.0451C6.57846 12.2312 6.57846 12.533 6.76462 12.7191C6.85768 12.8122 6.97968 12.8587 7.10165 12.8587C7.22362 12.8587 7.34562 12.8122 7.43868 12.7191L8.5863 11.5715C8.7724 11.3854 8.7724 11.0836 8.58627 10.8974Z" fill="#FF0000" stroke="#FF0000" stroke-width="0.3"/>
</g>
<defs>
<clipPath id="clip0_556_9669">
<rect width="16" height="16" fill="white" transform="translate(0.249023 0.833984)"/>
</clipPath>
</defs>
</svg>
