<svg width="18" height="17" viewBox="0 0 18 17" fill="none" xmlns="http://www.w3.org/2000/svg">
<path d="M7.22266 14.1484C10.3422 14.1484 12.8711 11.6195 12.8711 8.5C12.8711 5.38045 10.3422 2.85156 7.22266 2.85156C4.10311 2.85156 1.57422 5.38045 1.57422 8.5C1.57422 11.6195 4.10311 14.1484 7.22266 14.1484Z" stroke="#666666" stroke-width="1.3" stroke-miterlimit="10"/>
<path d="M7.22266 9.20312C7.61098 9.20312 7.92578 8.88833 7.92578 8.5C7.92578 8.11167 7.61098 7.79688 7.22266 7.79688C6.83433 7.79688 6.51953 8.11167 6.51953 8.5C6.51953 8.88833 6.83433 9.20312 7.22266 9.20312Z" stroke="#666666" stroke-width="0.6" stroke-miterlimit="10"/>
<path d="M7.22266 10.6094C8.38763 10.6094 9.33203 9.66498 9.33203 8.5C9.33203 7.33502 8.38763 6.39062 7.22266 6.39062C6.05768 6.39062 5.11328 7.33502 5.11328 8.5C5.11328 9.66498 6.05768 10.6094 7.22266 10.6094Z" stroke="#666666" stroke-width="1.3" stroke-miterlimit="10"/>
<path d="M6.57116 6.49477L5.47754 3.12891" stroke="#666666" stroke-width="1.3" stroke-miterlimit="10"/>
<path d="M5.51647 7.25988L2.65332 5.17969" stroke="#666666" stroke-width="1.3" stroke-miterlimit="10"/>
<path d="M5.11328 8.5H1.57422" stroke="#666666" stroke-width="1.3" stroke-miterlimit="10"/>
<path d="M5.51647 9.74023L2.65332 11.8204" stroke="#666666" stroke-width="1.3" stroke-miterlimit="10"/>
<path d="M6.57116 10.5059L5.47754 13.8717" stroke="#666666" stroke-width="1.3" stroke-miterlimit="10"/>
<path d="M7.87402 10.5059L8.96764 13.8717" stroke="#666666" stroke-width="1.3" stroke-miterlimit="10"/>
<path d="M8.92871 9.74023L11.7919 11.8204" stroke="#666666" stroke-width="1.3" stroke-miterlimit="10"/>
<path d="M9.33203 8.5H12.8711" stroke="#666666" stroke-width="1.3" stroke-miterlimit="10"/>
<path d="M8.92871 7.25988L11.7919 5.17969" stroke="#666666" stroke-width="1.3" stroke-miterlimit="10"/>
<path d="M7.87402 6.49477L8.96764 3.12891" stroke="#666666" stroke-width="1.3" stroke-miterlimit="10"/>
<path d="M15.1386 3.83931V13.0706L14.6011 12.5281C14.4395 12.3647 14.1753 12.3635 14.012 12.5256C13.8486 12.6872 13.8474 12.9514 14.0095 13.1147L15.2595 14.376C15.3374 14.4547 15.4436 14.4993 15.5545 14.4993C15.6653 14.4997 15.7715 14.456 15.8499 14.3772L17.0999 13.1272C17.2624 12.9647 17.2624 12.7006 17.0999 12.5381C16.9374 12.3756 16.6732 12.3756 16.5107 12.5381L15.972 13.0768V3.83264L16.5107 4.37139C16.6732 4.53389 16.9374 4.53389 17.0999 4.37139C17.2624 4.20889 17.2624 3.94473 17.0999 3.78223L15.8499 2.53223C15.7715 2.45389 15.6653 2.40973 15.5545 2.41014C15.4436 2.41056 15.3374 2.45473 15.2595 2.53348L14.0095 3.79472C13.8474 3.95806 13.8486 4.22223 14.012 4.38431C14.1753 4.54597 14.4395 4.54472 14.6011 4.38139L15.1386 3.83931Z" fill="#FF0000" stroke="#FF0000" stroke-width="0.3"/>
</svg>
