<svg width="56" height="56" viewBox="0 0 56 56" fill="none" xmlns="http://www.w3.org/2000/svg">
<g clip-path="url(#clip0_1008_27420)">
<path d="M26.7271 40.7275C25.3213 40.7275 24.1816 41.8672 24.1816 43.273V53.4548C24.1816 54.8606 25.3213 56.0003 26.7271 56.0003C28.1329 56.0003 29.2726 54.8606 29.2726 53.4548V43.273C29.2725 41.8672 28.1328 40.7275 26.7271 40.7275Z" fill="#C9A503"/>
<path d="M26.7271 0C25.3213 0 24.1816 1.13969 24.1816 2.54548V12.7273C24.1816 14.1331 25.3213 15.2728 26.7271 15.2728C28.1329 15.2728 29.2726 14.1331 29.2726 12.7273V2.54548C29.2725 1.13969 28.1328 0 26.7271 0Z" fill="#FCDD4E"/>
<path d="M39.3278 36.9995C38.3339 36.0054 36.722 36.0054 35.728 36.9995C34.7339 37.9934 34.7339 39.6052 35.728 40.5992L42.9277 47.799C43.4247 48.296 44.0761 48.5445 44.7275 48.5445C45.3789 48.5445 46.0305 48.2961 46.5275 47.799C47.5216 46.8048 47.5216 45.1932 46.5275 44.1992L39.3278 36.9995Z" fill="#E2BA04"/>
<path d="M8.90989 25.4551H3.81892C2.41313 25.4551 1.27344 26.5948 1.27344 28.0006C1.27344 29.4064 2.41313 30.546 3.81892 30.546H8.90978C10.3156 30.546 11.4553 29.4064 11.4553 28.0006C11.4553 26.5948 10.3156 25.4551 8.90989 25.4551Z" fill="#FDE782"/>
<path d="M10.5289 8.20164C9.53499 7.20753 7.92313 7.20753 6.92913 8.20164C5.93513 9.19575 5.93503 10.8075 6.92913 11.8014L14.1289 19.001C14.6259 19.498 15.2774 19.7466 15.9286 19.7466C16.5801 19.7466 17.2316 19.498 17.7284 19.001C18.7225 18.0069 18.7225 16.3952 17.7284 15.4012L10.5289 8.20164Z" fill="#FDE782"/>
<path d="M52.1824 25.4541H42.0006C40.5948 25.4541 39.4551 26.5938 39.4551 27.9996C39.4551 29.4054 40.5948 30.5451 42.0006 30.5451H52.1824C53.5882 30.5451 54.7279 29.4054 54.7279 27.9996C54.7279 26.5938 53.5882 25.4541 52.1824 25.4541Z" fill="#FBCF04"/>
<path d="M42.9277 8.20164L35.728 15.4012C34.7339 16.3951 34.7339 18.007 35.728 19.001C36.225 19.498 36.8766 19.7466 37.5278 19.7466C38.1791 19.7466 38.8308 19.498 39.3278 19.001L46.5275 11.8014C47.5216 10.8075 47.5216 9.19564 46.5275 8.20164C45.5336 7.20753 43.9218 7.20753 42.9277 8.20164Z" fill="#FBD41D"/>
</g>
<defs>
<clipPath id="clip0_1008_27420">
<rect width="56" height="56" fill="white"/>
</clipPath>
</defs>
</svg>
