<svg width="56" height="58" viewBox="0 0 56 58" fill="none" xmlns="http://www.w3.org/2000/svg">
<path d="M27.9997 7.56445C25.4282 7.56445 22.9645 8.144 20.6767 9.28702C20.1364 9.55706 19.9172 10.2139 20.1872 10.7543C20.457 11.2946 21.1139 11.5137 21.6543 11.2439C30.8393 6.46584 42.3916 13.6016 42.2176 23.9701C42.2177 31.8097 35.8396 38.1879 27.9996 38.1879C17.6327 38.3609 10.4945 26.81 15.2732 17.6252C15.5432 17.085 15.324 16.428 14.7836 16.158C14.2431 15.8879 13.5864 16.1072 13.3165 16.6476C7.80216 27.2468 16.0359 40.5752 27.9999 40.3752C49.7328 39.5513 49.7288 8.38604 27.9997 7.56445Z" fill="#666666" stroke="#666666" stroke-width="1.5"/>
<path d="M50.5391 27.5146C49.9083 25.0617 49.9089 22.8766 50.5391 20.4259C50.9408 18.613 51.3202 16.9006 50.4047 14.6899C49.4889 12.4791 48.0098 11.5366 46.4438 10.5386C45.513 9.94556 44.5506 9.33221 43.5941 8.37578C42.6376 7.41923 42.0243 6.45689 41.4314 5.52616C40.4334 3.9602 39.4908 2.48109 37.2801 1.56534C33.688 0.100557 31.484 1.94868 27.9997 1.91631C24.5155 1.94868 22.3115 0.100557 18.7193 1.56534C16.5086 2.48109 15.566 3.9602 14.568 5.52616C13.975 6.45689 13.3618 7.41923 12.4053 8.37578C11.4488 9.33232 10.4864 9.94556 9.55564 10.5386C7.9898 11.5364 6.51057 12.479 5.59482 14.6897C4.67907 16.9005 5.05859 18.6129 5.4603 20.4258C6.09092 22.8782 6.09049 25.0641 5.46019 27.5144C5.05848 29.3275 4.67907 31.0398 5.59471 33.2505C6.51047 35.4612 7.98958 36.4039 9.55564 37.4018C10.4864 37.9948 11.4488 38.6081 12.4053 39.5647C13.3618 40.5211 13.9751 41.4835 14.568 42.4143C15.4579 43.8107 16.3038 45.1381 18.0441 46.0585V55.9063C18.0441 56.2602 18.2153 56.5923 18.5037 56.7975C18.7921 57.0026 19.1622 57.0557 19.4962 56.9396L27.9996 53.9896L36.5031 56.9396C36.8354 57.0552 37.2066 57.0033 37.4956 56.7975C37.784 56.5923 37.9552 56.2602 37.9552 55.9063V46.0585C40.9259 44.4554 41.3034 41.7982 43.5941 39.5647C44.5506 38.6081 45.513 37.9949 46.4438 37.4019C48.0096 36.4039 49.4888 35.4613 50.4045 33.2508C51.3203 31.04 50.9408 29.3275 50.5391 27.5146ZM28.358 51.7986C28.1258 51.7181 27.8733 51.7181 27.6411 51.7986L20.2314 54.3692V46.8279C21.6702 47.1026 23.0634 46.8262 24.4553 46.5096C26.908 45.8789 29.0934 45.8795 31.5438 46.5096C32.9223 46.8151 34.2425 47.1075 35.7677 46.8279V54.3692L28.358 51.7986ZM48.4036 27.9877C48.7704 29.6435 49.0355 30.8399 48.3835 32.4135C47.7318 33.9871 46.6984 34.6457 45.2682 35.557C44.2861 36.1828 43.1732 36.8921 42.0474 38.0178C40.9216 39.1437 40.2123 40.2567 39.5865 41.2388C38.6751 42.669 38.0166 43.7023 36.443 44.3542C34.8694 45.0059 33.6731 44.7409 32.0172 44.3741C25.3981 42.642 23.0279 45.7846 19.5563 44.3542C16.1056 42.9257 16.6235 39.0015 10.7311 35.557C9.30092 34.6457 8.26749 33.9871 7.61575 32.4134C6.96391 30.8397 7.22891 29.6434 7.59585 27.9876C8.29362 25.2935 8.29275 22.6433 7.59585 19.9525C7.22902 18.2967 6.96391 17.1004 7.61575 15.5267H7.61586C8.26759 13.9531 9.30103 13.2946 10.7311 12.3832C11.7132 11.7575 12.8261 11.0482 13.952 9.92237C15.0777 8.79663 15.787 7.68358 16.4128 6.70155C17.3241 5.27122 17.9827 4.23789 19.5564 3.58605C23.0134 2.15014 25.3387 5.29692 32.0173 3.56615C35.5605 2.60326 37.7631 3.5177 39.5866 6.70155C40.2124 7.68358 40.9217 8.79652 42.0474 9.92237C43.1733 11.0481 44.2863 11.7574 45.2683 12.3832C48.4544 14.2081 49.3655 16.4116 48.4036 19.9525C47.7056 22.6466 47.7064 25.297 48.4036 27.9877Z" fill="#666666" stroke="#666666" stroke-width="1.5"/>
<path d="M18.1677 19.392L19.8146 30.6892C19.893 31.2266 20.3538 31.6252 20.8969 31.6252H35.1025C35.6456 31.6252 36.1065 31.2266 36.1848 30.6892L37.8316 19.392C37.8979 18.9367 37.6724 18.4886 37.267 18.2708C36.8622 18.0531 36.3638 18.1122 36.0206 18.4187L31.7335 22.2501L28.9902 16.3962C28.6099 15.5631 27.3897 15.5634 27.0096 16.3962L24.2664 22.2501L19.9791 18.4187C19.6361 18.1121 19.138 18.053 18.7327 18.2708C18.327 18.4886 18.1014 18.9367 18.1677 19.392ZM23.9042 24.8602C24.1617 25.0905 24.5131 25.1857 24.852 25.1163C25.1907 25.047 25.4766 24.8218 25.6232 24.5088L27.9996 19.4377L30.3761 24.5088C30.5228 24.8218 30.8088 25.047 31.1474 25.1163C31.4862 25.1855 31.8375 25.0906 32.0953 24.8602L35.2327 22.0563L34.1567 29.4377H21.8427L20.7666 22.0563L23.9042 24.8602Z" fill="#FF0000" stroke="#FF0000" stroke-width="1.3"/>
<path d="M17.172 14.2364C17.4521 14.2364 17.7321 14.1296 17.9457 13.9158C18.3728 13.4888 18.3728 12.7962 17.9457 12.3691C17.5185 11.9421 16.8262 11.9421 16.3989 12.3691L16.3983 12.3698C15.9712 12.7969 15.9715 13.4891 16.3986 13.9162C16.6122 14.1298 16.892 14.2364 17.172 14.2364Z" fill="#FF0000" stroke="#FF0000" stroke-width="1.5"/>
</svg>
