<svg width="48" height="56" viewBox="0 0 48 56" fill="none" xmlns="http://www.w3.org/2000/svg">
<path d="M24 6.56445C21.4286 6.56445 18.9648 7.144 16.677 8.28702C16.1367 8.55706 15.9175 9.21393 16.1875 9.75432C16.4573 10.2946 17.1143 10.5137 17.6546 10.2439C26.8396 5.46584 38.3919 12.6016 38.2179 22.9701C38.218 30.8097 31.8399 37.1879 23.9999 37.1879C13.633 37.3609 6.49481 25.81 11.2735 16.6252C11.5435 16.085 11.3243 15.428 10.784 15.158C10.2434 14.8879 9.58669 15.1072 9.31676 15.6476C3.80246 26.2468 12.0362 39.5752 24.0002 39.3752C45.7331 38.5513 45.7291 7.38604 24 6.56445Z" fill="#3F3F3E" stroke="#3F3F3E" stroke-width="1.5"/>
<path d="M46.5395 26.5146C45.9087 24.0617 45.9093 21.8766 46.5395 19.4259C46.9412 17.613 47.3206 15.9006 46.4051 13.6899C45.4894 11.4791 44.0103 10.5366 42.4442 9.53856C41.5135 8.94556 40.551 8.33221 39.5946 7.37578C38.638 6.41923 38.0247 5.45689 37.4318 4.52616C36.4338 2.9602 35.4912 1.48109 33.2806 0.565342C29.6884 -0.899443 27.4844 0.948682 24.0001 0.916308C20.5159 0.948682 18.3119 -0.899443 14.7197 0.565342C12.509 1.48109 11.5665 2.9602 10.5685 4.52616C9.97546 5.45689 9.36223 6.41923 8.40569 7.37578C7.44925 8.33232 6.4868 8.94556 5.55607 9.53856C3.99022 10.5364 2.511 11.479 1.59525 13.6897C0.679501 15.9005 1.05901 17.6129 1.46073 19.4258C2.09135 21.8782 2.09091 24.0641 1.46062 26.5144C1.0589 28.3275 0.679501 30.0398 1.59514 32.2505C2.51089 34.4612 3.99 35.4039 5.55607 36.4018C6.4868 36.9948 7.44925 37.6081 8.40569 38.5647C9.36223 39.5211 9.97557 40.4835 10.5685 41.4143C11.4583 42.8107 12.3043 44.1381 14.0446 45.0585V54.9063C14.0446 55.2602 14.2157 55.5923 14.5041 55.7975C14.7925 56.0026 15.1626 56.0557 15.4967 55.9396L24 52.9896L32.5035 55.9396C32.8359 56.0552 33.2071 56.0033 33.496 55.7975C33.7844 55.5923 33.9556 55.2602 33.9556 54.9063V45.0585C36.9263 43.4554 37.3038 40.7982 39.5946 38.5647C40.551 37.6081 41.5135 36.9949 42.4442 36.4019C44.01 35.4039 45.4893 34.4613 46.4049 32.2508C47.3208 30.04 46.9412 28.3275 46.5395 26.5146ZM24.3584 50.7986C24.1262 50.7181 23.8737 50.7181 23.6415 50.7986L16.2318 53.3692V45.8279C17.6706 46.1026 19.0638 45.8262 20.4557 45.5096C22.9084 44.8789 25.0938 44.8795 27.5442 45.5096C28.9227 45.8151 30.2429 46.1075 31.7681 45.8279V53.3692L24.3584 50.7986ZM44.404 26.9877C44.7708 28.6435 45.0359 29.8399 44.384 31.4135C43.7322 32.9871 42.6988 33.6457 41.2686 34.557C40.2866 35.1828 39.1736 35.8921 38.0479 37.0178C36.922 38.1437 36.2128 39.2567 35.5869 40.2388C34.6756 41.669 34.0171 42.7023 32.4434 43.3542C30.8698 44.0059 29.6736 43.7409 28.0176 43.3741C21.3986 41.642 19.0283 44.7846 15.5567 43.3542C12.106 41.9257 12.624 38.0015 6.73157 34.557C5.30134 33.6457 4.26791 32.9871 3.61618 31.4134C2.96434 29.8397 3.22934 28.6434 3.59627 26.9876C4.29405 24.2935 4.29318 21.6433 3.59627 18.9525C3.22945 17.2967 2.96434 16.1004 3.61618 14.5267H3.61629C4.26802 12.9531 5.30145 12.2946 6.73157 11.3832C7.7136 10.7575 8.82654 10.0482 9.95239 8.92237C11.0781 7.79663 11.7874 6.68358 12.4132 5.70155C13.3246 4.27122 13.9831 3.23789 15.5568 2.58605C19.0139 1.15014 21.3392 4.29692 28.0177 2.56615C31.5609 1.60326 33.7635 2.5177 35.5871 5.70155C36.2129 6.68358 36.9221 7.79652 38.0479 8.92237C39.1737 10.0481 40.2868 10.7574 41.2687 11.3832C44.4548 13.2081 45.3659 15.4116 44.404 18.9525C43.706 21.6466 43.7069 24.297 44.404 26.9877Z" fill="#3F3F3E" stroke="#3F3F3E" stroke-width="1.5"/>
<path d="M14.1682 18.393L15.8151 29.6902C15.8935 30.2276 16.3543 30.6261 16.8974 30.6261H31.103C31.6461 30.6261 32.107 30.2276 32.1853 29.6902L33.8321 18.393C33.8984 17.9377 33.6728 17.4896 33.2675 17.2718C32.8626 17.0541 32.3642 17.1132 32.021 17.4197L27.734 21.2511L24.9907 15.3972C24.6104 14.564 23.3902 14.5644 23.0101 15.3972L20.2669 21.2511L15.9796 17.4197C15.6366 17.1131 15.1384 17.0539 14.7332 17.2718C14.3275 17.4896 14.1018 17.9377 14.1682 18.393ZM19.9047 23.8612C20.1622 24.0914 20.5136 24.1867 20.8525 24.1172C21.1912 24.048 21.4771 23.8228 21.6237 23.5098L24.0001 18.4387L26.3766 23.5098C26.5233 23.8228 26.8093 24.048 27.1479 24.1172C27.4867 24.1865 27.838 24.0915 28.0958 23.8612L31.2331 21.0573L30.1572 28.4387H17.8432L16.7671 21.0573L19.9047 23.8612Z" fill="#FF0000" stroke="#FF0000" stroke-width="1.3"/>
<path d="M13.1727 13.2374C13.4528 13.2374 13.7329 13.1305 13.9465 12.9168C14.3736 12.4897 14.3736 11.7972 13.9465 11.3701C13.5193 10.943 12.827 10.943 12.3997 11.3701L12.399 11.3708C11.9719 11.7979 11.9722 12.4901 12.3993 12.9172C12.6129 13.1307 12.8927 13.2374 13.1727 13.2374Z" fill="#FF0000" stroke="#FF0000" stroke-width="1.5"/>
</svg>
