<svg width="57" height="58" viewBox="0 0 57 58" fill="none" xmlns="http://www.w3.org/2000/svg">
<mask id="path-1-inside-1_1_429" fill="white">
<path d="M0.582031 1H0.5V1.08203H0.582031V1Z"/>
</mask>
<path d="M0.582031 1H0.5V1.08203H0.582031V1Z" fill="#666666"/>
<path d="M0.5 1V-2H-2.5V1H0.5ZM0.582031 1H3.58203V-2H0.582031V1ZM0.582031 1.08203V4.08203H3.58203V1.08203H0.582031ZM0.5 1.08203H-2.5V4.08203H0.5V1.08203ZM0.5 4H0.582031V-2H0.5V4ZM-2.41797 1V1.08203H3.58203V1H-2.41797ZM0.582031 -1.91797H0.5V4.08203H0.582031V-1.91797ZM3.5 1.08203V1H-2.5V1.08203H3.5Z" fill="#666666" mask="url(#path-1-inside-1_1_429)"/>
<path d="M50.6126 16.2433C50.585 15.6372 50.5695 15.0429 50.5607 14.4556C50.5276 12.2161 48.7658 10.3886 46.5296 10.2637C39.6905 9.88165 34.3418 7.60676 29.824 3.20321C29.068 2.51021 27.9341 2.51021 27.1781 3.20321C22.6602 7.60676 17.3116 9.88165 10.4725 10.2637C8.23631 10.3886 6.47449 12.2161 6.44124 14.4555C6.4326 15.0429 6.41707 15.6372 6.38951 16.2433C6.13816 29.4409 5.76137 47.5284 27.7128 55.1828C27.8177 55.2194 27.9257 55.2486 28.0346 55.2704L28.0357 55.2706C28.3429 55.332 28.6591 55.332 28.9664 55.2706C29.076 55.2488 29.1847 55.2192 29.2902 55.1824C51.178 47.528 50.8639 29.5034 50.6126 16.2433Z" stroke="#666666" stroke-width="4" stroke-miterlimit="10"/>
<path d="M40.7943 29.0002C40.7943 35.7904 35.2898 41.2949 28.4997 41.2949C21.7096 41.2949 16.2051 35.7904 16.2051 29.0002C16.2051 22.21 21.7096 16.7055 28.4997 16.7055C35.2898 16.7055 40.7943 22.21 40.7943 29.0002Z" stroke="#666666" stroke-width="4" stroke-miterlimit="10"/>
<path d="M33.665 25.8341L26.0322 33.4668" stroke="#FF0000" stroke-width="4" stroke-miterlimit="10" stroke-linecap="round"/>
<path d="M23.1162 30.55L26.033 33.4668" stroke="#FF0000" stroke-width="4" stroke-miterlimit="10" stroke-linecap="round"/>
</svg>
