<svg width="57" height="56" viewBox="0 0 57 56" fill="none" xmlns="http://www.w3.org/2000/svg">
<g clip-path="url(#clip0_1008_35292)">
<mask id="path-1-inside-1_1008_35292" fill="white">
<path d="M0.582031 0H0.5V0.0820312H0.582031V0Z"/>
</mask>
<path d="M0.582031 0H0.5V0.0820312H0.582031V0Z" fill="white"/>
<path d="M0.5 0V-3H-2.5V0H0.5ZM0.582031 0H3.58203V-3H0.582031V0ZM0.582031 0.0820312V3.08203H3.58203V0.0820312H0.582031ZM0.5 0.0820312H-2.5V3.08203H0.5V0.0820312ZM0.5 3H0.582031V-3H0.5V3ZM-2.41797 0V0.0820312H3.58203V0H-2.41797ZM0.582031 -2.91797H0.5V3.08203H0.582031V-2.91797ZM3.5 0.0820312V0H-2.5V0.0820312H3.5Z" fill="#3F3F3E" mask="url(#path-1-inside-1_1008_35292)"/>
<path d="M50.6126 15.2431C50.585 14.6369 50.5695 14.0427 50.5607 13.4554C50.5276 11.2159 48.7658 9.38836 46.5296 9.26345C39.6905 8.8814 34.3418 6.60651 29.824 2.20297C29.068 1.50997 27.9341 1.50997 27.1781 2.20297C22.6603 6.60651 17.3116 8.8814 10.4725 9.26345C8.23634 9.38836 6.47452 11.2159 6.44127 13.4552C6.43263 14.0427 6.4171 14.6369 6.38954 15.2431C6.13819 28.4406 5.7614 46.5282 27.7128 54.1826C27.8177 54.2192 27.9257 54.2484 28.0346 54.2702L28.0357 54.2704C28.343 54.3317 28.6592 54.3317 28.9664 54.2704C29.076 54.2485 29.1847 54.219 29.2903 54.1821C51.1781 46.5277 50.8639 28.5032 50.6126 15.2431Z" stroke="#3F3F3E" stroke-width="4" stroke-miterlimit="10"/>
<path d="M40.7947 28.0002C40.7947 34.7904 35.2902 40.2949 28.5001 40.2949C21.71 40.2949 16.2054 34.7904 16.2054 28.0002C16.2054 21.21 21.71 15.7055 28.5001 15.7055C35.2902 15.7055 40.7947 21.21 40.7947 28.0002Z" stroke="#3F3F3E" stroke-width="4" stroke-miterlimit="10"/>
<path d="M33.6654 24.8331L26.0327 32.4658" stroke="#FF0000" stroke-width="4" stroke-miterlimit="10" stroke-linecap="round"/>
<path d="M23.1158 29.549L26.0327 32.4658" stroke="#FF0000" stroke-width="4" stroke-miterlimit="10" stroke-linecap="round"/>
</g>
<defs>
<clipPath id="clip0_1008_35292">
<rect width="56" height="56" fill="white" transform="translate(0.5)"/>
</clipPath>
</defs>
</svg>
