<svg width="56" height="56" viewBox="0 0 56 56" fill="none" xmlns="http://www.w3.org/2000/svg">
<path d="M48.8841 14.8652C49.5283 16.392 49.875 17.885 49.875 19.25C49.875 20.0473 49.7569 20.7747 49.5305 21.4375C48.9158 23.2378 47.5037 24.5678 45.4934 25.5413C43.4601 26.5256 40.8155 27.1447 37.7639 27.5155C34.825 27.8731 31.5087 28 28 28C24.4912 28 21.175 27.8731 18.2361 27.5155C15.1845 27.1447 12.5398 26.5256 10.5066 25.5413C8.49624 24.5678 7.08421 23.2378 6.46952 21.4375C6.24311 20.7747 6.12499 20.0473 6.12499 19.25C6.12499 17.885 6.47171 16.392 7.11593 14.8652C8.14843 12.4152 9.94655 9.88203 12.3025 7.66719C13.9639 6.10422 15.9031 4.69875 18.048 3.59297C20.1316 2.51891 22.4087 1.72594 24.8139 1.34641C25.8541 1.18125 26.9183 1.09375 28 1.09375C29.0817 1.09375 30.1459 1.18125 31.1861 1.34641C33.5912 1.72594 35.8684 2.51891 37.952 3.59297C40.0969 4.69875 42.0361 6.10422 43.6975 7.66719C46.0534 9.88203 47.8516 12.4152 48.8841 14.8652Z" stroke="#666666" stroke-width="3.5" stroke-miterlimit="10" stroke-linecap="round" stroke-linejoin="round"/>
<path d="M25.8125 39.9394V45.5H28" stroke="#666666" stroke-width="3.5" stroke-miterlimit="10" stroke-linecap="round" stroke-linejoin="round"/>
<path d="M10.6426 28.5066L14.8754 31.4434" stroke="#666666" stroke-width="3.5" stroke-miterlimit="10" stroke-linecap="round" stroke-linejoin="round"/>
<path d="M45.3578 28.5066L41.125 31.4434" stroke="#666666" stroke-width="3.5" stroke-miterlimit="10" stroke-linecap="round" stroke-linejoin="round"/>
<path d="M18.0488 3.59297C22.251 6.80094 25.1287 11.6594 25.7062 17.1916C25.8287 18.3641 26.8218 19.25 28.0009 19.25C29.1799 19.25 30.173 18.3641 30.2955 17.1916C30.873 11.6594 33.7507 6.80094 37.9529 3.59297" stroke="#666666" stroke-width="3.5" stroke-miterlimit="10" stroke-linecap="round" stroke-linejoin="round"/>
<path d="M48.8622 14.875H47.3124C43.3508 14.875 39.5511 16.4489 36.75 19.25C36.75 14.2352 39.5631 9.87656 43.6975 7.66719" stroke="#666666" stroke-width="3.5" stroke-miterlimit="10" stroke-linecap="round" stroke-linejoin="round"/>
<path d="M49.5302 21.4377H47.3121C45.0743 21.4377 42.971 22.3094 41.3895 23.8898L37.7637 27.5156" stroke="#666666" stroke-width="3.5" stroke-miterlimit="10" stroke-linecap="round" stroke-linejoin="round"/>
<path d="M18.2353 27.5156L14.6095 23.8898C13.028 22.3094 10.9247 21.4377 8.68687 21.4377H6.46875" stroke="#666666" stroke-width="3.5" stroke-miterlimit="10" stroke-linecap="round" stroke-linejoin="round"/>
<path d="M7.13867 14.875H8.68852C12.6501 14.875 16.4498 16.4489 19.2509 19.25C19.2509 14.2352 16.4377 9.87656 12.3034 7.66719" stroke="#666666" stroke-width="3.5" stroke-miterlimit="10" stroke-linecap="round" stroke-linejoin="round"/>
<path d="M24.8145 1.34531V1.34641L28.0005 6.125L31.1866 1.34641V1.34531" stroke="#666666" stroke-width="3.5" stroke-miterlimit="10" stroke-linecap="round" stroke-linejoin="round"/>
<path d="M25.8125 49.875H30.1875" stroke="#666666" stroke-width="3.5" stroke-miterlimit="10" stroke-linecap="round" stroke-linejoin="round"/>
<path d="M40.9064 46.7031C40.9064 47.3072 40.4167 47.7969 39.8126 47.7969C39.2085 47.7969 38.7189 47.3072 38.7189 46.7031C38.7189 46.099 39.2085 45.6094 39.8126 45.6094C40.4167 45.6094 40.9064 46.099 40.9064 46.7031Z" fill="#FF0000"/>
<path d="M45.4944 25.5405C45.478 26.5423 45.432 27.5311 45.3587 28.5056C46.7445 29.2395 47.6884 30.6964 47.6884 32.3742C47.6884 34.5562 46.0905 36.3653 44.0014 36.6956C43.4796 38.6779 42.8322 40.5695 42.0762 42.332" stroke="#666666" stroke-width="3.5" stroke-miterlimit="10" stroke-linecap="round" stroke-linejoin="round"/>
<path d="M36.8192 50.6077C34.2295 53.3089 31.216 54.9062 28 54.9062C20.8622 54.9062 14.7219 47.0378 11.9995 36.6964C9.91045 36.3662 8.31248 34.557 8.31248 32.375C8.31248 30.6972 9.25639 29.2403 10.6422 28.5064C10.5689 27.5319 10.5229 26.5431 10.5065 25.5413" stroke="#666666" stroke-width="3.5" stroke-miterlimit="10" stroke-linecap="round" stroke-linejoin="round"/>
<path d="M41.125 31.4432C36.3125 32.375 31.2528 32.375 28 32.375C24.7472 32.375 19.6875 32.375 14.875 31.4432C14.875 35.8247 17.8095 39.9864 22.8769 40.9271C23.9619 41.1283 25.0622 40.7269 25.8125 39.9394C25.947 39.7983 26.0695 39.6452 26.18 39.48C27.0452 38.1817 28.9537 38.1817 29.82 39.48C30.5419 40.5617 31.8423 41.1644 33.1209 40.9271C38.1544 39.9897 41.125 35.863 41.125 31.4432Z" stroke="#FF0000" stroke-width="3.5" stroke-miterlimit="10" stroke-linecap="round" stroke-linejoin="round"/>
</svg>
