<svg width="56" height="56" viewBox="0 0 56 56" fill="none" xmlns="http://www.w3.org/2000/svg">
<g clip-path="url(#clip0_1_377)">
<path d="M52.4368 27.3766C45.6699 13.8427 45.8777 14.2549 45.8345 14.1785C45.5359 13.65 44.979 13.3445 44.4068 13.3445C44.1691 13.3445 11.574 13.3403 11.4459 13.3519C10.8921 13.4007 10.3988 13.7308 10.1396 14.2268C10.1353 14.2351 10.1304 14.243 10.1263 14.2513L3.56366 27.3765C3.55841 27.3869 3.55404 27.3976 3.54911 27.4081C3.54518 27.4162 3.5408 27.4241 3.53708 27.4323C3.53435 27.4382 3.53238 27.4443 3.52975 27.4502C3.52964 27.4505 3.52954 27.4507 3.52954 27.4509C3.28158 28.0153 3.36657 28.6836 3.78121 29.1719C3.78635 29.1781 3.79105 29.1846 3.79641 29.1906L26.7655 55.4411C26.7682 55.4441 26.7713 55.4467 26.774 55.4498C27.4186 56.1752 28.5659 56.193 29.2263 55.4498C29.2291 55.4467 29.2321 55.4441 29.2348 55.4411L52.2039 29.1906C52.2051 29.1893 52.2062 29.1879 52.2073 29.1865C52.6264 28.7044 52.7428 27.9888 52.4368 27.3766ZM41.7522 16.6257L37.5639 25.0022L31.2815 16.6257H41.7522ZM34.5628 26.4697H21.4376L28.0002 17.7196L34.5628 26.4697ZM24.719 16.6257L18.4366 25.0021L14.2484 16.6257H24.719ZM11.5938 18.6538L15.5018 26.4697H7.68578L11.5938 18.6538ZM8.64675 29.7509H17.0193L23.2987 46.4961L8.64675 29.7509ZM28.0002 49.6881L20.5238 29.7509H35.4767L28.0002 49.6881ZM32.7017 46.4963L38.9811 29.7511H47.3537L32.7017 46.4963ZM40.4988 26.4697L44.4068 18.6538L48.3149 26.4697H40.4988Z" fill="#666666"/>
<path d="M28.0002 0C27.0942 0 26.3596 0.734563 26.3596 1.64063V6.56261C26.3596 7.46867 27.0942 8.20323 28.0002 8.20323C28.9063 8.20323 29.6409 7.46867 29.6409 6.56261V1.64063C29.6409 0.734563 28.9063 0 28.0002 0Z" fill="#FF0000"/>
<path d="M22.5978 7.04296L19.3166 3.76171C18.676 3.1211 17.6371 3.1211 16.9964 3.76171C16.3557 4.40243 16.3557 5.44116 16.9964 6.08188L20.2777 9.36313C20.9184 10.0038 21.9571 10.0038 22.5978 9.36313C23.2385 8.72241 23.2385 7.68367 22.5978 7.04296Z" fill="#FF0000"/>
<path d="M39.0041 3.76171C38.3635 3.1211 37.3246 3.1211 36.6839 3.76171L33.4027 7.04296C32.7619 7.68368 32.7619 8.72241 33.4027 9.36313C34.0434 10.0038 35.0822 10.0037 35.7228 9.36313L39.0041 6.08188C39.6448 5.44116 39.6448 4.40243 39.0041 3.76171Z" fill="#FF0000"/>
</g>
<defs>
<clipPath id="clip0_1_377">
<rect width="56" height="56" fill="white"/>
</clipPath>
</defs>
</svg>
