<svg width="50" height="56" viewBox="0 0 50 56" fill="none" xmlns="http://www.w3.org/2000/svg">
<path d="M49.4368 27.3757C42.6699 13.8417 42.8777 14.2539 42.8345 14.1775C42.5359 13.649 41.979 13.3435 41.4068 13.3435C41.1691 13.3435 8.57396 13.3393 8.44588 13.3509C7.89211 13.3997 7.39883 13.7298 7.13961 14.2258C7.13535 14.2341 7.13043 14.242 7.12627 14.2503L0.56366 27.3755C0.55841 27.3859 0.554035 27.3967 0.549113 27.4072C0.545176 27.4152 0.540801 27.4231 0.537082 27.4313C0.534348 27.4372 0.532379 27.4434 0.529754 27.4493C0.529644 27.4495 0.529535 27.4497 0.529535 27.4499C0.281582 28.0143 0.366566 28.6826 0.781207 29.1709C0.786348 29.1772 0.791051 29.1836 0.79641 29.1896L23.7655 55.4401C23.7682 55.4431 23.7713 55.4458 23.774 55.4488C24.4186 56.1742 25.5659 56.192 26.2263 55.4488C26.2291 55.4458 26.2321 55.4431 26.2348 55.4401L49.2039 29.1896C49.2051 29.1883 49.2062 29.1869 49.2073 29.1855C49.6264 28.7035 49.7428 27.9878 49.4368 27.3757ZM38.7522 16.6247L34.5639 25.0012L28.2815 16.6247H38.7522ZM31.5628 26.4687H18.4376L25.0002 17.7186L31.5628 26.4687ZM21.719 16.6247L15.4366 25.0011L11.2484 16.6247H21.719ZM8.59375 18.6528L12.5018 26.4687H4.68578L8.59375 18.6528ZM5.64675 29.75H14.0193L20.2987 46.4952L5.64675 29.75ZM25.0002 49.6872L17.5238 29.75H32.4767L25.0002 49.6872ZM29.7017 46.4953L35.9811 29.7501H44.3537L29.7017 46.4953ZM37.4988 26.4687L41.4068 18.6528L45.3149 26.4687H37.4988Z" fill="#3F3F3E"/>
<path d="M25.0002 0C24.0942 0 23.3596 0.734563 23.3596 1.64063V6.56261C23.3596 7.46867 24.0942 8.20323 25.0002 8.20323C25.9063 8.20323 26.6409 7.46867 26.6409 6.56261V1.64063C26.6409 0.734563 25.9063 0 25.0002 0Z" fill="#FF0000"/>
<path d="M19.5978 7.04296L16.3165 3.76171C15.6759 3.1211 14.6371 3.1211 13.9963 3.76171C13.3556 4.40243 13.3556 5.44116 13.9963 6.08188L17.2776 9.36313C17.9183 10.0038 18.9571 10.0038 19.5978 9.36313C20.2385 8.72241 20.2385 7.68367 19.5978 7.04296Z" fill="#FF0000"/>
<path d="M36.0042 3.76171C35.3636 3.1211 34.3247 3.1211 33.684 3.76171L30.4028 7.04296C29.7621 7.68368 29.7621 8.72241 30.4028 9.36313C31.0435 10.0038 32.0823 10.0037 32.723 9.36313L36.0042 6.08188C36.6449 5.44116 36.6449 4.40243 36.0042 3.76171Z" fill="#FF0000"/>
</svg>
