<svg width="56" height="50" viewBox="0 0 56 50" fill="none" xmlns="http://www.w3.org/2000/svg">
<path d="M46.5766 8.28971L44.4138 11.8621H17.5048L11.171 1.29937C10.8157 0.707788 10.1718 0.35069 9.48185 0.362593C8.79188 0.374496 8.16067 0.753591 7.82599 1.35708C7.49131 1.96056 7.50401 2.69675 7.85931 3.28834L14.1641 13.7932L0.279998 36.9366C-0.086167 37.5323 -0.0972798 38.2806 0.251032 38.887C0.594876 39.4905 1.2364 39.8629 1.93103 39.8621H21.7434C21.4091 38.9331 21.2392 37.9529 21.2414 36.9656C21.2411 36.6429 21.2605 36.3204 21.2993 36.0001H5.33931L16.4138 17.549L24.1669 30.4676C25.1408 29.6051 26.2955 28.9717 27.5462 28.6139L19.8221 15.7242H42.0772L33.8993 29.2414C35.073 29.8428 36.0936 30.7048 36.8828 31.7614L49.2607 11.3118L46.5766 8.28971Z" fill="#3F3F3E"/>
<path d="M52.6255 12.1789C53.3351 12.9711 54.5516 13.0404 55.3466 12.334C56.1416 11.6276 56.2157 10.4113 55.5124 9.61355L47.7883 0.923897C47.0787 0.131732 45.8622 0.0624119 45.0672 0.768844C44.2722 1.47528 44.1981 2.69152 44.9014 3.48928L52.6255 12.1789Z" fill="#3F3F3E"/>
<path d="M29.931 30.207C26.1984 30.207 23.1724 33.233 23.1724 36.9657C23.1724 40.6983 26.1984 43.7243 29.931 43.7243C33.6637 43.7243 36.6897 40.6983 36.6897 36.9657C36.6909 35.1728 35.9793 33.4529 34.7115 32.1852C33.4438 30.9174 31.7239 30.2058 29.931 30.207ZM29.931 39.8622C28.3313 39.8622 27.0345 38.5654 27.0345 36.9657C27.0345 35.3659 28.3313 34.0691 29.931 34.0691C31.5308 34.0691 32.8276 35.3659 32.8276 36.9657C32.8276 38.5654 31.5308 39.8622 29.931 39.8622Z" fill="#3F3F3E"/>
<path d="M43.5892 36.2951C43.5892 43.0853 38.0847 48.5898 31.2946 48.5898C24.5045 48.5898 18.9999 43.0853 18.9999 36.2951C18.9999 29.5049 24.5045 24.0004 31.2946 24.0004C38.0847 24.0004 43.5892 29.5049 43.5892 36.2951Z" fill="#FF0000" stroke="white" stroke-width="3" stroke-miterlimit="10"/>
<path d="M36.4601 33.128L28.8273 40.7607" stroke="white" stroke-width="3" stroke-miterlimit="10" stroke-linecap="round"/>
<path d="M25.9105 37.8439L28.8273 40.7607" stroke="white" stroke-width="3" stroke-miterlimit="10" stroke-linecap="round"/>
</svg>
