<svg width="56" height="56" viewBox="0 0 56 56" fill="none" xmlns="http://www.w3.org/2000/svg">
<g clip-path="url(#clip0_1_362)">
<path d="M46.5772 14.2907L44.4145 17.8631H17.5055L11.1717 7.30035C10.8164 6.70876 10.1725 6.35167 9.48253 6.36357C8.79255 6.37547 8.16134 6.75457 7.82666 7.35805C7.49199 7.96154 7.50469 8.69773 7.85998 9.28931L14.1648 19.7941L0.280669 42.9376C-0.0854956 43.5333 -0.0966084 44.2816 0.251704 44.8879C0.595548 45.4915 1.23707 45.8639 1.9317 45.8631H21.7441C21.4097 44.9341 21.2398 43.9539 21.2421 42.9666C21.2418 42.6438 21.2612 42.3214 21.3 42.001H5.33998L16.4145 23.55L24.1676 36.4686C25.1414 35.6061 26.2961 34.9726 27.5469 34.6148L19.8227 21.7252H42.0779L33.9 35.2424C35.0737 35.8438 36.0942 36.7058 36.8834 37.7624L49.2614 17.3128L46.5772 14.2907Z" fill="#666666"/>
<path d="M52.6266 18.1789C53.3362 18.9711 54.5527 19.0404 55.3477 18.334C56.1426 17.6276 56.2168 16.4113 55.5135 15.6136L47.7893 6.9239C47.0798 6.13173 45.8632 6.06241 45.0683 6.76884C44.2733 7.47528 44.1992 8.69152 44.9025 9.48928L52.6266 18.1789Z" fill="#666666"/>
<path d="M29.9324 36.207C26.1998 36.207 23.1738 39.233 23.1738 42.9657C23.1738 46.6983 26.1998 49.7243 29.9324 49.7243C33.6651 49.7243 36.6911 46.6983 36.6911 42.9657C36.6924 41.1728 35.9807 39.4529 34.7129 38.1852C33.4452 36.9174 31.7253 36.2058 29.9324 36.207ZM29.9324 45.8622C28.3327 45.8622 27.0359 44.5654 27.0359 42.9657C27.0359 41.3659 28.3327 40.0691 29.9324 40.0691C31.5322 40.0691 32.829 41.3659 32.829 42.9657C32.829 44.5654 31.5322 45.8622 29.9324 45.8622Z" fill="#666666"/>
<path d="M43.5892 42.2951C43.5892 49.0853 38.0847 54.5898 31.2946 54.5898C24.5045 54.5898 19 49.0853 19 42.2951C19 35.5049 24.5045 30.0004 31.2946 30.0004C38.0847 30.0004 43.5892 35.5049 43.5892 42.2951Z" fill="#FAFAFA" stroke="#666666" stroke-width="3" stroke-miterlimit="10"/>
<path d="M36.4609 39.129L28.8281 46.7617" stroke="#FF0000" stroke-width="3" stroke-miterlimit="10" stroke-linecap="round"/>
<path d="M25.9102 43.8449L28.827 46.7617" stroke="#FF0000" stroke-width="3" stroke-miterlimit="10" stroke-linecap="round"/>
</g>
<defs>
<clipPath id="clip0_1_362">
<rect width="56" height="56" fill="white"/>
</clipPath>
</defs>
</svg>
