<svg width="24" height="24" viewBox="0 0 24 24" fill="none" xmlns="http://www.w3.org/2000/svg">
<rect width="24" height="24" rx="5" fill="#636363"/>
<path d="M18.3999 18.4004V13.7124C18.3999 11.4084 17.9039 9.64844 15.2159 9.64844C13.9199 9.64844 13.0559 10.3524 12.7039 11.0244H12.6719V9.85644H10.1279V18.4004H12.7839V14.1604C12.7839 13.0404 12.9919 11.9684 14.3679 11.9684C15.7279 11.9684 15.7439 13.2324 15.7439 14.2244V18.3844H18.3999V18.4004Z" fill="white"/>
<path d="M5.80811 9.85547H8.4641V18.3995H5.80811V9.85547Z" fill="white"/>
<path d="M7.1361 5.59961C6.2881 5.59961 5.6001 6.28761 5.6001 7.13561C5.6001 7.98361 6.2881 8.68761 7.1361 8.68761C7.9841 8.68761 8.6721 7.98361 8.6721 7.13561C8.6721 6.28761 7.9841 5.59961 7.1361 5.59961Z" fill="white"/>
</svg>
